%TF.GenerationSoftware,KiCad,Pcbnew,9.0.0*%
%TF.CreationDate,2025-04-11T15:19:07-05:00*%
%TF.ProjectId,RC-PCB,52432d50-4342-42e6-9b69-6361645f7063,rev?*%
%TF.SameCoordinates,Original*%
%TF.FileFunction,Soldermask,Bot*%
%TF.FilePolarity,Negative*%
%FSLAX46Y46*%
G04 Gerber Fmt 4.6, Leading zero omitted, Abs format (unit mm)*
G04 Created by KiCad (PCBNEW 9.0.0) date 2025-04-11 15:19:07*
%MOMM*%
%LPD*%
G01*
G04 APERTURE LIST*
G04 Aperture macros list*
%AMRoundRect*
0 Rectangle with rounded corners*
0 $1 Rounding radius*
0 $2 $3 $4 $5 $6 $7 $8 $9 X,Y pos of 4 corners*
0 Add a 4 corners polygon primitive as box body*
4,1,4,$2,$3,$4,$5,$6,$7,$8,$9,$2,$3,0*
0 Add four circle primitives for the rounded corners*
1,1,$1+$1,$2,$3*
1,1,$1+$1,$4,$5*
1,1,$1+$1,$6,$7*
1,1,$1+$1,$8,$9*
0 Add four rect primitives between the rounded corners*
20,1,$1+$1,$2,$3,$4,$5,0*
20,1,$1+$1,$4,$5,$6,$7,0*
20,1,$1+$1,$6,$7,$8,$9,0*
20,1,$1+$1,$8,$9,$2,$3,0*%
G04 Aperture macros list end*
%ADD10C,3.000000*%
%ADD11C,1.300000*%
%ADD12RoundRect,0.250000X0.600000X-0.850000X0.600000X0.850000X-0.600000X0.850000X-0.600000X-0.850000X0*%
%ADD13O,1.700000X2.200000*%
%ADD14C,1.270000*%
%ADD15RoundRect,0.250001X-0.759999X0.499999X-0.759999X-0.499999X0.759999X-0.499999X0.759999X0.499999X0*%
%ADD16O,2.020000X1.500000*%
%ADD17R,1.700000X1.700000*%
%ADD18O,1.700000X1.700000*%
%ADD19R,1.000000X1.000000*%
%ADD20RoundRect,0.250000X-0.337500X-0.475000X0.337500X-0.475000X0.337500X0.475000X-0.337500X0.475000X0*%
G04 APERTURE END LIST*
D10*
%TO.C,H4*%
X137905000Y-134675000D03*
%TD*%
%TO.C,H3*%
X160705000Y-76875000D03*
%TD*%
D11*
%TO.C,Motor1*%
X148050000Y-77140000D03*
D12*
X144300000Y-75800000D03*
D13*
X146800000Y-75800000D03*
X149300000Y-75800000D03*
X151800000Y-75800000D03*
X154300000Y-75800000D03*
%TD*%
D14*
%TO.C,Battery1*%
X162860000Y-117500000D03*
X162860000Y-126500000D03*
D15*
X160900000Y-120500000D03*
D16*
X160900000Y-123500000D03*
%TD*%
D17*
%TO.C,Power*%
X153400000Y-123300000D03*
D18*
X153400000Y-120760000D03*
%TD*%
D10*
%TO.C,H1*%
X160705000Y-134675000D03*
%TD*%
D17*
%TO.C,Servo1*%
X147100000Y-135400000D03*
D18*
X149640000Y-135400000D03*
X152180000Y-135400000D03*
%TD*%
D17*
%TO.C,Motor*%
X150575000Y-85400000D03*
D18*
X148035000Y-85400000D03*
%TD*%
D19*
%TO.C,+5V*%
X160400000Y-107100000D03*
%TD*%
D10*
%TO.C,H2*%
X137905000Y-76875000D03*
%TD*%
D17*
%TO.C,Servo*%
X147100000Y-127560000D03*
D18*
X147100000Y-130100000D03*
%TD*%
D19*
%TO.C,GND*%
X160400000Y-105000000D03*
%TD*%
%TO.C,Rev2*%
X144005000Y-83900000D03*
%TD*%
%TO.C,+12V*%
X160400000Y-109200000D03*
%TD*%
D20*
%TO.C,C3*%
X153462500Y-81400000D03*
X155537500Y-81400000D03*
%TD*%
D17*
%TO.C,GPIO*%
X138905000Y-81695000D03*
D18*
X136365000Y-81695000D03*
X138905000Y-84235000D03*
X136365000Y-84235000D03*
X138905000Y-86775000D03*
X136365000Y-86775000D03*
X138905000Y-89315000D03*
X136365000Y-89315000D03*
X138905000Y-91855000D03*
X136365000Y-91855000D03*
X138905000Y-94395000D03*
X136365000Y-94395000D03*
X138905000Y-96935000D03*
X136365000Y-96935000D03*
X138905000Y-99475000D03*
X136365000Y-99475000D03*
X138905000Y-102015000D03*
X136365000Y-102015000D03*
X138905000Y-104555000D03*
X136365000Y-104555000D03*
X138905000Y-107095000D03*
X136365000Y-107095000D03*
X138905000Y-109635000D03*
X136365000Y-109635000D03*
X138905000Y-112175000D03*
X136365000Y-112175000D03*
X138905000Y-114715000D03*
X136365000Y-114715000D03*
X138905000Y-117255000D03*
X136365000Y-117255000D03*
X138905000Y-119795000D03*
X136365000Y-119795000D03*
X138905000Y-122335000D03*
X136365000Y-122335000D03*
X138905000Y-124875000D03*
X136365000Y-124875000D03*
X138905000Y-127415000D03*
X136365000Y-127415000D03*
X138905000Y-129955000D03*
X136365000Y-129955000D03*
%TD*%
D20*
%TO.C,C6*%
X150962500Y-130400000D03*
X153037500Y-130400000D03*
%TD*%
M02*
