%TF.GenerationSoftware,KiCad,Pcbnew,9.0.0*%
%TF.CreationDate,2025-04-06T00:06:35-05:00*%
%TF.ProjectId,RC-PCB,52432d50-4342-42e6-9b69-6361645f7063,rev?*%
%TF.SameCoordinates,Original*%
%TF.FileFunction,Legend,Bot*%
%TF.FilePolarity,Positive*%
%FSLAX46Y46*%
G04 Gerber Fmt 4.6, Leading zero omitted, Abs format (unit mm)*
G04 Created by KiCad (PCBNEW 9.0.0) date 2025-04-06 00:06:35*
%MOMM*%
%LPD*%
G01*
G04 APERTURE LIST*
%ADD10C,0.100000*%
%ADD11C,0.150000*%
%ADD12C,0.120000*%
G04 APERTURE END LIST*
D10*
X152196115Y-77991466D02*
X151434211Y-77991466D01*
X151815163Y-78372419D02*
X151815163Y-77610514D01*
X143924687Y-78572419D02*
X144258020Y-78096228D01*
X144496115Y-78572419D02*
X144496115Y-77572419D01*
X144496115Y-77572419D02*
X144115163Y-77572419D01*
X144115163Y-77572419D02*
X144019925Y-77620038D01*
X144019925Y-77620038D02*
X143972306Y-77667657D01*
X143972306Y-77667657D02*
X143924687Y-77762895D01*
X143924687Y-77762895D02*
X143924687Y-77905752D01*
X143924687Y-77905752D02*
X143972306Y-78000990D01*
X143972306Y-78000990D02*
X144019925Y-78048609D01*
X144019925Y-78048609D02*
X144115163Y-78096228D01*
X144115163Y-78096228D02*
X144496115Y-78096228D01*
X147038972Y-77991466D02*
X146991353Y-77943847D01*
X146991353Y-77943847D02*
X146896115Y-77896228D01*
X146896115Y-77896228D02*
X146705639Y-77991466D01*
X146705639Y-77991466D02*
X146610401Y-77943847D01*
X146610401Y-77943847D02*
X146562782Y-77896228D01*
X154696115Y-77991466D02*
X153934211Y-77991466D01*
D11*
X141187438Y-105755000D02*
X141139819Y-105659762D01*
X141139819Y-105659762D02*
X141139819Y-105516905D01*
X141139819Y-105516905D02*
X141187438Y-105374048D01*
X141187438Y-105374048D02*
X141282676Y-105278810D01*
X141282676Y-105278810D02*
X141377914Y-105231191D01*
X141377914Y-105231191D02*
X141568390Y-105183572D01*
X141568390Y-105183572D02*
X141711247Y-105183572D01*
X141711247Y-105183572D02*
X141901723Y-105231191D01*
X141901723Y-105231191D02*
X141996961Y-105278810D01*
X141996961Y-105278810D02*
X142092200Y-105374048D01*
X142092200Y-105374048D02*
X142139819Y-105516905D01*
X142139819Y-105516905D02*
X142139819Y-105612143D01*
X142139819Y-105612143D02*
X142092200Y-105755000D01*
X142092200Y-105755000D02*
X142044580Y-105802619D01*
X142044580Y-105802619D02*
X141711247Y-105802619D01*
X141711247Y-105802619D02*
X141711247Y-105612143D01*
X142139819Y-106231191D02*
X141139819Y-106231191D01*
X141139819Y-106231191D02*
X141139819Y-106612143D01*
X141139819Y-106612143D02*
X141187438Y-106707381D01*
X141187438Y-106707381D02*
X141235057Y-106755000D01*
X141235057Y-106755000D02*
X141330295Y-106802619D01*
X141330295Y-106802619D02*
X141473152Y-106802619D01*
X141473152Y-106802619D02*
X141568390Y-106755000D01*
X141568390Y-106755000D02*
X141616009Y-106707381D01*
X141616009Y-106707381D02*
X141663628Y-106612143D01*
X141663628Y-106612143D02*
X141663628Y-106231191D01*
X142139819Y-107231191D02*
X141139819Y-107231191D01*
X141139819Y-107897857D02*
X141139819Y-108088333D01*
X141139819Y-108088333D02*
X141187438Y-108183571D01*
X141187438Y-108183571D02*
X141282676Y-108278809D01*
X141282676Y-108278809D02*
X141473152Y-108326428D01*
X141473152Y-108326428D02*
X141806485Y-108326428D01*
X141806485Y-108326428D02*
X141996961Y-108278809D01*
X141996961Y-108278809D02*
X142092200Y-108183571D01*
X142092200Y-108183571D02*
X142139819Y-108088333D01*
X142139819Y-108088333D02*
X142139819Y-107897857D01*
X142139819Y-107897857D02*
X142092200Y-107802619D01*
X142092200Y-107802619D02*
X141996961Y-107707381D01*
X141996961Y-107707381D02*
X141806485Y-107659762D01*
X141806485Y-107659762D02*
X141473152Y-107659762D01*
X141473152Y-107659762D02*
X141282676Y-107707381D01*
X141282676Y-107707381D02*
X141187438Y-107802619D01*
X141187438Y-107802619D02*
X141139819Y-107897857D01*
D12*
%TO.C,GPIO*%
X135035000Y-80365000D02*
X135035000Y-131285000D01*
X137635000Y-80365000D02*
X135035000Y-80365000D01*
X137635000Y-82965000D02*
X137635000Y-80365000D01*
X140235000Y-80365000D02*
X138905000Y-80365000D01*
X140235000Y-81695000D02*
X140235000Y-80365000D01*
X140235000Y-82965000D02*
X137635000Y-82965000D01*
X140235000Y-82965000D02*
X140235000Y-131285000D01*
X140235000Y-131285000D02*
X135035000Y-131285000D01*
%TD*%
M02*
