%TF.GenerationSoftware,KiCad,Pcbnew,9.0.0*%
%TF.CreationDate,2025-04-06T00:06:35-05:00*%
%TF.ProjectId,RC-PCB,52432d50-4342-42e6-9b69-6361645f7063,rev?*%
%TF.SameCoordinates,Original*%
%TF.FileFunction,Legend,Top*%
%TF.FilePolarity,Positive*%
%FSLAX46Y46*%
G04 Gerber Fmt 4.6, Leading zero omitted, Abs format (unit mm)*
G04 Created by KiCad (PCBNEW 9.0.0) date 2025-04-06 00:06:35*
%MOMM*%
%LPD*%
G01*
G04 APERTURE LIST*
%ADD10C,0.100000*%
%ADD11C,0.125000*%
%ADD12C,0.050000*%
%ADD13C,0.120000*%
%ADD14C,0.127000*%
%ADD15C,0.200000*%
G04 APERTURE END LIST*
D10*
X163492866Y-123256265D02*
X163492866Y-123865789D01*
X136080074Y-131272419D02*
X135603884Y-131272419D01*
X135603884Y-131272419D02*
X135556265Y-131748609D01*
X135556265Y-131748609D02*
X135603884Y-131700990D01*
X135603884Y-131700990D02*
X135699122Y-131653371D01*
X135699122Y-131653371D02*
X135937217Y-131653371D01*
X135937217Y-131653371D02*
X136032455Y-131700990D01*
X136032455Y-131700990D02*
X136080074Y-131748609D01*
X136080074Y-131748609D02*
X136127693Y-131843847D01*
X136127693Y-131843847D02*
X136127693Y-132081942D01*
X136127693Y-132081942D02*
X136080074Y-132177180D01*
X136080074Y-132177180D02*
X136032455Y-132224800D01*
X136032455Y-132224800D02*
X135937217Y-132272419D01*
X135937217Y-132272419D02*
X135699122Y-132272419D01*
X135699122Y-132272419D02*
X135603884Y-132224800D01*
X135603884Y-132224800D02*
X135556265Y-132177180D01*
X136413408Y-131272419D02*
X136746741Y-132272419D01*
X136746741Y-132272419D02*
X137080074Y-131272419D01*
X163507866Y-120056265D02*
X163507866Y-120665789D01*
X163203104Y-120361027D02*
X163812628Y-120361027D01*
X144966667Y-82864895D02*
X144700000Y-82483942D01*
X144509524Y-82864895D02*
X144509524Y-82064895D01*
X144509524Y-82064895D02*
X144814286Y-82064895D01*
X144814286Y-82064895D02*
X144890476Y-82102990D01*
X144890476Y-82102990D02*
X144928571Y-82141085D01*
X144928571Y-82141085D02*
X144966667Y-82217276D01*
X144966667Y-82217276D02*
X144966667Y-82331561D01*
X144966667Y-82331561D02*
X144928571Y-82407752D01*
X144928571Y-82407752D02*
X144890476Y-82445847D01*
X144890476Y-82445847D02*
X144814286Y-82483942D01*
X144814286Y-82483942D02*
X144509524Y-82483942D01*
X145652381Y-82331561D02*
X145652381Y-82864895D01*
X145461905Y-82026800D02*
X145271428Y-82598228D01*
X145271428Y-82598228D02*
X145766667Y-82598228D01*
X150366667Y-99352395D02*
X150100000Y-98971442D01*
X149909524Y-99352395D02*
X149909524Y-98552395D01*
X149909524Y-98552395D02*
X150214286Y-98552395D01*
X150214286Y-98552395D02*
X150290476Y-98590490D01*
X150290476Y-98590490D02*
X150328571Y-98628585D01*
X150328571Y-98628585D02*
X150366667Y-98704776D01*
X150366667Y-98704776D02*
X150366667Y-98819061D01*
X150366667Y-98819061D02*
X150328571Y-98895252D01*
X150328571Y-98895252D02*
X150290476Y-98933347D01*
X150290476Y-98933347D02*
X150214286Y-98971442D01*
X150214286Y-98971442D02*
X149909524Y-98971442D01*
X150633333Y-98552395D02*
X151128571Y-98552395D01*
X151128571Y-98552395D02*
X150861905Y-98857157D01*
X150861905Y-98857157D02*
X150976190Y-98857157D01*
X150976190Y-98857157D02*
X151052381Y-98895252D01*
X151052381Y-98895252D02*
X151090476Y-98933347D01*
X151090476Y-98933347D02*
X151128571Y-99009538D01*
X151128571Y-99009538D02*
X151128571Y-99200014D01*
X151128571Y-99200014D02*
X151090476Y-99276204D01*
X151090476Y-99276204D02*
X151052381Y-99314300D01*
X151052381Y-99314300D02*
X150976190Y-99352395D01*
X150976190Y-99352395D02*
X150747619Y-99352395D01*
X150747619Y-99352395D02*
X150671428Y-99314300D01*
X150671428Y-99314300D02*
X150633333Y-99276204D01*
X142542857Y-82864895D02*
X142276190Y-82483942D01*
X142085714Y-82864895D02*
X142085714Y-82064895D01*
X142085714Y-82064895D02*
X142390476Y-82064895D01*
X142390476Y-82064895D02*
X142466666Y-82102990D01*
X142466666Y-82102990D02*
X142504761Y-82141085D01*
X142504761Y-82141085D02*
X142542857Y-82217276D01*
X142542857Y-82217276D02*
X142542857Y-82331561D01*
X142542857Y-82331561D02*
X142504761Y-82407752D01*
X142504761Y-82407752D02*
X142466666Y-82445847D01*
X142466666Y-82445847D02*
X142390476Y-82483942D01*
X142390476Y-82483942D02*
X142085714Y-82483942D01*
X142885714Y-82445847D02*
X143152380Y-82445847D01*
X143266666Y-82864895D02*
X142885714Y-82864895D01*
X142885714Y-82864895D02*
X142885714Y-82064895D01*
X142885714Y-82064895D02*
X143266666Y-82064895D01*
X143495238Y-82064895D02*
X143761905Y-82864895D01*
X143761905Y-82864895D02*
X144028571Y-82064895D01*
X151442857Y-111764895D02*
X151176190Y-111383942D01*
X150985714Y-111764895D02*
X150985714Y-110964895D01*
X150985714Y-110964895D02*
X151290476Y-110964895D01*
X151290476Y-110964895D02*
X151366666Y-111002990D01*
X151366666Y-111002990D02*
X151404761Y-111041085D01*
X151404761Y-111041085D02*
X151442857Y-111117276D01*
X151442857Y-111117276D02*
X151442857Y-111231561D01*
X151442857Y-111231561D02*
X151404761Y-111307752D01*
X151404761Y-111307752D02*
X151366666Y-111345847D01*
X151366666Y-111345847D02*
X151290476Y-111383942D01*
X151290476Y-111383942D02*
X150985714Y-111383942D01*
X152090476Y-111726800D02*
X152014285Y-111764895D01*
X152014285Y-111764895D02*
X151861904Y-111764895D01*
X151861904Y-111764895D02*
X151785714Y-111726800D01*
X151785714Y-111726800D02*
X151747618Y-111650609D01*
X151747618Y-111650609D02*
X151747618Y-111345847D01*
X151747618Y-111345847D02*
X151785714Y-111269657D01*
X151785714Y-111269657D02*
X151861904Y-111231561D01*
X151861904Y-111231561D02*
X152014285Y-111231561D01*
X152014285Y-111231561D02*
X152090476Y-111269657D01*
X152090476Y-111269657D02*
X152128571Y-111345847D01*
X152128571Y-111345847D02*
X152128571Y-111422038D01*
X152128571Y-111422038D02*
X151747618Y-111498228D01*
X152471428Y-111231561D02*
X152471428Y-111764895D01*
X152471428Y-111307752D02*
X152509523Y-111269657D01*
X152509523Y-111269657D02*
X152585713Y-111231561D01*
X152585713Y-111231561D02*
X152699999Y-111231561D01*
X152699999Y-111231561D02*
X152776190Y-111269657D01*
X152776190Y-111269657D02*
X152814285Y-111345847D01*
X152814285Y-111345847D02*
X152814285Y-111764895D01*
X144766666Y-106064895D02*
X144385714Y-106064895D01*
X144385714Y-106064895D02*
X144385714Y-105264895D01*
X145452380Y-106064895D02*
X144995237Y-106064895D01*
X145223809Y-106064895D02*
X145223809Y-105264895D01*
X145223809Y-105264895D02*
X145147618Y-105379180D01*
X145147618Y-105379180D02*
X145071428Y-105455371D01*
X145071428Y-105455371D02*
X144995237Y-105493466D01*
X145695238Y-102788704D02*
X145657142Y-102826800D01*
X145657142Y-102826800D02*
X145542857Y-102864895D01*
X145542857Y-102864895D02*
X145466666Y-102864895D01*
X145466666Y-102864895D02*
X145352380Y-102826800D01*
X145352380Y-102826800D02*
X145276190Y-102750609D01*
X145276190Y-102750609D02*
X145238095Y-102674419D01*
X145238095Y-102674419D02*
X145199999Y-102522038D01*
X145199999Y-102522038D02*
X145199999Y-102407752D01*
X145199999Y-102407752D02*
X145238095Y-102255371D01*
X145238095Y-102255371D02*
X145276190Y-102179180D01*
X145276190Y-102179180D02*
X145352380Y-102102990D01*
X145352380Y-102102990D02*
X145466666Y-102064895D01*
X145466666Y-102064895D02*
X145542857Y-102064895D01*
X145542857Y-102064895D02*
X145657142Y-102102990D01*
X145657142Y-102102990D02*
X145695238Y-102141085D01*
X146038095Y-102864895D02*
X146038095Y-102331561D01*
X146038095Y-102064895D02*
X145999999Y-102102990D01*
X145999999Y-102102990D02*
X146038095Y-102141085D01*
X146038095Y-102141085D02*
X146076190Y-102102990D01*
X146076190Y-102102990D02*
X146038095Y-102064895D01*
X146038095Y-102064895D02*
X146038095Y-102141085D01*
X146419047Y-102331561D02*
X146419047Y-102864895D01*
X146419047Y-102407752D02*
X146457142Y-102369657D01*
X146457142Y-102369657D02*
X146533332Y-102331561D01*
X146533332Y-102331561D02*
X146647618Y-102331561D01*
X146647618Y-102331561D02*
X146723809Y-102369657D01*
X146723809Y-102369657D02*
X146761904Y-102445847D01*
X146761904Y-102445847D02*
X146761904Y-102864895D01*
D11*
X156456119Y-124076190D02*
X155456119Y-124076190D01*
X155456119Y-124076190D02*
X155456119Y-123695238D01*
X155456119Y-123695238D02*
X155503738Y-123600000D01*
X155503738Y-123600000D02*
X155551357Y-123552381D01*
X155551357Y-123552381D02*
X155646595Y-123504762D01*
X155646595Y-123504762D02*
X155789452Y-123504762D01*
X155789452Y-123504762D02*
X155884690Y-123552381D01*
X155884690Y-123552381D02*
X155932309Y-123600000D01*
X155932309Y-123600000D02*
X155979928Y-123695238D01*
X155979928Y-123695238D02*
X155979928Y-124076190D01*
X156456119Y-122933333D02*
X156408500Y-123028571D01*
X156408500Y-123028571D02*
X156360880Y-123076190D01*
X156360880Y-123076190D02*
X156265642Y-123123809D01*
X156265642Y-123123809D02*
X155979928Y-123123809D01*
X155979928Y-123123809D02*
X155884690Y-123076190D01*
X155884690Y-123076190D02*
X155837071Y-123028571D01*
X155837071Y-123028571D02*
X155789452Y-122933333D01*
X155789452Y-122933333D02*
X155789452Y-122790476D01*
X155789452Y-122790476D02*
X155837071Y-122695238D01*
X155837071Y-122695238D02*
X155884690Y-122647619D01*
X155884690Y-122647619D02*
X155979928Y-122600000D01*
X155979928Y-122600000D02*
X156265642Y-122600000D01*
X156265642Y-122600000D02*
X156360880Y-122647619D01*
X156360880Y-122647619D02*
X156408500Y-122695238D01*
X156408500Y-122695238D02*
X156456119Y-122790476D01*
X156456119Y-122790476D02*
X156456119Y-122933333D01*
X155789452Y-122266666D02*
X156456119Y-122076190D01*
X156456119Y-122076190D02*
X155979928Y-121885714D01*
X155979928Y-121885714D02*
X156456119Y-121695238D01*
X156456119Y-121695238D02*
X155789452Y-121504762D01*
X156408500Y-120742857D02*
X156456119Y-120838095D01*
X156456119Y-120838095D02*
X156456119Y-121028571D01*
X156456119Y-121028571D02*
X156408500Y-121123809D01*
X156408500Y-121123809D02*
X156313261Y-121171428D01*
X156313261Y-121171428D02*
X155932309Y-121171428D01*
X155932309Y-121171428D02*
X155837071Y-121123809D01*
X155837071Y-121123809D02*
X155789452Y-121028571D01*
X155789452Y-121028571D02*
X155789452Y-120838095D01*
X155789452Y-120838095D02*
X155837071Y-120742857D01*
X155837071Y-120742857D02*
X155932309Y-120695238D01*
X155932309Y-120695238D02*
X156027547Y-120695238D01*
X156027547Y-120695238D02*
X156122785Y-121171428D01*
X156456119Y-120266666D02*
X155789452Y-120266666D01*
X155979928Y-120266666D02*
X155884690Y-120219047D01*
X155884690Y-120219047D02*
X155837071Y-120171428D01*
X155837071Y-120171428D02*
X155789452Y-120076190D01*
X155789452Y-120076190D02*
X155789452Y-119980952D01*
D10*
X151328571Y-102964895D02*
X151061904Y-102583942D01*
X150871428Y-102964895D02*
X150871428Y-102164895D01*
X150871428Y-102164895D02*
X151176190Y-102164895D01*
X151176190Y-102164895D02*
X151252380Y-102202990D01*
X151252380Y-102202990D02*
X151290475Y-102241085D01*
X151290475Y-102241085D02*
X151328571Y-102317276D01*
X151328571Y-102317276D02*
X151328571Y-102431561D01*
X151328571Y-102431561D02*
X151290475Y-102507752D01*
X151290475Y-102507752D02*
X151252380Y-102545847D01*
X151252380Y-102545847D02*
X151176190Y-102583942D01*
X151176190Y-102583942D02*
X150871428Y-102583942D01*
X151557142Y-102431561D02*
X151861904Y-102431561D01*
X151671428Y-102964895D02*
X151671428Y-102279180D01*
X151671428Y-102279180D02*
X151709523Y-102202990D01*
X151709523Y-102202990D02*
X151785713Y-102164895D01*
X151785713Y-102164895D02*
X151861904Y-102164895D01*
X152128571Y-102964895D02*
X152128571Y-102164895D01*
X152128571Y-102469657D02*
X152204761Y-102431561D01*
X152204761Y-102431561D02*
X152357142Y-102431561D01*
X152357142Y-102431561D02*
X152433333Y-102469657D01*
X152433333Y-102469657D02*
X152471428Y-102507752D01*
X152471428Y-102507752D02*
X152509523Y-102583942D01*
X152509523Y-102583942D02*
X152509523Y-102812514D01*
X152509523Y-102812514D02*
X152471428Y-102888704D01*
X152471428Y-102888704D02*
X152433333Y-102926800D01*
X152433333Y-102926800D02*
X152357142Y-102964895D01*
X152357142Y-102964895D02*
X152204761Y-102964895D01*
X152204761Y-102964895D02*
X152128571Y-102926800D01*
X152738095Y-102431561D02*
X153042857Y-102431561D01*
X152852381Y-102164895D02*
X152852381Y-102850609D01*
X152852381Y-102850609D02*
X152890476Y-102926800D01*
X152890476Y-102926800D02*
X152966666Y-102964895D01*
X152966666Y-102964895D02*
X153042857Y-102964895D01*
X153595238Y-111864895D02*
X153328571Y-111483942D01*
X153138095Y-111864895D02*
X153138095Y-111064895D01*
X153138095Y-111064895D02*
X153442857Y-111064895D01*
X153442857Y-111064895D02*
X153519047Y-111102990D01*
X153519047Y-111102990D02*
X153557142Y-111141085D01*
X153557142Y-111141085D02*
X153595238Y-111217276D01*
X153595238Y-111217276D02*
X153595238Y-111331561D01*
X153595238Y-111331561D02*
X153557142Y-111407752D01*
X153557142Y-111407752D02*
X153519047Y-111445847D01*
X153519047Y-111445847D02*
X153442857Y-111483942D01*
X153442857Y-111483942D02*
X153138095Y-111483942D01*
X153823809Y-111331561D02*
X154128571Y-111331561D01*
X153938095Y-111864895D02*
X153938095Y-111179180D01*
X153938095Y-111179180D02*
X153976190Y-111102990D01*
X153976190Y-111102990D02*
X154052380Y-111064895D01*
X154052380Y-111064895D02*
X154128571Y-111064895D01*
X154395238Y-111864895D02*
X154395238Y-111064895D01*
X154395238Y-111369657D02*
X154471428Y-111331561D01*
X154471428Y-111331561D02*
X154623809Y-111331561D01*
X154623809Y-111331561D02*
X154700000Y-111369657D01*
X154700000Y-111369657D02*
X154738095Y-111407752D01*
X154738095Y-111407752D02*
X154776190Y-111483942D01*
X154776190Y-111483942D02*
X154776190Y-111712514D01*
X154776190Y-111712514D02*
X154738095Y-111788704D01*
X154738095Y-111788704D02*
X154700000Y-111826800D01*
X154700000Y-111826800D02*
X154623809Y-111864895D01*
X154623809Y-111864895D02*
X154471428Y-111864895D01*
X154471428Y-111864895D02*
X154395238Y-111826800D01*
X155119048Y-111864895D02*
X155119048Y-111064895D01*
X155119048Y-111369657D02*
X155195238Y-111331561D01*
X155195238Y-111331561D02*
X155347619Y-111331561D01*
X155347619Y-111331561D02*
X155423810Y-111369657D01*
X155423810Y-111369657D02*
X155461905Y-111407752D01*
X155461905Y-111407752D02*
X155500000Y-111483942D01*
X155500000Y-111483942D02*
X155500000Y-111712514D01*
X155500000Y-111712514D02*
X155461905Y-111788704D01*
X155461905Y-111788704D02*
X155423810Y-111826800D01*
X155423810Y-111826800D02*
X155347619Y-111864895D01*
X155347619Y-111864895D02*
X155195238Y-111864895D01*
X155195238Y-111864895D02*
X155119048Y-111826800D01*
X150347619Y-89264895D02*
X149966667Y-89264895D01*
X149966667Y-89264895D02*
X149928571Y-89645847D01*
X149928571Y-89645847D02*
X149966667Y-89607752D01*
X149966667Y-89607752D02*
X150042857Y-89569657D01*
X150042857Y-89569657D02*
X150233333Y-89569657D01*
X150233333Y-89569657D02*
X150309524Y-89607752D01*
X150309524Y-89607752D02*
X150347619Y-89645847D01*
X150347619Y-89645847D02*
X150385714Y-89722038D01*
X150385714Y-89722038D02*
X150385714Y-89912514D01*
X150385714Y-89912514D02*
X150347619Y-89988704D01*
X150347619Y-89988704D02*
X150309524Y-90026800D01*
X150309524Y-90026800D02*
X150233333Y-90064895D01*
X150233333Y-90064895D02*
X150042857Y-90064895D01*
X150042857Y-90064895D02*
X149966667Y-90026800D01*
X149966667Y-90026800D02*
X149928571Y-89988704D01*
X150614286Y-89264895D02*
X150880953Y-90064895D01*
X150880953Y-90064895D02*
X151147619Y-89264895D01*
X153990476Y-102788704D02*
X153952380Y-102826800D01*
X153952380Y-102826800D02*
X153838095Y-102864895D01*
X153838095Y-102864895D02*
X153761904Y-102864895D01*
X153761904Y-102864895D02*
X153647618Y-102826800D01*
X153647618Y-102826800D02*
X153571428Y-102750609D01*
X153571428Y-102750609D02*
X153533333Y-102674419D01*
X153533333Y-102674419D02*
X153495237Y-102522038D01*
X153495237Y-102522038D02*
X153495237Y-102407752D01*
X153495237Y-102407752D02*
X153533333Y-102255371D01*
X153533333Y-102255371D02*
X153571428Y-102179180D01*
X153571428Y-102179180D02*
X153647618Y-102102990D01*
X153647618Y-102102990D02*
X153761904Y-102064895D01*
X153761904Y-102064895D02*
X153838095Y-102064895D01*
X153838095Y-102064895D02*
X153952380Y-102102990D01*
X153952380Y-102102990D02*
X153990476Y-102141085D01*
X154219047Y-102331561D02*
X154523809Y-102331561D01*
X154333333Y-102864895D02*
X154333333Y-102179180D01*
X154333333Y-102179180D02*
X154371428Y-102102990D01*
X154371428Y-102102990D02*
X154447618Y-102064895D01*
X154447618Y-102064895D02*
X154523809Y-102064895D01*
X154676190Y-102331561D02*
X154980952Y-102331561D01*
X154790476Y-102864895D02*
X154790476Y-102179180D01*
X154790476Y-102179180D02*
X154828571Y-102102990D01*
X154828571Y-102102990D02*
X154904761Y-102064895D01*
X154904761Y-102064895D02*
X154980952Y-102064895D01*
X144971429Y-104888704D02*
X144933333Y-104926800D01*
X144933333Y-104926800D02*
X144819048Y-104964895D01*
X144819048Y-104964895D02*
X144742857Y-104964895D01*
X144742857Y-104964895D02*
X144628571Y-104926800D01*
X144628571Y-104926800D02*
X144552381Y-104850609D01*
X144552381Y-104850609D02*
X144514286Y-104774419D01*
X144514286Y-104774419D02*
X144476190Y-104622038D01*
X144476190Y-104622038D02*
X144476190Y-104507752D01*
X144476190Y-104507752D02*
X144514286Y-104355371D01*
X144514286Y-104355371D02*
X144552381Y-104279180D01*
X144552381Y-104279180D02*
X144628571Y-104202990D01*
X144628571Y-104202990D02*
X144742857Y-104164895D01*
X144742857Y-104164895D02*
X144819048Y-104164895D01*
X144819048Y-104164895D02*
X144933333Y-104202990D01*
X144933333Y-104202990D02*
X144971429Y-104241085D01*
X145314286Y-104964895D02*
X145314286Y-104431561D01*
X145314286Y-104164895D02*
X145276190Y-104202990D01*
X145276190Y-104202990D02*
X145314286Y-104241085D01*
X145314286Y-104241085D02*
X145352381Y-104202990D01*
X145352381Y-104202990D02*
X145314286Y-104164895D01*
X145314286Y-104164895D02*
X145314286Y-104241085D01*
X145695238Y-104431561D02*
X145695238Y-104964895D01*
X145695238Y-104507752D02*
X145733333Y-104469657D01*
X145733333Y-104469657D02*
X145809523Y-104431561D01*
X145809523Y-104431561D02*
X145923809Y-104431561D01*
X145923809Y-104431561D02*
X146000000Y-104469657D01*
X146000000Y-104469657D02*
X146038095Y-104545847D01*
X146038095Y-104545847D02*
X146038095Y-104964895D01*
X146342857Y-104964895D02*
X146761905Y-104431561D01*
X146342857Y-104431561D02*
X146761905Y-104964895D01*
X154366667Y-81264895D02*
X154100000Y-80883942D01*
X153909524Y-81264895D02*
X153909524Y-80464895D01*
X153909524Y-80464895D02*
X154214286Y-80464895D01*
X154214286Y-80464895D02*
X154290476Y-80502990D01*
X154290476Y-80502990D02*
X154328571Y-80541085D01*
X154328571Y-80541085D02*
X154366667Y-80617276D01*
X154366667Y-80617276D02*
X154366667Y-80731561D01*
X154366667Y-80731561D02*
X154328571Y-80807752D01*
X154328571Y-80807752D02*
X154290476Y-80845847D01*
X154290476Y-80845847D02*
X154214286Y-80883942D01*
X154214286Y-80883942D02*
X153909524Y-80883942D01*
X154861905Y-80464895D02*
X154938095Y-80464895D01*
X154938095Y-80464895D02*
X155014286Y-80502990D01*
X155014286Y-80502990D02*
X155052381Y-80541085D01*
X155052381Y-80541085D02*
X155090476Y-80617276D01*
X155090476Y-80617276D02*
X155128571Y-80769657D01*
X155128571Y-80769657D02*
X155128571Y-80960133D01*
X155128571Y-80960133D02*
X155090476Y-81112514D01*
X155090476Y-81112514D02*
X155052381Y-81188704D01*
X155052381Y-81188704D02*
X155014286Y-81226800D01*
X155014286Y-81226800D02*
X154938095Y-81264895D01*
X154938095Y-81264895D02*
X154861905Y-81264895D01*
X154861905Y-81264895D02*
X154785714Y-81226800D01*
X154785714Y-81226800D02*
X154747619Y-81188704D01*
X154747619Y-81188704D02*
X154709524Y-81112514D01*
X154709524Y-81112514D02*
X154671428Y-80960133D01*
X154671428Y-80960133D02*
X154671428Y-80769657D01*
X154671428Y-80769657D02*
X154709524Y-80617276D01*
X154709524Y-80617276D02*
X154747619Y-80541085D01*
X154747619Y-80541085D02*
X154785714Y-80502990D01*
X154785714Y-80502990D02*
X154861905Y-80464895D01*
X147604761Y-90064895D02*
X147147618Y-90064895D01*
X147376190Y-90064895D02*
X147376190Y-89264895D01*
X147376190Y-89264895D02*
X147299999Y-89379180D01*
X147299999Y-89379180D02*
X147223809Y-89455371D01*
X147223809Y-89455371D02*
X147147618Y-89493466D01*
X147909523Y-89341085D02*
X147947619Y-89302990D01*
X147947619Y-89302990D02*
X148023809Y-89264895D01*
X148023809Y-89264895D02*
X148214285Y-89264895D01*
X148214285Y-89264895D02*
X148290476Y-89302990D01*
X148290476Y-89302990D02*
X148328571Y-89341085D01*
X148328571Y-89341085D02*
X148366666Y-89417276D01*
X148366666Y-89417276D02*
X148366666Y-89493466D01*
X148366666Y-89493466D02*
X148328571Y-89607752D01*
X148328571Y-89607752D02*
X147871428Y-90064895D01*
X147871428Y-90064895D02*
X148366666Y-90064895D01*
X148595238Y-89264895D02*
X148861905Y-90064895D01*
X148861905Y-90064895D02*
X149128571Y-89264895D01*
X147833333Y-82664895D02*
X147833333Y-81864895D01*
X147833333Y-81864895D02*
X148099999Y-82436323D01*
X148099999Y-82436323D02*
X148366666Y-81864895D01*
X148366666Y-81864895D02*
X148366666Y-82664895D01*
X148861904Y-82664895D02*
X148785714Y-82626800D01*
X148785714Y-82626800D02*
X148747619Y-82588704D01*
X148747619Y-82588704D02*
X148709523Y-82512514D01*
X148709523Y-82512514D02*
X148709523Y-82283942D01*
X148709523Y-82283942D02*
X148747619Y-82207752D01*
X148747619Y-82207752D02*
X148785714Y-82169657D01*
X148785714Y-82169657D02*
X148861904Y-82131561D01*
X148861904Y-82131561D02*
X148976190Y-82131561D01*
X148976190Y-82131561D02*
X149052381Y-82169657D01*
X149052381Y-82169657D02*
X149090476Y-82207752D01*
X149090476Y-82207752D02*
X149128571Y-82283942D01*
X149128571Y-82283942D02*
X149128571Y-82512514D01*
X149128571Y-82512514D02*
X149090476Y-82588704D01*
X149090476Y-82588704D02*
X149052381Y-82626800D01*
X149052381Y-82626800D02*
X148976190Y-82664895D01*
X148976190Y-82664895D02*
X148861904Y-82664895D01*
X149357143Y-82131561D02*
X149661905Y-82131561D01*
X149471429Y-81864895D02*
X149471429Y-82550609D01*
X149471429Y-82550609D02*
X149509524Y-82626800D01*
X149509524Y-82626800D02*
X149585714Y-82664895D01*
X149585714Y-82664895D02*
X149661905Y-82664895D01*
X150042857Y-82664895D02*
X149966667Y-82626800D01*
X149966667Y-82626800D02*
X149928572Y-82588704D01*
X149928572Y-82588704D02*
X149890476Y-82512514D01*
X149890476Y-82512514D02*
X149890476Y-82283942D01*
X149890476Y-82283942D02*
X149928572Y-82207752D01*
X149928572Y-82207752D02*
X149966667Y-82169657D01*
X149966667Y-82169657D02*
X150042857Y-82131561D01*
X150042857Y-82131561D02*
X150157143Y-82131561D01*
X150157143Y-82131561D02*
X150233334Y-82169657D01*
X150233334Y-82169657D02*
X150271429Y-82207752D01*
X150271429Y-82207752D02*
X150309524Y-82283942D01*
X150309524Y-82283942D02*
X150309524Y-82512514D01*
X150309524Y-82512514D02*
X150271429Y-82588704D01*
X150271429Y-82588704D02*
X150233334Y-82626800D01*
X150233334Y-82626800D02*
X150157143Y-82664895D01*
X150157143Y-82664895D02*
X150042857Y-82664895D01*
X150652382Y-82664895D02*
X150652382Y-82131561D01*
X150652382Y-82283942D02*
X150690477Y-82207752D01*
X150690477Y-82207752D02*
X150728572Y-82169657D01*
X150728572Y-82169657D02*
X150804763Y-82131561D01*
X150804763Y-82131561D02*
X150880953Y-82131561D01*
X161571429Y-107160133D02*
X162180953Y-107160133D01*
X161876191Y-107464895D02*
X161876191Y-106855371D01*
X162942857Y-106664895D02*
X162561905Y-106664895D01*
X162561905Y-106664895D02*
X162523809Y-107045847D01*
X162523809Y-107045847D02*
X162561905Y-107007752D01*
X162561905Y-107007752D02*
X162638095Y-106969657D01*
X162638095Y-106969657D02*
X162828571Y-106969657D01*
X162828571Y-106969657D02*
X162904762Y-107007752D01*
X162904762Y-107007752D02*
X162942857Y-107045847D01*
X162942857Y-107045847D02*
X162980952Y-107122038D01*
X162980952Y-107122038D02*
X162980952Y-107312514D01*
X162980952Y-107312514D02*
X162942857Y-107388704D01*
X162942857Y-107388704D02*
X162904762Y-107426800D01*
X162904762Y-107426800D02*
X162828571Y-107464895D01*
X162828571Y-107464895D02*
X162638095Y-107464895D01*
X162638095Y-107464895D02*
X162561905Y-107426800D01*
X162561905Y-107426800D02*
X162523809Y-107388704D01*
X163209524Y-106664895D02*
X163476191Y-107464895D01*
X163476191Y-107464895D02*
X163742857Y-106664895D01*
D12*
X148671701Y-107320000D02*
X149011701Y-107320000D01*
X149011701Y-107320000D02*
X149051701Y-107300000D01*
X149051701Y-107300000D02*
X149071701Y-107280000D01*
X149071701Y-107280000D02*
X149091701Y-107240000D01*
X149091701Y-107240000D02*
X149091701Y-107160000D01*
X149091701Y-107160000D02*
X149071701Y-107120000D01*
X149071701Y-107120000D02*
X149051701Y-107100000D01*
X149051701Y-107100000D02*
X149011701Y-107080000D01*
X149011701Y-107080000D02*
X148671701Y-107080000D01*
X149091701Y-106660000D02*
X149091701Y-106900000D01*
X149091701Y-106780000D02*
X148671701Y-106780000D01*
X148671701Y-106780000D02*
X148731701Y-106820000D01*
X148731701Y-106820000D02*
X148771701Y-106860000D01*
X148771701Y-106860000D02*
X148791701Y-106900000D01*
D11*
X149642857Y-133108500D02*
X149785714Y-133156119D01*
X149785714Y-133156119D02*
X150023809Y-133156119D01*
X150023809Y-133156119D02*
X150119047Y-133108500D01*
X150119047Y-133108500D02*
X150166666Y-133060880D01*
X150166666Y-133060880D02*
X150214285Y-132965642D01*
X150214285Y-132965642D02*
X150214285Y-132870404D01*
X150214285Y-132870404D02*
X150166666Y-132775166D01*
X150166666Y-132775166D02*
X150119047Y-132727547D01*
X150119047Y-132727547D02*
X150023809Y-132679928D01*
X150023809Y-132679928D02*
X149833333Y-132632309D01*
X149833333Y-132632309D02*
X149738095Y-132584690D01*
X149738095Y-132584690D02*
X149690476Y-132537071D01*
X149690476Y-132537071D02*
X149642857Y-132441833D01*
X149642857Y-132441833D02*
X149642857Y-132346595D01*
X149642857Y-132346595D02*
X149690476Y-132251357D01*
X149690476Y-132251357D02*
X149738095Y-132203738D01*
X149738095Y-132203738D02*
X149833333Y-132156119D01*
X149833333Y-132156119D02*
X150071428Y-132156119D01*
X150071428Y-132156119D02*
X150214285Y-132203738D01*
X151023809Y-133108500D02*
X150928571Y-133156119D01*
X150928571Y-133156119D02*
X150738095Y-133156119D01*
X150738095Y-133156119D02*
X150642857Y-133108500D01*
X150642857Y-133108500D02*
X150595238Y-133013261D01*
X150595238Y-133013261D02*
X150595238Y-132632309D01*
X150595238Y-132632309D02*
X150642857Y-132537071D01*
X150642857Y-132537071D02*
X150738095Y-132489452D01*
X150738095Y-132489452D02*
X150928571Y-132489452D01*
X150928571Y-132489452D02*
X151023809Y-132537071D01*
X151023809Y-132537071D02*
X151071428Y-132632309D01*
X151071428Y-132632309D02*
X151071428Y-132727547D01*
X151071428Y-132727547D02*
X150595238Y-132822785D01*
X151500000Y-133156119D02*
X151500000Y-132489452D01*
X151500000Y-132679928D02*
X151547619Y-132584690D01*
X151547619Y-132584690D02*
X151595238Y-132537071D01*
X151595238Y-132537071D02*
X151690476Y-132489452D01*
X151690476Y-132489452D02*
X151785714Y-132489452D01*
X152023810Y-132489452D02*
X152261905Y-133156119D01*
X152261905Y-133156119D02*
X152500000Y-132489452D01*
X153023810Y-133156119D02*
X152928572Y-133108500D01*
X152928572Y-133108500D02*
X152880953Y-133060880D01*
X152880953Y-133060880D02*
X152833334Y-132965642D01*
X152833334Y-132965642D02*
X152833334Y-132679928D01*
X152833334Y-132679928D02*
X152880953Y-132584690D01*
X152880953Y-132584690D02*
X152928572Y-132537071D01*
X152928572Y-132537071D02*
X153023810Y-132489452D01*
X153023810Y-132489452D02*
X153166667Y-132489452D01*
X153166667Y-132489452D02*
X153261905Y-132537071D01*
X153261905Y-132537071D02*
X153309524Y-132584690D01*
X153309524Y-132584690D02*
X153357143Y-132679928D01*
X153357143Y-132679928D02*
X153357143Y-132965642D01*
X153357143Y-132965642D02*
X153309524Y-133060880D01*
X153309524Y-133060880D02*
X153261905Y-133108500D01*
X153261905Y-133108500D02*
X153166667Y-133156119D01*
X153166667Y-133156119D02*
X153023810Y-133156119D01*
D10*
X159790476Y-103002990D02*
X159714286Y-102964895D01*
X159714286Y-102964895D02*
X159600000Y-102964895D01*
X159600000Y-102964895D02*
X159485714Y-103002990D01*
X159485714Y-103002990D02*
X159409524Y-103079180D01*
X159409524Y-103079180D02*
X159371429Y-103155371D01*
X159371429Y-103155371D02*
X159333333Y-103307752D01*
X159333333Y-103307752D02*
X159333333Y-103422038D01*
X159333333Y-103422038D02*
X159371429Y-103574419D01*
X159371429Y-103574419D02*
X159409524Y-103650609D01*
X159409524Y-103650609D02*
X159485714Y-103726800D01*
X159485714Y-103726800D02*
X159600000Y-103764895D01*
X159600000Y-103764895D02*
X159676191Y-103764895D01*
X159676191Y-103764895D02*
X159790476Y-103726800D01*
X159790476Y-103726800D02*
X159828572Y-103688704D01*
X159828572Y-103688704D02*
X159828572Y-103422038D01*
X159828572Y-103422038D02*
X159676191Y-103422038D01*
X160171429Y-103764895D02*
X160171429Y-102964895D01*
X160171429Y-102964895D02*
X160628572Y-103764895D01*
X160628572Y-103764895D02*
X160628572Y-102964895D01*
X161009524Y-103764895D02*
X161009524Y-102964895D01*
X161009524Y-102964895D02*
X161200000Y-102964895D01*
X161200000Y-102964895D02*
X161314286Y-103002990D01*
X161314286Y-103002990D02*
X161390476Y-103079180D01*
X161390476Y-103079180D02*
X161428571Y-103155371D01*
X161428571Y-103155371D02*
X161466667Y-103307752D01*
X161466667Y-103307752D02*
X161466667Y-103422038D01*
X161466667Y-103422038D02*
X161428571Y-103574419D01*
X161428571Y-103574419D02*
X161390476Y-103650609D01*
X161390476Y-103650609D02*
X161314286Y-103726800D01*
X161314286Y-103726800D02*
X161200000Y-103764895D01*
X161200000Y-103764895D02*
X161009524Y-103764895D01*
X147966667Y-99352395D02*
X147700000Y-98971442D01*
X147509524Y-99352395D02*
X147509524Y-98552395D01*
X147509524Y-98552395D02*
X147814286Y-98552395D01*
X147814286Y-98552395D02*
X147890476Y-98590490D01*
X147890476Y-98590490D02*
X147928571Y-98628585D01*
X147928571Y-98628585D02*
X147966667Y-98704776D01*
X147966667Y-98704776D02*
X147966667Y-98819061D01*
X147966667Y-98819061D02*
X147928571Y-98895252D01*
X147928571Y-98895252D02*
X147890476Y-98933347D01*
X147890476Y-98933347D02*
X147814286Y-98971442D01*
X147814286Y-98971442D02*
X147509524Y-98971442D01*
X148271428Y-98628585D02*
X148309524Y-98590490D01*
X148309524Y-98590490D02*
X148385714Y-98552395D01*
X148385714Y-98552395D02*
X148576190Y-98552395D01*
X148576190Y-98552395D02*
X148652381Y-98590490D01*
X148652381Y-98590490D02*
X148690476Y-98628585D01*
X148690476Y-98628585D02*
X148728571Y-98704776D01*
X148728571Y-98704776D02*
X148728571Y-98780966D01*
X148728571Y-98780966D02*
X148690476Y-98895252D01*
X148690476Y-98895252D02*
X148233333Y-99352395D01*
X148233333Y-99352395D02*
X148728571Y-99352395D01*
X158990476Y-110860133D02*
X159600000Y-110860133D01*
X159295238Y-111164895D02*
X159295238Y-110555371D01*
X160399999Y-111164895D02*
X159942856Y-111164895D01*
X160171428Y-111164895D02*
X160171428Y-110364895D01*
X160171428Y-110364895D02*
X160095237Y-110479180D01*
X160095237Y-110479180D02*
X160019047Y-110555371D01*
X160019047Y-110555371D02*
X159942856Y-110593466D01*
X160704761Y-110441085D02*
X160742857Y-110402990D01*
X160742857Y-110402990D02*
X160819047Y-110364895D01*
X160819047Y-110364895D02*
X161009523Y-110364895D01*
X161009523Y-110364895D02*
X161085714Y-110402990D01*
X161085714Y-110402990D02*
X161123809Y-110441085D01*
X161123809Y-110441085D02*
X161161904Y-110517276D01*
X161161904Y-110517276D02*
X161161904Y-110593466D01*
X161161904Y-110593466D02*
X161123809Y-110707752D01*
X161123809Y-110707752D02*
X160666666Y-111164895D01*
X160666666Y-111164895D02*
X161161904Y-111164895D01*
X161390476Y-110364895D02*
X161657143Y-111164895D01*
X161657143Y-111164895D02*
X161923809Y-110364895D01*
X141095238Y-105888704D02*
X141057142Y-105926800D01*
X141057142Y-105926800D02*
X140942857Y-105964895D01*
X140942857Y-105964895D02*
X140866666Y-105964895D01*
X140866666Y-105964895D02*
X140752380Y-105926800D01*
X140752380Y-105926800D02*
X140676190Y-105850609D01*
X140676190Y-105850609D02*
X140638095Y-105774419D01*
X140638095Y-105774419D02*
X140599999Y-105622038D01*
X140599999Y-105622038D02*
X140599999Y-105507752D01*
X140599999Y-105507752D02*
X140638095Y-105355371D01*
X140638095Y-105355371D02*
X140676190Y-105279180D01*
X140676190Y-105279180D02*
X140752380Y-105202990D01*
X140752380Y-105202990D02*
X140866666Y-105164895D01*
X140866666Y-105164895D02*
X140942857Y-105164895D01*
X140942857Y-105164895D02*
X141057142Y-105202990D01*
X141057142Y-105202990D02*
X141095238Y-105241085D01*
X141552380Y-105964895D02*
X141476190Y-105926800D01*
X141476190Y-105926800D02*
X141438095Y-105888704D01*
X141438095Y-105888704D02*
X141399999Y-105812514D01*
X141399999Y-105812514D02*
X141399999Y-105583942D01*
X141399999Y-105583942D02*
X141438095Y-105507752D01*
X141438095Y-105507752D02*
X141476190Y-105469657D01*
X141476190Y-105469657D02*
X141552380Y-105431561D01*
X141552380Y-105431561D02*
X141666666Y-105431561D01*
X141666666Y-105431561D02*
X141742857Y-105469657D01*
X141742857Y-105469657D02*
X141780952Y-105507752D01*
X141780952Y-105507752D02*
X141819047Y-105583942D01*
X141819047Y-105583942D02*
X141819047Y-105812514D01*
X141819047Y-105812514D02*
X141780952Y-105888704D01*
X141780952Y-105888704D02*
X141742857Y-105926800D01*
X141742857Y-105926800D02*
X141666666Y-105964895D01*
X141666666Y-105964895D02*
X141552380Y-105964895D01*
X142504762Y-105431561D02*
X142504762Y-105964895D01*
X142161905Y-105431561D02*
X142161905Y-105850609D01*
X142161905Y-105850609D02*
X142200000Y-105926800D01*
X142200000Y-105926800D02*
X142276190Y-105964895D01*
X142276190Y-105964895D02*
X142390476Y-105964895D01*
X142390476Y-105964895D02*
X142466667Y-105926800D01*
X142466667Y-105926800D02*
X142504762Y-105888704D01*
X142771429Y-105431561D02*
X143076191Y-105431561D01*
X142885715Y-105164895D02*
X142885715Y-105850609D01*
X142885715Y-105850609D02*
X142923810Y-105926800D01*
X142923810Y-105926800D02*
X143000000Y-105964895D01*
X143000000Y-105964895D02*
X143076191Y-105964895D01*
X147733333Y-111288704D02*
X147695237Y-111326800D01*
X147695237Y-111326800D02*
X147580952Y-111364895D01*
X147580952Y-111364895D02*
X147504761Y-111364895D01*
X147504761Y-111364895D02*
X147390475Y-111326800D01*
X147390475Y-111326800D02*
X147314285Y-111250609D01*
X147314285Y-111250609D02*
X147276190Y-111174419D01*
X147276190Y-111174419D02*
X147238094Y-111022038D01*
X147238094Y-111022038D02*
X147238094Y-110907752D01*
X147238094Y-110907752D02*
X147276190Y-110755371D01*
X147276190Y-110755371D02*
X147314285Y-110679180D01*
X147314285Y-110679180D02*
X147390475Y-110602990D01*
X147390475Y-110602990D02*
X147504761Y-110564895D01*
X147504761Y-110564895D02*
X147580952Y-110564895D01*
X147580952Y-110564895D02*
X147695237Y-110602990D01*
X147695237Y-110602990D02*
X147733333Y-110641085D01*
X148076190Y-111364895D02*
X148076190Y-110564895D01*
X148076190Y-110869657D02*
X148152380Y-110831561D01*
X148152380Y-110831561D02*
X148304761Y-110831561D01*
X148304761Y-110831561D02*
X148380952Y-110869657D01*
X148380952Y-110869657D02*
X148419047Y-110907752D01*
X148419047Y-110907752D02*
X148457142Y-110983942D01*
X148457142Y-110983942D02*
X148457142Y-111212514D01*
X148457142Y-111212514D02*
X148419047Y-111288704D01*
X148419047Y-111288704D02*
X148380952Y-111326800D01*
X148380952Y-111326800D02*
X148304761Y-111364895D01*
X148304761Y-111364895D02*
X148152380Y-111364895D01*
X148152380Y-111364895D02*
X148076190Y-111326800D01*
X148914285Y-111364895D02*
X148838095Y-111326800D01*
X148838095Y-111326800D02*
X148800000Y-111288704D01*
X148800000Y-111288704D02*
X148761904Y-111212514D01*
X148761904Y-111212514D02*
X148761904Y-110983942D01*
X148761904Y-110983942D02*
X148800000Y-110907752D01*
X148800000Y-110907752D02*
X148838095Y-110869657D01*
X148838095Y-110869657D02*
X148914285Y-110831561D01*
X148914285Y-110831561D02*
X149028571Y-110831561D01*
X149028571Y-110831561D02*
X149104762Y-110869657D01*
X149104762Y-110869657D02*
X149142857Y-110907752D01*
X149142857Y-110907752D02*
X149180952Y-110983942D01*
X149180952Y-110983942D02*
X149180952Y-111212514D01*
X149180952Y-111212514D02*
X149142857Y-111288704D01*
X149142857Y-111288704D02*
X149104762Y-111326800D01*
X149104762Y-111326800D02*
X149028571Y-111364895D01*
X149028571Y-111364895D02*
X148914285Y-111364895D01*
X149638095Y-111364895D02*
X149561905Y-111326800D01*
X149561905Y-111326800D02*
X149523810Y-111288704D01*
X149523810Y-111288704D02*
X149485714Y-111212514D01*
X149485714Y-111212514D02*
X149485714Y-110983942D01*
X149485714Y-110983942D02*
X149523810Y-110907752D01*
X149523810Y-110907752D02*
X149561905Y-110869657D01*
X149561905Y-110869657D02*
X149638095Y-110831561D01*
X149638095Y-110831561D02*
X149752381Y-110831561D01*
X149752381Y-110831561D02*
X149828572Y-110869657D01*
X149828572Y-110869657D02*
X149866667Y-110907752D01*
X149866667Y-110907752D02*
X149904762Y-110983942D01*
X149904762Y-110983942D02*
X149904762Y-111212514D01*
X149904762Y-111212514D02*
X149866667Y-111288704D01*
X149866667Y-111288704D02*
X149828572Y-111326800D01*
X149828572Y-111326800D02*
X149752381Y-111364895D01*
X149752381Y-111364895D02*
X149638095Y-111364895D01*
X150133334Y-110831561D02*
X150438096Y-110831561D01*
X150247620Y-110564895D02*
X150247620Y-111250609D01*
X150247620Y-111250609D02*
X150285715Y-111326800D01*
X150285715Y-111326800D02*
X150361905Y-111364895D01*
X150361905Y-111364895D02*
X150438096Y-111364895D01*
D13*
%TO.C,R4*%
X144365000Y-79872936D02*
X144365000Y-80327064D01*
X145835000Y-79872936D02*
X145835000Y-80327064D01*
%TO.C,R3*%
X149765000Y-96527064D02*
X149765000Y-96072936D01*
X151235000Y-96527064D02*
X151235000Y-96072936D01*
%TO.C,REV1*%
X142040000Y-78240000D02*
X142040000Y-81100000D01*
X143960000Y-78240000D02*
X142040000Y-78240000D01*
X143960000Y-81100000D02*
X143960000Y-78240000D01*
%TO.C,Motor1*%
X142170000Y-75800000D02*
X142170000Y-77950000D01*
X142170000Y-77950000D02*
X144300000Y-77950000D01*
X142470000Y-73950000D02*
X142470000Y-77650000D01*
X142470000Y-77650000D02*
X146590000Y-77650000D01*
X146590000Y-77650000D02*
X146590000Y-80510000D01*
X146590000Y-80510000D02*
X149300000Y-80510000D01*
X149300000Y-73950000D02*
X142470000Y-73950000D01*
X149300000Y-73950000D02*
X156130000Y-73950000D01*
X152010000Y-77650000D02*
X152010000Y-80510000D01*
X152010000Y-80510000D02*
X149300000Y-80510000D01*
X156130000Y-73950000D02*
X156130000Y-77650000D01*
X156130000Y-77650000D02*
X152010000Y-77650000D01*
%TO.C,Ren*%
X151165000Y-108772936D02*
X151165000Y-109227064D01*
X152635000Y-108772936D02*
X152635000Y-109227064D01*
%TO.C,Battery1*%
X158890000Y-117065000D02*
X158890000Y-126935000D01*
X158890000Y-126935000D02*
X161965000Y-126935000D01*
X161965000Y-117065000D02*
X158890000Y-117065000D01*
X162980000Y-118485000D02*
X162980000Y-125515000D01*
X162980000Y-125515000D02*
X163480000Y-125515000D01*
X163480000Y-118485000D02*
X162980000Y-118485000D01*
X163480000Y-118505000D02*
X163480000Y-118485000D01*
X163480000Y-125515000D02*
X163480000Y-125495000D01*
%TO.C,L1*%
X143790000Y-108561252D02*
X143790000Y-108038748D01*
X146010000Y-108561252D02*
X146010000Y-108038748D01*
%TO.C,Cin*%
X148588748Y-101765000D02*
X149111252Y-101765000D01*
X148588748Y-103235000D02*
X149111252Y-103235000D01*
%TO.C,Power*%
X152070000Y-122030000D02*
X152070000Y-119430000D01*
X154730000Y-119430000D02*
X152070000Y-119430000D01*
X154730000Y-122030000D02*
X152070000Y-122030000D01*
X154730000Y-122030000D02*
X154730000Y-119430000D01*
X154730000Y-123300000D02*
X154730000Y-124630000D01*
X154730000Y-124630000D02*
X153400000Y-124630000D01*
%TO.C,Rfbt*%
X151165000Y-104772936D02*
X151165000Y-105227064D01*
X152635000Y-104772936D02*
X152635000Y-105227064D01*
%TO.C,Rfbb*%
X153265000Y-109227064D02*
X153265000Y-108772936D01*
X154735000Y-109227064D02*
X154735000Y-108772936D01*
%TO.C,Servo1*%
X145770000Y-136730000D02*
X145770000Y-135400000D01*
X147100000Y-136730000D02*
X145770000Y-136730000D01*
X148370000Y-134070000D02*
X153510000Y-134070000D01*
X148370000Y-136730000D02*
X148370000Y-134070000D01*
X148370000Y-136730000D02*
X153510000Y-136730000D01*
X153510000Y-136730000D02*
X153510000Y-134070000D01*
%TO.C,5V*%
X149540000Y-90552500D02*
X149540000Y-93412500D01*
X151460000Y-90552500D02*
X149540000Y-90552500D01*
X151460000Y-93412500D02*
X151460000Y-90552500D01*
%TO.C,Cff*%
X153265000Y-105161252D02*
X153265000Y-104638748D01*
X154735000Y-105161252D02*
X154735000Y-104638748D01*
%TO.C,Cinx*%
X148588748Y-103865000D02*
X149111252Y-103865000D01*
X148588748Y-105335000D02*
X149111252Y-105335000D01*
%TO.C,R0*%
X154272936Y-78465000D02*
X154727064Y-78465000D01*
X154272936Y-79935000D02*
X154727064Y-79935000D01*
%TO.C,12V*%
X147140000Y-90552500D02*
X147140000Y-93412500D01*
X149060000Y-90552500D02*
X147140000Y-90552500D01*
X149060000Y-93412500D02*
X149060000Y-90552500D01*
%TO.C,Motor*%
X146705000Y-84070000D02*
X146705000Y-86730000D01*
X149305000Y-84070000D02*
X146705000Y-84070000D01*
X149305000Y-84070000D02*
X149305000Y-86730000D01*
X149305000Y-86730000D02*
X146705000Y-86730000D01*
X150575000Y-84070000D02*
X151905000Y-84070000D01*
X151905000Y-84070000D02*
X151905000Y-85400000D01*
%TO.C,+5V*%
X159700000Y-106400000D02*
X161100000Y-106400000D01*
X159700000Y-107800000D02*
X159700000Y-106400000D01*
X161100000Y-106400000D02*
X161100000Y-107800000D01*
X161100000Y-107800000D02*
X159700000Y-107800000D01*
D14*
%TO.C,U1*%
X148265000Y-106125000D02*
X149465000Y-106125000D01*
X148265000Y-108075000D02*
X149465000Y-108075000D01*
D15*
X147365000Y-106500000D02*
G75*
G02*
X147165000Y-106500000I-100000J0D01*
G01*
X147165000Y-106500000D02*
G75*
G02*
X147365000Y-106500000I100000J0D01*
G01*
D13*
%TO.C,Servo*%
X145770000Y-126230000D02*
X147100000Y-126230000D01*
X145770000Y-127560000D02*
X145770000Y-126230000D01*
X145770000Y-128830000D02*
X145770000Y-131430000D01*
X145770000Y-128830000D02*
X148430000Y-128830000D01*
X145770000Y-131430000D02*
X148430000Y-131430000D01*
X148430000Y-128830000D02*
X148430000Y-131430000D01*
%TO.C,GND*%
X159700000Y-104300000D02*
X161100000Y-104300000D01*
X159700000Y-105700000D02*
X159700000Y-104300000D01*
X161100000Y-104300000D02*
X161100000Y-105700000D01*
X161100000Y-105700000D02*
X159700000Y-105700000D01*
%TO.C,R2*%
X147365000Y-96527064D02*
X147365000Y-96072936D01*
X148835000Y-96527064D02*
X148835000Y-96072936D01*
%TO.C,Rev2*%
X143305000Y-83200000D02*
X144705000Y-83200000D01*
X143305000Y-84600000D02*
X143305000Y-83200000D01*
X144705000Y-83200000D02*
X144705000Y-84600000D01*
X144705000Y-84600000D02*
X143305000Y-84600000D01*
%TO.C,+12V*%
X159700000Y-108500000D02*
X161100000Y-108500000D01*
X159700000Y-109900000D02*
X159700000Y-108500000D01*
X161100000Y-108500000D02*
X161100000Y-109900000D01*
X161100000Y-109900000D02*
X159700000Y-109900000D01*
%TO.C,Cout*%
X141065000Y-108361252D02*
X141065000Y-107838748D01*
X142535000Y-108361252D02*
X142535000Y-107838748D01*
%TO.C,Cboot*%
X148588748Y-108765000D02*
X149111252Y-108765000D01*
X148588748Y-110235000D02*
X149111252Y-110235000D01*
%TD*%
M02*
