%TF.GenerationSoftware,KiCad,Pcbnew,9.0.0*%
%TF.CreationDate,2025-04-11T15:19:07-05:00*%
%TF.ProjectId,RC-PCB,52432d50-4342-42e6-9b69-6361645f7063,rev?*%
%TF.SameCoordinates,Original*%
%TF.FileFunction,Legend,Bot*%
%TF.FilePolarity,Positive*%
%FSLAX46Y46*%
G04 Gerber Fmt 4.6, Leading zero omitted, Abs format (unit mm)*
G04 Created by KiCad (PCBNEW 9.0.0) date 2025-04-11 15:19:07*
%MOMM*%
%LPD*%
G01*
G04 APERTURE LIST*
%ADD10C,0.100000*%
%ADD11C,0.150000*%
%ADD12C,0.120000*%
G04 APERTURE END LIST*
D10*
X152196115Y-77991466D02*
X151434211Y-77991466D01*
X151815163Y-78372419D02*
X151815163Y-77610514D01*
X143924687Y-78572419D02*
X144258020Y-78096228D01*
X144496115Y-78572419D02*
X144496115Y-77572419D01*
X144496115Y-77572419D02*
X144115163Y-77572419D01*
X144115163Y-77572419D02*
X144019925Y-77620038D01*
X144019925Y-77620038D02*
X143972306Y-77667657D01*
X143972306Y-77667657D02*
X143924687Y-77762895D01*
X143924687Y-77762895D02*
X143924687Y-77905752D01*
X143924687Y-77905752D02*
X143972306Y-78000990D01*
X143972306Y-78000990D02*
X144019925Y-78048609D01*
X144019925Y-78048609D02*
X144115163Y-78096228D01*
X144115163Y-78096228D02*
X144496115Y-78096228D01*
X147038972Y-77991466D02*
X146991353Y-77943847D01*
X146991353Y-77943847D02*
X146896115Y-77896228D01*
X146896115Y-77896228D02*
X146705639Y-77991466D01*
X146705639Y-77991466D02*
X146610401Y-77943847D01*
X146610401Y-77943847D02*
X146562782Y-77896228D01*
X154696115Y-77991466D02*
X153934211Y-77991466D01*
X157233332Y-81688704D02*
X157271428Y-81726800D01*
X157271428Y-81726800D02*
X157385713Y-81764895D01*
X157385713Y-81764895D02*
X157461904Y-81764895D01*
X157461904Y-81764895D02*
X157576190Y-81726800D01*
X157576190Y-81726800D02*
X157652380Y-81650609D01*
X157652380Y-81650609D02*
X157690475Y-81574419D01*
X157690475Y-81574419D02*
X157728571Y-81422038D01*
X157728571Y-81422038D02*
X157728571Y-81307752D01*
X157728571Y-81307752D02*
X157690475Y-81155371D01*
X157690475Y-81155371D02*
X157652380Y-81079180D01*
X157652380Y-81079180D02*
X157576190Y-81002990D01*
X157576190Y-81002990D02*
X157461904Y-80964895D01*
X157461904Y-80964895D02*
X157385713Y-80964895D01*
X157385713Y-80964895D02*
X157271428Y-81002990D01*
X157271428Y-81002990D02*
X157233332Y-81041085D01*
X156966666Y-80964895D02*
X156471428Y-80964895D01*
X156471428Y-80964895D02*
X156738094Y-81269657D01*
X156738094Y-81269657D02*
X156623809Y-81269657D01*
X156623809Y-81269657D02*
X156547618Y-81307752D01*
X156547618Y-81307752D02*
X156509523Y-81345847D01*
X156509523Y-81345847D02*
X156471428Y-81422038D01*
X156471428Y-81422038D02*
X156471428Y-81612514D01*
X156471428Y-81612514D02*
X156509523Y-81688704D01*
X156509523Y-81688704D02*
X156547618Y-81726800D01*
X156547618Y-81726800D02*
X156623809Y-81764895D01*
X156623809Y-81764895D02*
X156852380Y-81764895D01*
X156852380Y-81764895D02*
X156928571Y-81726800D01*
X156928571Y-81726800D02*
X156966666Y-81688704D01*
D11*
X141187438Y-105755000D02*
X141139819Y-105659762D01*
X141139819Y-105659762D02*
X141139819Y-105516905D01*
X141139819Y-105516905D02*
X141187438Y-105374048D01*
X141187438Y-105374048D02*
X141282676Y-105278810D01*
X141282676Y-105278810D02*
X141377914Y-105231191D01*
X141377914Y-105231191D02*
X141568390Y-105183572D01*
X141568390Y-105183572D02*
X141711247Y-105183572D01*
X141711247Y-105183572D02*
X141901723Y-105231191D01*
X141901723Y-105231191D02*
X141996961Y-105278810D01*
X141996961Y-105278810D02*
X142092200Y-105374048D01*
X142092200Y-105374048D02*
X142139819Y-105516905D01*
X142139819Y-105516905D02*
X142139819Y-105612143D01*
X142139819Y-105612143D02*
X142092200Y-105755000D01*
X142092200Y-105755000D02*
X142044580Y-105802619D01*
X142044580Y-105802619D02*
X141711247Y-105802619D01*
X141711247Y-105802619D02*
X141711247Y-105612143D01*
X142139819Y-106231191D02*
X141139819Y-106231191D01*
X141139819Y-106231191D02*
X141139819Y-106612143D01*
X141139819Y-106612143D02*
X141187438Y-106707381D01*
X141187438Y-106707381D02*
X141235057Y-106755000D01*
X141235057Y-106755000D02*
X141330295Y-106802619D01*
X141330295Y-106802619D02*
X141473152Y-106802619D01*
X141473152Y-106802619D02*
X141568390Y-106755000D01*
X141568390Y-106755000D02*
X141616009Y-106707381D01*
X141616009Y-106707381D02*
X141663628Y-106612143D01*
X141663628Y-106612143D02*
X141663628Y-106231191D01*
X142139819Y-107231191D02*
X141139819Y-107231191D01*
X141139819Y-107897857D02*
X141139819Y-108088333D01*
X141139819Y-108088333D02*
X141187438Y-108183571D01*
X141187438Y-108183571D02*
X141282676Y-108278809D01*
X141282676Y-108278809D02*
X141473152Y-108326428D01*
X141473152Y-108326428D02*
X141806485Y-108326428D01*
X141806485Y-108326428D02*
X141996961Y-108278809D01*
X141996961Y-108278809D02*
X142092200Y-108183571D01*
X142092200Y-108183571D02*
X142139819Y-108088333D01*
X142139819Y-108088333D02*
X142139819Y-107897857D01*
X142139819Y-107897857D02*
X142092200Y-107802619D01*
X142092200Y-107802619D02*
X141996961Y-107707381D01*
X141996961Y-107707381D02*
X141806485Y-107659762D01*
X141806485Y-107659762D02*
X141473152Y-107659762D01*
X141473152Y-107659762D02*
X141282676Y-107707381D01*
X141282676Y-107707381D02*
X141187438Y-107802619D01*
X141187438Y-107802619D02*
X141139819Y-107897857D01*
D10*
X154795832Y-130688704D02*
X154833928Y-130726800D01*
X154833928Y-130726800D02*
X154948213Y-130764895D01*
X154948213Y-130764895D02*
X155024404Y-130764895D01*
X155024404Y-130764895D02*
X155138690Y-130726800D01*
X155138690Y-130726800D02*
X155214880Y-130650609D01*
X155214880Y-130650609D02*
X155252975Y-130574419D01*
X155252975Y-130574419D02*
X155291071Y-130422038D01*
X155291071Y-130422038D02*
X155291071Y-130307752D01*
X155291071Y-130307752D02*
X155252975Y-130155371D01*
X155252975Y-130155371D02*
X155214880Y-130079180D01*
X155214880Y-130079180D02*
X155138690Y-130002990D01*
X155138690Y-130002990D02*
X155024404Y-129964895D01*
X155024404Y-129964895D02*
X154948213Y-129964895D01*
X154948213Y-129964895D02*
X154833928Y-130002990D01*
X154833928Y-130002990D02*
X154795832Y-130041085D01*
X154110118Y-129964895D02*
X154262499Y-129964895D01*
X154262499Y-129964895D02*
X154338690Y-130002990D01*
X154338690Y-130002990D02*
X154376785Y-130041085D01*
X154376785Y-130041085D02*
X154452975Y-130155371D01*
X154452975Y-130155371D02*
X154491071Y-130307752D01*
X154491071Y-130307752D02*
X154491071Y-130612514D01*
X154491071Y-130612514D02*
X154452975Y-130688704D01*
X154452975Y-130688704D02*
X154414880Y-130726800D01*
X154414880Y-130726800D02*
X154338690Y-130764895D01*
X154338690Y-130764895D02*
X154186309Y-130764895D01*
X154186309Y-130764895D02*
X154110118Y-130726800D01*
X154110118Y-130726800D02*
X154072023Y-130688704D01*
X154072023Y-130688704D02*
X154033928Y-130612514D01*
X154033928Y-130612514D02*
X154033928Y-130422038D01*
X154033928Y-130422038D02*
X154072023Y-130345847D01*
X154072023Y-130345847D02*
X154110118Y-130307752D01*
X154110118Y-130307752D02*
X154186309Y-130269657D01*
X154186309Y-130269657D02*
X154338690Y-130269657D01*
X154338690Y-130269657D02*
X154414880Y-130307752D01*
X154414880Y-130307752D02*
X154452975Y-130345847D01*
X154452975Y-130345847D02*
X154491071Y-130422038D01*
D12*
%TO.C,C3*%
X154238748Y-80665000D02*
X154761252Y-80665000D01*
X154238748Y-82135000D02*
X154761252Y-82135000D01*
%TO.C,GPIO*%
X135035000Y-80365000D02*
X135035000Y-131285000D01*
X137635000Y-80365000D02*
X135035000Y-80365000D01*
X137635000Y-82965000D02*
X137635000Y-80365000D01*
X140235000Y-80365000D02*
X138905000Y-80365000D01*
X140235000Y-81695000D02*
X140235000Y-80365000D01*
X140235000Y-82965000D02*
X137635000Y-82965000D01*
X140235000Y-82965000D02*
X140235000Y-131285000D01*
X140235000Y-131285000D02*
X135035000Y-131285000D01*
%TO.C,C6*%
X151738748Y-129665000D02*
X152261252Y-129665000D01*
X151738748Y-131135000D02*
X152261252Y-131135000D01*
%TD*%
M02*
