%TF.GenerationSoftware,KiCad,Pcbnew,9.0.0*%
%TF.CreationDate,2025-04-06T00:06:35-05:00*%
%TF.ProjectId,RC-PCB,52432d50-4342-42e6-9b69-6361645f7063,rev?*%
%TF.SameCoordinates,Original*%
%TF.FileFunction,Copper,L2,Bot*%
%TF.FilePolarity,Positive*%
%FSLAX46Y46*%
G04 Gerber Fmt 4.6, Leading zero omitted, Abs format (unit mm)*
G04 Created by KiCad (PCBNEW 9.0.0) date 2025-04-06 00:06:35*
%MOMM*%
%LPD*%
G01*
G04 APERTURE LIST*
G04 Aperture macros list*
%AMRoundRect*
0 Rectangle with rounded corners*
0 $1 Rounding radius*
0 $2 $3 $4 $5 $6 $7 $8 $9 X,Y pos of 4 corners*
0 Add a 4 corners polygon primitive as box body*
4,1,4,$2,$3,$4,$5,$6,$7,$8,$9,$2,$3,0*
0 Add four circle primitives for the rounded corners*
1,1,$1+$1,$2,$3*
1,1,$1+$1,$4,$5*
1,1,$1+$1,$6,$7*
1,1,$1+$1,$8,$9*
0 Add four rect primitives between the rounded corners*
20,1,$1+$1,$2,$3,$4,$5,0*
20,1,$1+$1,$4,$5,$6,$7,0*
20,1,$1+$1,$6,$7,$8,$9,0*
20,1,$1+$1,$8,$9,$2,$3,0*%
G04 Aperture macros list end*
%TA.AperFunction,ComponentPad*%
%ADD10RoundRect,0.250000X0.600000X-0.850000X0.600000X0.850000X-0.600000X0.850000X-0.600000X-0.850000X0*%
%TD*%
%TA.AperFunction,ComponentPad*%
%ADD11O,1.700000X2.200000*%
%TD*%
%TA.AperFunction,ComponentPad*%
%ADD12RoundRect,0.250001X-0.759999X0.499999X-0.759999X-0.499999X0.759999X-0.499999X0.759999X0.499999X0*%
%TD*%
%TA.AperFunction,ComponentPad*%
%ADD13O,2.020000X1.500000*%
%TD*%
%TA.AperFunction,ComponentPad*%
%ADD14R,1.700000X1.700000*%
%TD*%
%TA.AperFunction,ComponentPad*%
%ADD15O,1.700000X1.700000*%
%TD*%
%TA.AperFunction,ComponentPad*%
%ADD16R,1.000000X1.000000*%
%TD*%
%TA.AperFunction,ViaPad*%
%ADD17C,0.600000*%
%TD*%
%TA.AperFunction,Conductor*%
%ADD18C,0.300000*%
%TD*%
%TA.AperFunction,Conductor*%
%ADD19C,0.250000*%
%TD*%
G04 APERTURE END LIST*
D10*
%TO.P,Motor1,1,Pin_1*%
%TO.N,/Rev*%
X144300000Y-75800000D03*
D11*
%TO.P,Motor1,2,Pin_2*%
%TO.N,Net-(Motor1-Pin_2)*%
X146800000Y-75800000D03*
%TO.P,Motor1,3,Pin_3*%
%TO.N,Net-(Motor1-Pin_3)*%
X149300000Y-75800000D03*
%TO.P,Motor1,4,Pin_4*%
%TO.N,+12V*%
X151800000Y-75800000D03*
%TO.P,Motor1,5,Pin_5*%
%TO.N,GND*%
X154300000Y-75800000D03*
%TD*%
D12*
%TO.P,Battery1,1,Pin_1*%
%TO.N,Net-(Battery1-Pin_1)*%
X160900000Y-120500000D03*
D13*
%TO.P,Battery1,2,Pin_2*%
%TO.N,GND*%
X160900000Y-123500000D03*
%TD*%
D14*
%TO.P,Power,1,A*%
%TO.N,+12V*%
X153400000Y-123300000D03*
D15*
%TO.P,Power,2,B*%
%TO.N,Net-(Battery1-Pin_1)*%
X153400000Y-120760000D03*
%TD*%
D14*
%TO.P,Servo1,1,Pin_1*%
%TO.N,Net-(Servo1-Pin_1)*%
X147100000Y-135400000D03*
D15*
%TO.P,Servo1,2,Pin_2*%
%TO.N,+5V*%
X149640000Y-135400000D03*
%TO.P,Servo1,3,Pin_3*%
%TO.N,GND*%
X152180000Y-135400000D03*
%TD*%
D14*
%TO.P,Motor,1,A*%
%TO.N,/Motor_PWM*%
X150575000Y-85400000D03*
D15*
%TO.P,Motor,2,B*%
%TO.N,Net-(Motor1-Pin_2)*%
X148035000Y-85400000D03*
%TD*%
D16*
%TO.P,+5V,1,1*%
%TO.N,+5V*%
X160400000Y-107100000D03*
%TD*%
D14*
%TO.P,Servo,1,A*%
%TO.N,/Servo_PWM*%
X147100000Y-127560000D03*
D15*
%TO.P,Servo,2,B*%
%TO.N,Net-(Servo1-Pin_1)*%
X147100000Y-130100000D03*
%TD*%
D16*
%TO.P,GND,1,1*%
%TO.N,GND*%
X160400000Y-105000000D03*
%TD*%
%TO.P,Rev2,1,1*%
%TO.N,/Rev*%
X144005000Y-83900000D03*
%TD*%
%TO.P,+12V,1,1*%
%TO.N,+12V*%
X160400000Y-109200000D03*
%TD*%
D14*
%TO.P,GPIO,1,Pin_1*%
%TO.N,GND*%
X138905000Y-81695000D03*
D15*
%TO.P,GPIO,2,Pin_2*%
%TO.N,unconnected-(GPIO1-Pin_2-Pad2)*%
X136365000Y-81695000D03*
%TO.P,GPIO,3,Pin_3*%
%TO.N,unconnected-(GPIO1-Pin_3-Pad3)*%
X138905000Y-84235000D03*
%TO.P,GPIO,4,Pin_4*%
%TO.N,unconnected-(GPIO1-Pin_4-Pad4)*%
X136365000Y-84235000D03*
%TO.P,GPIO,5,Pin_5*%
%TO.N,unconnected-(GPIO1-Pin_5-Pad5)*%
X138905000Y-86775000D03*
%TO.P,GPIO,6,Pin_6*%
%TO.N,unconnected-(GPIO1-Pin_6-Pad6)*%
X136365000Y-86775000D03*
%TO.P,GPIO,7,Pin_7*%
%TO.N,unconnected-(GPIO1-Pin_7-Pad7)*%
X138905000Y-89315000D03*
%TO.P,GPIO,8,Pin_8*%
%TO.N,GND*%
X136365000Y-89315000D03*
%TO.P,GPIO,9,Pin_9*%
%TO.N,unconnected-(GPIO1-Pin_9-Pad9)*%
X138905000Y-91855000D03*
%TO.P,GPIO,10,Pin_10*%
%TO.N,unconnected-(GPIO1-Pin_10-Pad10)*%
X136365000Y-91855000D03*
%TO.P,GPIO,11,Pin_11*%
%TO.N,unconnected-(GPIO1-Pin_11-Pad11)*%
X138905000Y-94395000D03*
%TO.P,GPIO,12,Pin_12*%
%TO.N,GND*%
X136365000Y-94395000D03*
%TO.P,GPIO,13,Pin_13*%
%TO.N,unconnected-(GPIO1-Pin_13-Pad13)*%
X138905000Y-96935000D03*
%TO.P,GPIO,14,Pin_14*%
%TO.N,unconnected-(GPIO1-Pin_14-Pad14)*%
X136365000Y-96935000D03*
%TO.P,GPIO,15,Pin_15*%
%TO.N,GND*%
X138905000Y-99475000D03*
%TO.P,GPIO,16,Pin_16*%
%TO.N,unconnected-(GPIO1-Pin_16-Pad16)*%
X136365000Y-99475000D03*
%TO.P,GPIO,17,Pin_17*%
%TO.N,unconnected-(GPIO1-Pin_17-Pad17)*%
X138905000Y-102015000D03*
%TO.P,GPIO,18,Pin_18*%
%TO.N,unconnected-(GPIO1-Pin_18-Pad18)*%
X136365000Y-102015000D03*
%TO.P,GPIO,19,Pin_19*%
%TO.N,unconnected-(GPIO1-Pin_19-Pad19)*%
X138905000Y-104555000D03*
%TO.P,GPIO,20,Pin_20*%
%TO.N,unconnected-(GPIO1-Pin_20-Pad20)*%
X136365000Y-104555000D03*
%TO.P,GPIO,21,Pin_21*%
%TO.N,unconnected-(GPIO1-Pin_21-Pad21)*%
X138905000Y-107095000D03*
%TO.P,GPIO,22,Pin_22*%
%TO.N,GND*%
X136365000Y-107095000D03*
%TO.P,GPIO,23,Pin_23*%
%TO.N,unconnected-(GPIO1-Pin_23-Pad23)*%
X138905000Y-109635000D03*
%TO.P,GPIO,24,Pin_24*%
%TO.N,/Motor_PWM*%
X136365000Y-109635000D03*
%TO.P,GPIO,25,Pin_25*%
%TO.N,/Rev*%
X138905000Y-112175000D03*
%TO.P,GPIO,26,Pin_26*%
%TO.N,/Servo_PWM*%
X136365000Y-112175000D03*
%TO.P,GPIO,27,Pin_27*%
%TO.N,unconnected-(GPIO1-Pin_27-Pad27)*%
X138905000Y-114715000D03*
%TO.P,GPIO,28,Pin_28*%
%TO.N,GND*%
X136365000Y-114715000D03*
%TO.P,GPIO,29,Pin_29*%
%TO.N,unconnected-(GPIO1-Pin_29-Pad29)*%
X138905000Y-117255000D03*
%TO.P,GPIO,30,Pin_30*%
%TO.N,unconnected-(GPIO1-Pin_30-Pad30)*%
X136365000Y-117255000D03*
%TO.P,GPIO,31,Pin_31*%
%TO.N,GND*%
X138905000Y-119795000D03*
%TO.P,GPIO,32,Pin_32*%
%TO.N,unconnected-(GPIO1-Pin_32-Pad32)*%
X136365000Y-119795000D03*
%TO.P,GPIO,33,Pin_33*%
%TO.N,unconnected-(GPIO1-Pin_33-Pad33)*%
X138905000Y-122335000D03*
%TO.P,GPIO,34,Pin_34*%
%TO.N,unconnected-(GPIO1-Pin_34-Pad34)*%
X136365000Y-122335000D03*
%TO.P,GPIO,35,Pin_35*%
%TO.N,unconnected-(GPIO1-Pin_35-Pad35)*%
X138905000Y-124875000D03*
%TO.P,GPIO,36,Pin_36*%
%TO.N,GND*%
X136365000Y-124875000D03*
%TO.P,GPIO,37,Pin_37*%
%TO.N,unconnected-(GPIO1-Pin_37-Pad37)*%
X138905000Y-127415000D03*
%TO.P,GPIO,38,Pin_38*%
%TO.N,+5V*%
X136365000Y-127415000D03*
%TO.P,GPIO,39,Pin_39*%
%TO.N,unconnected-(GPIO1-Pin_39-Pad39)*%
X138905000Y-129955000D03*
%TO.P,GPIO,40,Pin_40*%
%TO.N,+5V*%
X136365000Y-129955000D03*
%TD*%
D17*
%TO.N,+12V*%
X151900000Y-110000000D03*
X147812500Y-102520000D03*
%TO.N,GND*%
X150500000Y-91387500D03*
X143000000Y-79075000D03*
X149887500Y-102500000D03*
X148100000Y-91387500D03*
X155500000Y-79200000D03*
X154000000Y-110000000D03*
X141800000Y-107062500D03*
%TO.N,/Servo_PWM*%
X142085000Y-118635000D03*
X146005000Y-122555000D03*
%TD*%
D18*
%TO.N,+12V*%
X147800000Y-102532500D02*
X147812500Y-102520000D01*
X151900000Y-110000000D02*
X149800000Y-110000000D01*
X148870000Y-104870000D02*
X147800000Y-103800000D01*
X148870000Y-109070000D02*
X148870000Y-104870000D01*
X149800000Y-110000000D02*
X148870000Y-109070000D01*
X147800000Y-103800000D02*
X147800000Y-102532500D01*
%TO.N,GND*%
X138905000Y-99475000D02*
X137620000Y-98190000D01*
X136365000Y-124875000D02*
X137640000Y-123600000D01*
X138905000Y-119795000D02*
X137620000Y-118510000D01*
X135030000Y-93060000D02*
X135030000Y-90650000D01*
X137620000Y-115970000D02*
X136365000Y-114715000D01*
X137640000Y-100740000D02*
X138905000Y-99475000D01*
X137640000Y-121060000D02*
X138905000Y-119795000D01*
X136365000Y-114715000D02*
X135020000Y-113370000D01*
X137620000Y-95650000D02*
X136365000Y-94395000D01*
X137650000Y-82950000D02*
X138905000Y-81695000D01*
X136365000Y-94395000D02*
X135030000Y-93060000D01*
X137620000Y-98190000D02*
X137620000Y-95650000D01*
X137640000Y-105820000D02*
X137640000Y-100740000D01*
X137620000Y-118510000D02*
X137620000Y-115970000D01*
X137650000Y-88030000D02*
X137650000Y-82950000D01*
X136365000Y-107095000D02*
X137640000Y-105820000D01*
X136365000Y-89315000D02*
X137650000Y-88030000D01*
X135030000Y-90650000D02*
X136365000Y-89315000D01*
X137640000Y-123600000D02*
X137640000Y-121060000D01*
X135020000Y-113370000D02*
X135020000Y-108440000D01*
X135020000Y-108440000D02*
X136365000Y-107095000D01*
D19*
%TO.N,/Servo_PWM*%
X142085000Y-118635000D02*
X146005000Y-122555000D01*
%TD*%
%TA.AperFunction,Conductor*%
%TO.N,GND*%
G36*
X137708539Y-122796543D02*
G01*
X137727664Y-122822867D01*
X137818364Y-123000875D01*
X137818367Y-123000880D01*
X137818371Y-123000887D01*
X137935917Y-123162675D01*
X138077325Y-123304083D01*
X138239113Y-123421629D01*
X138239119Y-123421632D01*
X138417133Y-123512336D01*
X138462582Y-123557786D01*
X138472636Y-123621270D01*
X138443456Y-123678540D01*
X138417133Y-123697664D01*
X138239119Y-123788367D01*
X138239112Y-123788372D01*
X138077323Y-123905918D01*
X137935918Y-124047323D01*
X137935917Y-124047325D01*
X137837274Y-124183096D01*
X137818372Y-124209112D01*
X137818367Y-124209119D01*
X137772276Y-124299578D01*
X137726826Y-124345027D01*
X137663342Y-124355081D01*
X137606072Y-124325900D01*
X137586947Y-124299577D01*
X137519624Y-124167447D01*
X137519622Y-124167445D01*
X137394720Y-123995532D01*
X137244467Y-123845279D01*
X137072554Y-123720377D01*
X137072552Y-123720375D01*
X136940422Y-123653052D01*
X136894972Y-123607602D01*
X136884917Y-123544118D01*
X136914098Y-123486848D01*
X136940414Y-123467727D01*
X137030887Y-123421629D01*
X137192675Y-123304083D01*
X137334083Y-123162675D01*
X137451629Y-123000887D01*
X137504927Y-122896285D01*
X137542336Y-122822867D01*
X137587785Y-122777417D01*
X137651270Y-122767362D01*
X137708539Y-122796543D01*
G37*
%TD.AperFunction*%
%TA.AperFunction,Conductor*%
G36*
X137621332Y-120322395D02*
G01*
X137637602Y-120324972D01*
X137649250Y-120336620D01*
X137663926Y-120344098D01*
X137683052Y-120370422D01*
X137750375Y-120502552D01*
X137750377Y-120502554D01*
X137875279Y-120674467D01*
X138025532Y-120824720D01*
X138197445Y-120949622D01*
X138197447Y-120949624D01*
X138329577Y-121016947D01*
X138375027Y-121062397D01*
X138385082Y-121125881D01*
X138355901Y-121183151D01*
X138329578Y-121202276D01*
X138239119Y-121248367D01*
X138239112Y-121248372D01*
X138077323Y-121365918D01*
X137935918Y-121507323D01*
X137862614Y-121608217D01*
X137857020Y-121615918D01*
X137818372Y-121669112D01*
X137818367Y-121669119D01*
X137727664Y-121847133D01*
X137682214Y-121892582D01*
X137618730Y-121902636D01*
X137561460Y-121873456D01*
X137542336Y-121847133D01*
X137451632Y-121669119D01*
X137451629Y-121669113D01*
X137334083Y-121507325D01*
X137192675Y-121365917D01*
X137030887Y-121248371D01*
X137030880Y-121248367D01*
X137030875Y-121248364D01*
X136852867Y-121157664D01*
X136807417Y-121112215D01*
X136797362Y-121048730D01*
X136826543Y-120991461D01*
X136852867Y-120972336D01*
X137030875Y-120881635D01*
X137030874Y-120881635D01*
X137030887Y-120881629D01*
X137192675Y-120764083D01*
X137334083Y-120622675D01*
X137451629Y-120460887D01*
X137497725Y-120370418D01*
X137509370Y-120358773D01*
X137516848Y-120344098D01*
X137531523Y-120336620D01*
X137543172Y-120324972D01*
X137559441Y-120322395D01*
X137574118Y-120314917D01*
X137590387Y-120317493D01*
X137606656Y-120314917D01*
X137621332Y-120322395D01*
G37*
%TD.AperFunction*%
%TA.AperFunction,Conductor*%
G36*
X137708539Y-117716543D02*
G01*
X137727664Y-117742867D01*
X137818364Y-117920875D01*
X137818367Y-117920880D01*
X137818371Y-117920887D01*
X137935917Y-118082675D01*
X138077325Y-118224083D01*
X138239113Y-118341629D01*
X138329579Y-118387724D01*
X138375027Y-118433172D01*
X138385082Y-118496656D01*
X138355901Y-118553926D01*
X138329577Y-118573051D01*
X138197457Y-118640369D01*
X138197445Y-118640377D01*
X138025532Y-118765279D01*
X137875279Y-118915532D01*
X137750377Y-119087445D01*
X137750369Y-119087457D01*
X137683051Y-119219577D01*
X137637602Y-119265027D01*
X137574117Y-119275082D01*
X137516848Y-119245901D01*
X137497725Y-119219581D01*
X137451629Y-119129113D01*
X137334083Y-118967325D01*
X137192675Y-118825917D01*
X137030887Y-118708371D01*
X137030880Y-118708367D01*
X137030875Y-118708364D01*
X136852867Y-118617664D01*
X136807417Y-118572215D01*
X136797362Y-118508730D01*
X136826543Y-118451461D01*
X136852867Y-118432336D01*
X137030875Y-118341635D01*
X137030874Y-118341635D01*
X137030887Y-118341629D01*
X137192675Y-118224083D01*
X137334083Y-118082675D01*
X137451629Y-117920887D01*
X137534475Y-117758294D01*
X137542336Y-117742867D01*
X137587785Y-117697417D01*
X137651270Y-117687362D01*
X137708539Y-117716543D01*
G37*
%TD.AperFunction*%
%TA.AperFunction,Conductor*%
G36*
X137710557Y-115242395D02*
G01*
X137726827Y-115244972D01*
X137738474Y-115256619D01*
X137753151Y-115264098D01*
X137772276Y-115290422D01*
X137818364Y-115380875D01*
X137818367Y-115380880D01*
X137818371Y-115380887D01*
X137935917Y-115542675D01*
X138077325Y-115684083D01*
X138239113Y-115801629D01*
X138239119Y-115801632D01*
X138417133Y-115892336D01*
X138462582Y-115937786D01*
X138472636Y-116001270D01*
X138443456Y-116058540D01*
X138417133Y-116077664D01*
X138239119Y-116168367D01*
X138239112Y-116168372D01*
X138077323Y-116285918D01*
X137935918Y-116427323D01*
X137818372Y-116589112D01*
X137818367Y-116589119D01*
X137727664Y-116767133D01*
X137682214Y-116812582D01*
X137618730Y-116822636D01*
X137561460Y-116793456D01*
X137542336Y-116767133D01*
X137451632Y-116589119D01*
X137451629Y-116589113D01*
X137334083Y-116427325D01*
X137192675Y-116285917D01*
X137030887Y-116168371D01*
X137030880Y-116168367D01*
X137030875Y-116168364D01*
X136940422Y-116122276D01*
X136894972Y-116076827D01*
X136884917Y-116013342D01*
X136914098Y-115956073D01*
X136940422Y-115936947D01*
X137072552Y-115869623D01*
X137072554Y-115869622D01*
X137244467Y-115744720D01*
X137394720Y-115594467D01*
X137519622Y-115422554D01*
X137519623Y-115422552D01*
X137586947Y-115290422D01*
X137598594Y-115278774D01*
X137606073Y-115264098D01*
X137620750Y-115256619D01*
X137632397Y-115244973D01*
X137648663Y-115242396D01*
X137663342Y-115234917D01*
X137679612Y-115237493D01*
X137695881Y-115234917D01*
X137710557Y-115242395D01*
G37*
%TD.AperFunction*%
%TA.AperFunction,Conductor*%
G36*
X137665946Y-104994840D02*
G01*
X137682215Y-104997417D01*
X137693862Y-105009064D01*
X137708539Y-105016543D01*
X137727664Y-105042867D01*
X137818364Y-105220875D01*
X137818367Y-105220880D01*
X137818371Y-105220887D01*
X137935917Y-105382675D01*
X138077325Y-105524083D01*
X138239113Y-105641629D01*
X138239119Y-105641632D01*
X138417133Y-105732336D01*
X138462582Y-105777786D01*
X138472636Y-105841270D01*
X138443456Y-105898540D01*
X138417133Y-105917664D01*
X138239119Y-106008367D01*
X138239112Y-106008372D01*
X138077323Y-106125918D01*
X137935918Y-106267323D01*
X137818372Y-106429112D01*
X137818367Y-106429119D01*
X137772276Y-106519578D01*
X137726826Y-106565027D01*
X137663342Y-106575081D01*
X137606072Y-106545900D01*
X137586947Y-106519577D01*
X137519624Y-106387447D01*
X137519622Y-106387445D01*
X137394720Y-106215532D01*
X137244467Y-106065279D01*
X137072554Y-105940377D01*
X137072552Y-105940375D01*
X136940422Y-105873052D01*
X136894972Y-105827602D01*
X136884917Y-105764118D01*
X136914098Y-105706848D01*
X136940414Y-105687727D01*
X137030887Y-105641629D01*
X137192675Y-105524083D01*
X137334083Y-105382675D01*
X137451629Y-105220887D01*
X137466951Y-105190815D01*
X137542336Y-105042867D01*
X137553982Y-105031220D01*
X137561461Y-105016543D01*
X137576137Y-105009064D01*
X137587785Y-104997417D01*
X137604053Y-104994840D01*
X137618730Y-104987362D01*
X137635000Y-104989938D01*
X137651270Y-104987362D01*
X137665946Y-104994840D01*
G37*
%TD.AperFunction*%
%TA.AperFunction,Conductor*%
G36*
X137708539Y-102476543D02*
G01*
X137727664Y-102502867D01*
X137818364Y-102680875D01*
X137818367Y-102680880D01*
X137818371Y-102680887D01*
X137935917Y-102842675D01*
X138077325Y-102984083D01*
X138239113Y-103101629D01*
X138239119Y-103101632D01*
X138417133Y-103192336D01*
X138462582Y-103237786D01*
X138472636Y-103301270D01*
X138443456Y-103358540D01*
X138417133Y-103377664D01*
X138239119Y-103468367D01*
X138239112Y-103468372D01*
X138077323Y-103585918D01*
X137935918Y-103727323D01*
X137818372Y-103889112D01*
X137818367Y-103889119D01*
X137727664Y-104067133D01*
X137682214Y-104112582D01*
X137618730Y-104122636D01*
X137561460Y-104093456D01*
X137542336Y-104067133D01*
X137451632Y-103889119D01*
X137451629Y-103889113D01*
X137334083Y-103727325D01*
X137192675Y-103585917D01*
X137030887Y-103468371D01*
X137030880Y-103468367D01*
X137030875Y-103468364D01*
X136852867Y-103377664D01*
X136807417Y-103332215D01*
X136797362Y-103268730D01*
X136826543Y-103211461D01*
X136852867Y-103192336D01*
X137030875Y-103101635D01*
X137030874Y-103101635D01*
X137030887Y-103101629D01*
X137192675Y-102984083D01*
X137334083Y-102842675D01*
X137451629Y-102680887D01*
X137497448Y-102590963D01*
X137542336Y-102502867D01*
X137587785Y-102457417D01*
X137651270Y-102447362D01*
X137708539Y-102476543D01*
G37*
%TD.AperFunction*%
%TA.AperFunction,Conductor*%
G36*
X137621332Y-100002395D02*
G01*
X137637602Y-100004972D01*
X137649250Y-100016620D01*
X137663926Y-100024098D01*
X137683052Y-100050422D01*
X137750375Y-100182552D01*
X137750377Y-100182554D01*
X137875279Y-100354467D01*
X138025532Y-100504720D01*
X138197445Y-100629622D01*
X138197447Y-100629624D01*
X138329577Y-100696947D01*
X138375027Y-100742397D01*
X138385082Y-100805881D01*
X138355901Y-100863151D01*
X138329578Y-100882276D01*
X138239119Y-100928367D01*
X138239112Y-100928372D01*
X138077323Y-101045918D01*
X137935918Y-101187323D01*
X137818372Y-101349112D01*
X137818367Y-101349119D01*
X137727664Y-101527133D01*
X137682214Y-101572582D01*
X137618730Y-101582636D01*
X137561460Y-101553456D01*
X137542336Y-101527133D01*
X137451632Y-101349119D01*
X137451629Y-101349113D01*
X137334083Y-101187325D01*
X137192675Y-101045917D01*
X137030887Y-100928371D01*
X137030880Y-100928367D01*
X137030875Y-100928364D01*
X136852867Y-100837664D01*
X136807417Y-100792215D01*
X136797362Y-100728730D01*
X136826543Y-100671461D01*
X136852867Y-100652336D01*
X137030875Y-100561635D01*
X137030874Y-100561635D01*
X137030887Y-100561629D01*
X137192675Y-100444083D01*
X137334083Y-100302675D01*
X137451629Y-100140887D01*
X137497725Y-100050418D01*
X137509370Y-100038773D01*
X137516848Y-100024098D01*
X137531523Y-100016620D01*
X137543172Y-100004972D01*
X137559441Y-100002395D01*
X137574118Y-99994917D01*
X137590387Y-99997493D01*
X137606656Y-99994917D01*
X137621332Y-100002395D01*
G37*
%TD.AperFunction*%
%TA.AperFunction,Conductor*%
G36*
X137708539Y-97396543D02*
G01*
X137727664Y-97422867D01*
X137818364Y-97600875D01*
X137818367Y-97600880D01*
X137818371Y-97600887D01*
X137935917Y-97762675D01*
X138077325Y-97904083D01*
X138239113Y-98021629D01*
X138329579Y-98067724D01*
X138375027Y-98113172D01*
X138385082Y-98176656D01*
X138355901Y-98233926D01*
X138329577Y-98253051D01*
X138197457Y-98320369D01*
X138197445Y-98320377D01*
X138025532Y-98445279D01*
X137875279Y-98595532D01*
X137750377Y-98767445D01*
X137750369Y-98767457D01*
X137683051Y-98899577D01*
X137637602Y-98945027D01*
X137574117Y-98955082D01*
X137516848Y-98925901D01*
X137497725Y-98899581D01*
X137451629Y-98809113D01*
X137334083Y-98647325D01*
X137192675Y-98505917D01*
X137030887Y-98388371D01*
X137030880Y-98388367D01*
X137030875Y-98388364D01*
X136852867Y-98297664D01*
X136807417Y-98252215D01*
X136797362Y-98188730D01*
X136826543Y-98131461D01*
X136852867Y-98112336D01*
X137030875Y-98021635D01*
X137030874Y-98021635D01*
X137030887Y-98021629D01*
X137192675Y-97904083D01*
X137334083Y-97762675D01*
X137451629Y-97600887D01*
X137466951Y-97570815D01*
X137542336Y-97422867D01*
X137587785Y-97377417D01*
X137651270Y-97367362D01*
X137708539Y-97396543D01*
G37*
%TD.AperFunction*%
%TA.AperFunction,Conductor*%
G36*
X137710557Y-94922395D02*
G01*
X137726827Y-94924972D01*
X137738474Y-94936619D01*
X137753151Y-94944098D01*
X137772276Y-94970422D01*
X137818364Y-95060875D01*
X137818367Y-95060880D01*
X137818371Y-95060887D01*
X137935917Y-95222675D01*
X138077325Y-95364083D01*
X138239113Y-95481629D01*
X138239119Y-95481632D01*
X138417133Y-95572336D01*
X138462582Y-95617786D01*
X138472636Y-95681270D01*
X138443456Y-95738540D01*
X138417133Y-95757664D01*
X138239119Y-95848367D01*
X138239112Y-95848372D01*
X138077323Y-95965918D01*
X137935918Y-96107323D01*
X137818372Y-96269112D01*
X137818367Y-96269119D01*
X137727664Y-96447133D01*
X137682214Y-96492582D01*
X137618730Y-96502636D01*
X137561460Y-96473456D01*
X137542336Y-96447133D01*
X137451632Y-96269119D01*
X137451629Y-96269113D01*
X137334083Y-96107325D01*
X137192675Y-95965917D01*
X137030887Y-95848371D01*
X137030880Y-95848367D01*
X137030875Y-95848364D01*
X136940422Y-95802276D01*
X136894972Y-95756827D01*
X136884917Y-95693342D01*
X136914098Y-95636073D01*
X136940422Y-95616947D01*
X137072552Y-95549623D01*
X137072554Y-95549622D01*
X137244467Y-95424720D01*
X137394720Y-95274467D01*
X137519622Y-95102554D01*
X137519623Y-95102552D01*
X137586947Y-94970422D01*
X137598594Y-94958774D01*
X137606073Y-94944098D01*
X137620750Y-94936619D01*
X137632397Y-94924973D01*
X137648663Y-94922396D01*
X137663342Y-94914917D01*
X137679612Y-94917493D01*
X137695881Y-94914917D01*
X137710557Y-94922395D01*
G37*
%TD.AperFunction*%
%TA.AperFunction,Conductor*%
G36*
X137708539Y-87236543D02*
G01*
X137727664Y-87262867D01*
X137818364Y-87440875D01*
X137818367Y-87440880D01*
X137818371Y-87440887D01*
X137935917Y-87602675D01*
X138077325Y-87744083D01*
X138239113Y-87861629D01*
X138239119Y-87861632D01*
X138417133Y-87952336D01*
X138462582Y-87997786D01*
X138472636Y-88061270D01*
X138443456Y-88118540D01*
X138417133Y-88137664D01*
X138239119Y-88228367D01*
X138239112Y-88228372D01*
X138077323Y-88345918D01*
X137935918Y-88487323D01*
X137818372Y-88649112D01*
X137818367Y-88649119D01*
X137772276Y-88739578D01*
X137726826Y-88785027D01*
X137663342Y-88795081D01*
X137606072Y-88765900D01*
X137586947Y-88739577D01*
X137519624Y-88607447D01*
X137519622Y-88607445D01*
X137394720Y-88435532D01*
X137244467Y-88285279D01*
X137072554Y-88160377D01*
X137072552Y-88160375D01*
X136940422Y-88093052D01*
X136894972Y-88047602D01*
X136884917Y-87984118D01*
X136914098Y-87926848D01*
X136940414Y-87907727D01*
X137030887Y-87861629D01*
X137192675Y-87744083D01*
X137334083Y-87602675D01*
X137451629Y-87440887D01*
X137466951Y-87410815D01*
X137542336Y-87262867D01*
X137587785Y-87217417D01*
X137651270Y-87207362D01*
X137708539Y-87236543D01*
G37*
%TD.AperFunction*%
%TA.AperFunction,Conductor*%
G36*
X137665946Y-84674840D02*
G01*
X137682215Y-84677417D01*
X137693862Y-84689064D01*
X137708539Y-84696543D01*
X137727664Y-84722867D01*
X137818364Y-84900875D01*
X137818367Y-84900880D01*
X137818371Y-84900887D01*
X137935917Y-85062675D01*
X138077325Y-85204083D01*
X138239113Y-85321629D01*
X138239119Y-85321632D01*
X138417133Y-85412336D01*
X138462582Y-85457786D01*
X138472636Y-85521270D01*
X138443456Y-85578540D01*
X138417133Y-85597664D01*
X138239119Y-85688367D01*
X138239114Y-85688370D01*
X138239113Y-85688371D01*
X138226529Y-85697514D01*
X138077323Y-85805918D01*
X137935918Y-85947323D01*
X137818372Y-86109112D01*
X137818367Y-86109119D01*
X137727664Y-86287133D01*
X137682214Y-86332582D01*
X137618730Y-86342636D01*
X137561460Y-86313456D01*
X137542336Y-86287133D01*
X137451632Y-86109119D01*
X137451629Y-86109113D01*
X137334083Y-85947325D01*
X137192675Y-85805917D01*
X137030887Y-85688371D01*
X137030880Y-85688367D01*
X137030875Y-85688364D01*
X136852867Y-85597664D01*
X136807417Y-85552215D01*
X136797362Y-85488730D01*
X136826543Y-85431461D01*
X136852867Y-85412336D01*
X137030875Y-85321635D01*
X137030874Y-85321635D01*
X137030887Y-85321629D01*
X137192675Y-85204083D01*
X137334083Y-85062675D01*
X137451629Y-84900887D01*
X137531347Y-84744433D01*
X137542336Y-84722867D01*
X137553982Y-84711220D01*
X137561461Y-84696543D01*
X137576137Y-84689064D01*
X137587785Y-84677417D01*
X137604053Y-84674840D01*
X137618730Y-84667362D01*
X137635000Y-84669938D01*
X137651270Y-84667362D01*
X137665946Y-84674840D01*
G37*
%TD.AperFunction*%
%TA.AperFunction,Conductor*%
G36*
X137535137Y-82477557D02*
G01*
X137555000Y-82538686D01*
X137555000Y-82592830D01*
X137561401Y-82652371D01*
X137561401Y-82652372D01*
X137611647Y-82787090D01*
X137697811Y-82902188D01*
X137812909Y-82988352D01*
X137947628Y-83038598D01*
X138007169Y-83045000D01*
X138061313Y-83045000D01*
X138122443Y-83064862D01*
X138160223Y-83116862D01*
X138160223Y-83181138D01*
X138122444Y-83233135D01*
X138106288Y-83244873D01*
X138077328Y-83265914D01*
X138077321Y-83265920D01*
X137935918Y-83407323D01*
X137818372Y-83569112D01*
X137818367Y-83569119D01*
X137727664Y-83747133D01*
X137682214Y-83792582D01*
X137618730Y-83802636D01*
X137561460Y-83773456D01*
X137542336Y-83747133D01*
X137451632Y-83569119D01*
X137451629Y-83569113D01*
X137334083Y-83407325D01*
X137192675Y-83265917D01*
X137030887Y-83148371D01*
X137030880Y-83148367D01*
X137030875Y-83148364D01*
X136852867Y-83057664D01*
X136807417Y-83012215D01*
X136797362Y-82948730D01*
X136826543Y-82891461D01*
X136852867Y-82872336D01*
X137030875Y-82781635D01*
X137030874Y-82781635D01*
X137030887Y-82781629D01*
X137192675Y-82664083D01*
X137334083Y-82522675D01*
X137366862Y-82477557D01*
X137418862Y-82439777D01*
X137483137Y-82439777D01*
X137535137Y-82477557D01*
G37*
%TD.AperFunction*%
%TA.AperFunction,Conductor*%
G36*
X160707728Y-73775642D02*
G01*
X161023539Y-73792193D01*
X161034356Y-73793329D01*
X161344051Y-73842381D01*
X161354686Y-73844642D01*
X161657543Y-73925792D01*
X161667878Y-73929150D01*
X161960588Y-74041511D01*
X161970530Y-74045937D01*
X162249891Y-74188278D01*
X162259319Y-74193721D01*
X162522275Y-74364488D01*
X162531081Y-74370887D01*
X162774732Y-74568191D01*
X162782822Y-74575475D01*
X163004524Y-74797177D01*
X163011808Y-74805267D01*
X163209112Y-75048918D01*
X163215511Y-75057724D01*
X163386278Y-75320680D01*
X163391721Y-75330108D01*
X163534062Y-75609469D01*
X163538489Y-75619414D01*
X163650846Y-75912112D01*
X163654210Y-75922465D01*
X163735355Y-76225306D01*
X163737619Y-76235954D01*
X163786669Y-76545639D01*
X163787806Y-76556465D01*
X163804357Y-76872271D01*
X163804500Y-76877714D01*
X163804500Y-116976844D01*
X163784638Y-117037974D01*
X163732638Y-117075754D01*
X163668362Y-117075754D01*
X163616362Y-117037974D01*
X163614027Y-117034623D01*
X163547813Y-116935526D01*
X163424474Y-116812187D01*
X163279442Y-116715280D01*
X163279440Y-116715279D01*
X163118294Y-116648530D01*
X163118294Y-116648529D01*
X163044972Y-116633945D01*
X162947214Y-116614500D01*
X162772786Y-116614500D01*
X162687247Y-116631514D01*
X162601705Y-116648529D01*
X162601705Y-116648530D01*
X162440559Y-116715279D01*
X162440557Y-116715280D01*
X162295528Y-116812185D01*
X162295520Y-116812192D01*
X162172192Y-116935520D01*
X162172185Y-116935528D01*
X162075280Y-117080557D01*
X162075279Y-117080559D01*
X162008530Y-117241705D01*
X162008529Y-117241705D01*
X161985997Y-117354987D01*
X161974500Y-117412786D01*
X161974500Y-117587214D01*
X161991514Y-117672752D01*
X162008529Y-117758294D01*
X162073233Y-117914500D01*
X162075280Y-117919442D01*
X162172187Y-118064474D01*
X162295526Y-118187813D01*
X162440558Y-118284720D01*
X162601705Y-118351469D01*
X162601705Y-118351470D01*
X162601708Y-118351470D01*
X162601709Y-118351471D01*
X162772786Y-118385500D01*
X162772791Y-118385500D01*
X162947209Y-118385500D01*
X162947214Y-118385500D01*
X163118291Y-118351471D01*
X163118292Y-118351470D01*
X163118294Y-118351470D01*
X163118294Y-118351469D01*
X163279442Y-118284720D01*
X163424474Y-118187813D01*
X163547813Y-118064474D01*
X163614029Y-117965374D01*
X163664503Y-117925583D01*
X163728729Y-117923060D01*
X163782173Y-117958769D01*
X163804420Y-118019072D01*
X163804500Y-118023155D01*
X163804500Y-125976844D01*
X163784638Y-126037974D01*
X163732638Y-126075754D01*
X163668362Y-126075754D01*
X163616362Y-126037974D01*
X163614027Y-126034623D01*
X163610686Y-126029623D01*
X163547813Y-125935526D01*
X163424474Y-125812187D01*
X163279442Y-125715280D01*
X163279440Y-125715279D01*
X163118294Y-125648530D01*
X163118294Y-125648529D01*
X163044972Y-125633945D01*
X162947214Y-125614500D01*
X162772786Y-125614500D01*
X162687247Y-125631514D01*
X162601705Y-125648529D01*
X162601705Y-125648530D01*
X162440559Y-125715279D01*
X162440557Y-125715280D01*
X162295528Y-125812185D01*
X162295520Y-125812192D01*
X162172192Y-125935520D01*
X162172185Y-125935528D01*
X162075280Y-126080557D01*
X162075279Y-126080559D01*
X162008530Y-126241705D01*
X162008529Y-126241705D01*
X161991292Y-126328364D01*
X161974500Y-126412786D01*
X161974500Y-126587214D01*
X161991514Y-126672752D01*
X162008529Y-126758294D01*
X162075279Y-126919440D01*
X162075280Y-126919442D01*
X162172187Y-127064474D01*
X162295526Y-127187813D01*
X162440558Y-127284720D01*
X162601705Y-127351469D01*
X162601705Y-127351470D01*
X162601708Y-127351470D01*
X162601709Y-127351471D01*
X162772786Y-127385500D01*
X162772791Y-127385500D01*
X162947209Y-127385500D01*
X162947214Y-127385500D01*
X163118291Y-127351471D01*
X163118292Y-127351470D01*
X163118294Y-127351470D01*
X163118294Y-127351469D01*
X163279442Y-127284720D01*
X163424474Y-127187813D01*
X163547813Y-127064474D01*
X163614029Y-126965374D01*
X163664503Y-126925583D01*
X163728729Y-126923060D01*
X163782173Y-126958769D01*
X163804420Y-127019072D01*
X163804500Y-127023155D01*
X163804500Y-134672285D01*
X163804357Y-134677728D01*
X163787806Y-134993534D01*
X163786669Y-135004360D01*
X163737619Y-135314045D01*
X163735355Y-135324693D01*
X163654210Y-135627534D01*
X163650846Y-135637887D01*
X163538489Y-135930585D01*
X163534062Y-135940530D01*
X163391721Y-136219891D01*
X163386278Y-136229319D01*
X163215511Y-136492275D01*
X163209112Y-136501081D01*
X163011808Y-136744732D01*
X163004524Y-136752822D01*
X162782822Y-136974524D01*
X162774732Y-136981808D01*
X162531081Y-137179112D01*
X162522275Y-137185511D01*
X162259319Y-137356278D01*
X162249891Y-137361721D01*
X161970530Y-137504062D01*
X161960585Y-137508489D01*
X161667887Y-137620846D01*
X161657534Y-137624210D01*
X161354693Y-137705355D01*
X161344045Y-137707619D01*
X161034360Y-137756669D01*
X161023534Y-137757806D01*
X160707729Y-137774357D01*
X160702286Y-137774500D01*
X137907714Y-137774500D01*
X137902271Y-137774357D01*
X137586465Y-137757806D01*
X137575639Y-137756669D01*
X137265954Y-137707619D01*
X137255306Y-137705355D01*
X136952465Y-137624210D01*
X136942112Y-137620846D01*
X136649414Y-137508489D01*
X136639469Y-137504062D01*
X136360108Y-137361721D01*
X136350680Y-137356278D01*
X136087724Y-137185511D01*
X136078918Y-137179112D01*
X135835267Y-136981808D01*
X135827177Y-136974524D01*
X135605475Y-136752822D01*
X135598191Y-136744732D01*
X135400887Y-136501081D01*
X135394488Y-136492275D01*
X135223721Y-136229319D01*
X135218278Y-136219891D01*
X135174316Y-136133611D01*
X135075935Y-135940527D01*
X135071510Y-135930585D01*
X135067415Y-135919917D01*
X134959150Y-135637878D01*
X134955792Y-135627543D01*
X134874642Y-135324686D01*
X134872380Y-135314045D01*
X134869157Y-135293698D01*
X134823329Y-135004356D01*
X134822193Y-134993534D01*
X134816336Y-134881779D01*
X134805643Y-134677728D01*
X134805500Y-134672285D01*
X134805500Y-134560255D01*
X136154500Y-134560255D01*
X136154500Y-134789744D01*
X136184450Y-135017225D01*
X136184453Y-135017241D01*
X136243840Y-135238880D01*
X136243839Y-135238880D01*
X136274974Y-135314045D01*
X136331656Y-135450888D01*
X136446389Y-135649612D01*
X136586081Y-135831661D01*
X136748339Y-135993919D01*
X136930388Y-136133611D01*
X137129112Y-136248344D01*
X137341113Y-136336158D01*
X137341116Y-136336158D01*
X137341119Y-136336160D01*
X137406966Y-136353803D01*
X137562762Y-136395548D01*
X137691080Y-136412441D01*
X137790255Y-136425499D01*
X137790262Y-136425499D01*
X137790266Y-136425500D01*
X137790269Y-136425500D01*
X138019731Y-136425500D01*
X138019734Y-136425500D01*
X138019738Y-136425499D01*
X138019744Y-136425499D01*
X138089787Y-136416277D01*
X138247238Y-136395548D01*
X138468887Y-136336158D01*
X138680888Y-136248344D01*
X138879612Y-136133611D01*
X139061661Y-135993919D01*
X139223919Y-135831661D01*
X139363611Y-135649612D01*
X139478344Y-135450888D01*
X139566158Y-135238887D01*
X139625548Y-135017238D01*
X139655500Y-134789734D01*
X139655500Y-134560266D01*
X139655499Y-134560255D01*
X139651041Y-134526392D01*
X139649792Y-134516902D01*
X145829500Y-134516902D01*
X145829500Y-136283090D01*
X145829501Y-136283096D01*
X145845095Y-136381562D01*
X145845096Y-136381563D01*
X145845096Y-136381564D01*
X145905566Y-136500244D01*
X145999755Y-136594433D01*
X146110956Y-136651093D01*
X146118438Y-136654905D01*
X146216903Y-136670500D01*
X147983096Y-136670499D01*
X148081562Y-136654905D01*
X148200245Y-136594433D01*
X148294433Y-136500245D01*
X148354905Y-136381562D01*
X148370500Y-136283097D01*
X148370499Y-136134262D01*
X148390361Y-136073135D01*
X148442361Y-136035354D01*
X148506636Y-136035354D01*
X148558636Y-136073134D01*
X148670917Y-136227675D01*
X148812325Y-136369083D01*
X148974113Y-136486629D01*
X149152297Y-136577419D01*
X149342490Y-136639216D01*
X149540009Y-136670500D01*
X149540013Y-136670500D01*
X149739987Y-136670500D01*
X149739991Y-136670500D01*
X149937510Y-136639216D01*
X150127703Y-136577419D01*
X150305887Y-136486629D01*
X150467675Y-136369083D01*
X150609083Y-136227675D01*
X150726629Y-136065887D01*
X150772725Y-135975418D01*
X150818172Y-135929972D01*
X150881656Y-135919917D01*
X150938926Y-135949098D01*
X150958052Y-135975422D01*
X151025375Y-136107552D01*
X151025377Y-136107554D01*
X151150279Y-136279467D01*
X151300532Y-136429720D01*
X151472445Y-136554622D01*
X151472447Y-136554624D01*
X151661779Y-136651093D01*
X151661778Y-136651093D01*
X151863869Y-136716756D01*
X151930000Y-136727230D01*
X151930000Y-135833012D01*
X151987007Y-135865925D01*
X152114174Y-135900000D01*
X152245826Y-135900000D01*
X152372993Y-135865925D01*
X152430000Y-135833012D01*
X152430000Y-136727230D01*
X152496130Y-136716756D01*
X152698220Y-136651093D01*
X152887552Y-136554624D01*
X152887554Y-136554622D01*
X153059467Y-136429720D01*
X153209720Y-136279467D01*
X153334622Y-136107554D01*
X153334624Y-136107552D01*
X153431093Y-135918220D01*
X153496756Y-135716130D01*
X153507231Y-135650000D01*
X152613012Y-135650000D01*
X152645925Y-135592993D01*
X152680000Y-135465826D01*
X152680000Y-135334174D01*
X152645925Y-135207007D01*
X152613012Y-135150000D01*
X153507231Y-135150000D01*
X153496756Y-135083869D01*
X153431093Y-134881779D01*
X153334624Y-134692447D01*
X153334622Y-134692445D01*
X153280528Y-134617991D01*
X153238580Y-134560255D01*
X158954500Y-134560255D01*
X158954500Y-134789744D01*
X158984450Y-135017225D01*
X158984453Y-135017241D01*
X159043840Y-135238880D01*
X159043839Y-135238880D01*
X159074974Y-135314045D01*
X159131656Y-135450888D01*
X159246389Y-135649612D01*
X159386081Y-135831661D01*
X159548339Y-135993919D01*
X159730388Y-136133611D01*
X159929112Y-136248344D01*
X160141113Y-136336158D01*
X160141116Y-136336158D01*
X160141119Y-136336160D01*
X160206966Y-136353803D01*
X160362762Y-136395548D01*
X160491080Y-136412441D01*
X160590255Y-136425499D01*
X160590262Y-136425499D01*
X160590266Y-136425500D01*
X160590269Y-136425500D01*
X160819731Y-136425500D01*
X160819734Y-136425500D01*
X160819738Y-136425499D01*
X160819744Y-136425499D01*
X160889787Y-136416277D01*
X161047238Y-136395548D01*
X161268887Y-136336158D01*
X161480888Y-136248344D01*
X161679612Y-136133611D01*
X161861661Y-135993919D01*
X162023919Y-135831661D01*
X162163611Y-135649612D01*
X162278344Y-135450888D01*
X162366158Y-135238887D01*
X162425548Y-135017238D01*
X162455500Y-134789734D01*
X162455500Y-134560266D01*
X162451040Y-134526392D01*
X162438471Y-134430918D01*
X162425548Y-134332762D01*
X162366158Y-134111113D01*
X162278344Y-133899112D01*
X162163611Y-133700388D01*
X162023919Y-133518339D01*
X161861661Y-133356081D01*
X161679612Y-133216389D01*
X161480888Y-133101656D01*
X161268887Y-133013842D01*
X161268880Y-133013839D01*
X161080164Y-132963274D01*
X161047238Y-132954452D01*
X161047230Y-132954450D01*
X161047225Y-132954450D01*
X160819744Y-132924500D01*
X160819734Y-132924500D01*
X160590266Y-132924500D01*
X160590255Y-132924500D01*
X160362774Y-132954450D01*
X160362766Y-132954451D01*
X160362762Y-132954452D01*
X160362758Y-132954452D01*
X160362758Y-132954453D01*
X160141119Y-133013839D01*
X159929118Y-133101653D01*
X159929114Y-133101655D01*
X159730385Y-133216391D01*
X159548337Y-133356082D01*
X159386082Y-133518337D01*
X159246391Y-133700385D01*
X159131655Y-133899114D01*
X159131653Y-133899118D01*
X159043839Y-134111119D01*
X158984453Y-134332758D01*
X158984450Y-134332774D01*
X158954500Y-134560255D01*
X153238580Y-134560255D01*
X153209720Y-134520532D01*
X153059467Y-134370279D01*
X152887554Y-134245377D01*
X152887552Y-134245375D01*
X152698220Y-134148906D01*
X152698221Y-134148906D01*
X152496126Y-134083241D01*
X152430000Y-134072767D01*
X152430000Y-134966988D01*
X152372993Y-134934075D01*
X152245826Y-134900000D01*
X152114174Y-134900000D01*
X151987007Y-134934075D01*
X151930000Y-134966988D01*
X151930000Y-134072768D01*
X151929999Y-134072767D01*
X151863873Y-134083241D01*
X151661779Y-134148906D01*
X151472447Y-134245375D01*
X151472445Y-134245377D01*
X151300532Y-134370279D01*
X151150279Y-134520532D01*
X151025377Y-134692445D01*
X151025369Y-134692457D01*
X150958051Y-134824577D01*
X150912602Y-134870027D01*
X150849117Y-134880082D01*
X150791848Y-134850901D01*
X150772725Y-134824581D01*
X150726629Y-134734113D01*
X150609083Y-134572325D01*
X150467675Y-134430917D01*
X150305887Y-134313371D01*
X150305882Y-134313368D01*
X150305880Y-134313367D01*
X150127708Y-134222583D01*
X150127704Y-134222581D01*
X149937514Y-134160785D01*
X149937512Y-134160784D01*
X149937510Y-134160784D01*
X149739991Y-134129500D01*
X149540009Y-134129500D01*
X149540008Y-134129500D01*
X149454638Y-134143021D01*
X149342490Y-134160784D01*
X149342488Y-134160784D01*
X149342485Y-134160785D01*
X149152295Y-134222581D01*
X149152291Y-134222583D01*
X148974119Y-134313367D01*
X148974112Y-134313372D01*
X148812323Y-134430918D01*
X148670918Y-134572323D01*
X148637739Y-134617991D01*
X148558635Y-134726867D01*
X148506637Y-134764646D01*
X148442361Y-134764646D01*
X148390361Y-134726866D01*
X148370499Y-134665736D01*
X148370499Y-134516909D01*
X148370499Y-134516904D01*
X148354905Y-134418438D01*
X148294433Y-134299755D01*
X148200245Y-134205567D01*
X148200244Y-134205566D01*
X148081563Y-134145095D01*
X148048740Y-134139896D01*
X147983097Y-134129500D01*
X147983095Y-134129500D01*
X146216909Y-134129500D01*
X146216901Y-134129501D01*
X146176515Y-134135897D01*
X146118438Y-134145095D01*
X146118436Y-134145096D01*
X146118435Y-134145096D01*
X145999755Y-134205566D01*
X145905566Y-134299755D01*
X145845095Y-134418436D01*
X145829500Y-134516902D01*
X139649792Y-134516902D01*
X139630487Y-134370279D01*
X139625548Y-134332762D01*
X139566158Y-134111113D01*
X139478344Y-133899112D01*
X139363611Y-133700388D01*
X139223919Y-133518339D01*
X139061661Y-133356081D01*
X138879612Y-133216389D01*
X138680888Y-133101656D01*
X138468887Y-133013842D01*
X138468880Y-133013839D01*
X138280164Y-132963274D01*
X138247238Y-132954452D01*
X138247230Y-132954450D01*
X138247225Y-132954450D01*
X138019744Y-132924500D01*
X138019734Y-132924500D01*
X137790266Y-132924500D01*
X137790255Y-132924500D01*
X137562774Y-132954450D01*
X137562766Y-132954451D01*
X137562762Y-132954452D01*
X137562758Y-132954452D01*
X137562758Y-132954453D01*
X137341119Y-133013839D01*
X137129118Y-133101653D01*
X137129114Y-133101655D01*
X136930385Y-133216391D01*
X136748337Y-133356082D01*
X136586082Y-133518337D01*
X136446391Y-133700385D01*
X136331655Y-133899114D01*
X136331653Y-133899118D01*
X136243839Y-134111119D01*
X136184453Y-134332758D01*
X136184450Y-134332774D01*
X136154500Y-134560255D01*
X134805500Y-134560255D01*
X134805500Y-89065000D01*
X135037769Y-89065000D01*
X135931988Y-89065000D01*
X135899075Y-89122007D01*
X135865000Y-89249174D01*
X135865000Y-89380826D01*
X135899075Y-89507993D01*
X135931988Y-89565000D01*
X135037769Y-89565000D01*
X135048243Y-89631130D01*
X135113906Y-89833220D01*
X135210375Y-90022552D01*
X135210377Y-90022554D01*
X135335279Y-90194467D01*
X135485532Y-90344720D01*
X135657445Y-90469622D01*
X135657447Y-90469624D01*
X135789577Y-90536947D01*
X135835027Y-90582397D01*
X135845082Y-90645881D01*
X135815901Y-90703151D01*
X135789578Y-90722276D01*
X135699119Y-90768367D01*
X135699112Y-90768372D01*
X135537323Y-90885918D01*
X135395918Y-91027323D01*
X135278372Y-91189112D01*
X135278367Y-91189119D01*
X135187583Y-91367291D01*
X135187581Y-91367295D01*
X135125785Y-91557485D01*
X135094500Y-91755008D01*
X135094500Y-91954991D01*
X135125785Y-92152514D01*
X135187581Y-92342704D01*
X135187583Y-92342708D01*
X135278367Y-92520880D01*
X135278371Y-92520887D01*
X135395917Y-92682675D01*
X135537325Y-92824083D01*
X135699113Y-92941629D01*
X135789579Y-92987724D01*
X135835027Y-93033172D01*
X135845082Y-93096656D01*
X135815901Y-93153926D01*
X135789577Y-93173051D01*
X135657457Y-93240369D01*
X135657445Y-93240377D01*
X135485532Y-93365279D01*
X135335279Y-93515532D01*
X135210377Y-93687445D01*
X135210375Y-93687447D01*
X135113906Y-93876779D01*
X135048243Y-94078869D01*
X135037769Y-94145000D01*
X135931988Y-94145000D01*
X135899075Y-94202007D01*
X135865000Y-94329174D01*
X135865000Y-94460826D01*
X135899075Y-94587993D01*
X135931988Y-94645000D01*
X135037769Y-94645000D01*
X135048243Y-94711130D01*
X135113906Y-94913220D01*
X135210375Y-95102552D01*
X135210377Y-95102554D01*
X135335279Y-95274467D01*
X135485532Y-95424720D01*
X135657445Y-95549622D01*
X135657447Y-95549624D01*
X135789577Y-95616947D01*
X135835027Y-95662397D01*
X135845082Y-95725881D01*
X135815901Y-95783151D01*
X135789578Y-95802276D01*
X135699119Y-95848367D01*
X135699112Y-95848372D01*
X135537323Y-95965918D01*
X135395918Y-96107323D01*
X135278372Y-96269112D01*
X135278367Y-96269119D01*
X135187583Y-96447291D01*
X135187581Y-96447295D01*
X135125785Y-96637485D01*
X135094500Y-96835008D01*
X135094500Y-97034991D01*
X135125785Y-97232514D01*
X135187581Y-97422704D01*
X135187583Y-97422708D01*
X135278367Y-97600880D01*
X135278371Y-97600887D01*
X135395917Y-97762675D01*
X135537325Y-97904083D01*
X135699113Y-98021629D01*
X135699119Y-98021632D01*
X135877133Y-98112336D01*
X135922582Y-98157786D01*
X135932636Y-98221270D01*
X135903456Y-98278540D01*
X135877133Y-98297664D01*
X135699119Y-98388367D01*
X135699112Y-98388372D01*
X135537323Y-98505918D01*
X135395918Y-98647323D01*
X135395917Y-98647325D01*
X135278371Y-98809113D01*
X135278370Y-98809114D01*
X135278367Y-98809119D01*
X135187583Y-98987291D01*
X135187581Y-98987295D01*
X135125785Y-99177485D01*
X135125784Y-99177488D01*
X135125784Y-99177490D01*
X135094500Y-99375009D01*
X135094500Y-99574991D01*
X135115113Y-99705138D01*
X135125785Y-99772514D01*
X135187581Y-99962704D01*
X135187583Y-99962708D01*
X135232276Y-100050422D01*
X135278371Y-100140887D01*
X135395917Y-100302675D01*
X135537325Y-100444083D01*
X135699113Y-100561629D01*
X135699119Y-100561632D01*
X135877133Y-100652336D01*
X135922582Y-100697786D01*
X135932636Y-100761270D01*
X135903456Y-100818540D01*
X135877133Y-100837664D01*
X135699119Y-100928367D01*
X135699112Y-100928372D01*
X135537323Y-101045918D01*
X135395918Y-101187323D01*
X135278372Y-101349112D01*
X135278367Y-101349119D01*
X135187583Y-101527291D01*
X135187581Y-101527295D01*
X135125785Y-101717485D01*
X135125784Y-101717488D01*
X135125784Y-101717490D01*
X135094500Y-101915009D01*
X135094500Y-102114991D01*
X135104592Y-102178712D01*
X135125785Y-102312514D01*
X135187581Y-102502704D01*
X135187583Y-102502708D01*
X135278367Y-102680880D01*
X135278371Y-102680887D01*
X135395917Y-102842675D01*
X135537325Y-102984083D01*
X135699113Y-103101629D01*
X135699119Y-103101632D01*
X135877133Y-103192336D01*
X135922582Y-103237786D01*
X135932636Y-103301270D01*
X135903456Y-103358540D01*
X135877133Y-103377664D01*
X135699119Y-103468367D01*
X135699112Y-103468372D01*
X135537323Y-103585918D01*
X135395918Y-103727323D01*
X135278372Y-103889112D01*
X135278367Y-103889119D01*
X135187583Y-104067291D01*
X135187581Y-104067295D01*
X135125785Y-104257485D01*
X135094500Y-104455008D01*
X135094500Y-104654991D01*
X135125785Y-104852514D01*
X135187581Y-105042704D01*
X135187583Y-105042708D01*
X135278367Y-105220880D01*
X135278371Y-105220887D01*
X135395917Y-105382675D01*
X135537325Y-105524083D01*
X135699113Y-105641629D01*
X135789579Y-105687724D01*
X135835027Y-105733172D01*
X135845082Y-105796656D01*
X135815901Y-105853926D01*
X135789577Y-105873051D01*
X135657457Y-105940369D01*
X135657445Y-105940377D01*
X135485532Y-106065279D01*
X135335279Y-106215532D01*
X135210377Y-106387445D01*
X135210375Y-106387447D01*
X135113906Y-106576779D01*
X135048243Y-106778869D01*
X135037769Y-106845000D01*
X135931988Y-106845000D01*
X135899075Y-106902007D01*
X135865000Y-107029174D01*
X135865000Y-107160826D01*
X135899075Y-107287993D01*
X135931988Y-107345000D01*
X135037769Y-107345000D01*
X135048243Y-107411130D01*
X135113906Y-107613220D01*
X135210375Y-107802552D01*
X135210377Y-107802554D01*
X135335279Y-107974467D01*
X135485532Y-108124720D01*
X135657445Y-108249622D01*
X135657447Y-108249624D01*
X135789577Y-108316947D01*
X135835027Y-108362397D01*
X135845082Y-108425881D01*
X135815901Y-108483151D01*
X135789578Y-108502276D01*
X135699119Y-108548367D01*
X135699114Y-108548370D01*
X135699113Y-108548371D01*
X135671496Y-108568436D01*
X135537323Y-108665918D01*
X135395918Y-108807323D01*
X135278372Y-108969112D01*
X135278367Y-108969119D01*
X135187583Y-109147291D01*
X135187581Y-109147295D01*
X135125785Y-109337485D01*
X135125784Y-109337488D01*
X135125784Y-109337490D01*
X135094500Y-109535009D01*
X135094500Y-109734991D01*
X135125234Y-109929040D01*
X135125785Y-109932514D01*
X135187581Y-110122704D01*
X135187583Y-110122708D01*
X135278367Y-110300880D01*
X135278371Y-110300887D01*
X135395917Y-110462675D01*
X135537325Y-110604083D01*
X135699113Y-110721629D01*
X135699119Y-110721632D01*
X135877133Y-110812336D01*
X135922582Y-110857786D01*
X135932636Y-110921270D01*
X135903456Y-110978540D01*
X135877133Y-110997664D01*
X135699119Y-111088367D01*
X135699112Y-111088372D01*
X135537323Y-111205918D01*
X135395918Y-111347323D01*
X135278372Y-111509112D01*
X135278367Y-111509119D01*
X135187583Y-111687291D01*
X135187581Y-111687295D01*
X135125785Y-111877485D01*
X135094500Y-112075008D01*
X135094500Y-112274991D01*
X135125785Y-112472514D01*
X135187581Y-112662704D01*
X135187583Y-112662708D01*
X135278367Y-112840880D01*
X135278371Y-112840887D01*
X135395917Y-113002675D01*
X135537325Y-113144083D01*
X135699113Y-113261629D01*
X135789579Y-113307724D01*
X135835027Y-113353172D01*
X135845082Y-113416656D01*
X135815901Y-113473926D01*
X135789577Y-113493051D01*
X135657457Y-113560369D01*
X135657445Y-113560377D01*
X135485532Y-113685279D01*
X135335279Y-113835532D01*
X135210377Y-114007445D01*
X135210375Y-114007447D01*
X135113906Y-114196779D01*
X135048243Y-114398869D01*
X135037769Y-114465000D01*
X135931988Y-114465000D01*
X135899075Y-114522007D01*
X135865000Y-114649174D01*
X135865000Y-114780826D01*
X135899075Y-114907993D01*
X135931988Y-114965000D01*
X135037769Y-114965000D01*
X135048243Y-115031130D01*
X135113906Y-115233220D01*
X135210375Y-115422552D01*
X135210377Y-115422554D01*
X135335279Y-115594467D01*
X135485532Y-115744720D01*
X135657445Y-115869622D01*
X135657447Y-115869624D01*
X135789577Y-115936947D01*
X135835027Y-115982397D01*
X135845082Y-116045881D01*
X135815901Y-116103151D01*
X135789578Y-116122276D01*
X135699119Y-116168367D01*
X135699112Y-116168372D01*
X135537323Y-116285918D01*
X135395918Y-116427323D01*
X135278372Y-116589112D01*
X135278367Y-116589119D01*
X135187583Y-116767291D01*
X135187581Y-116767295D01*
X135125785Y-116957485D01*
X135094500Y-117155008D01*
X135094500Y-117354991D01*
X135125785Y-117552514D01*
X135187581Y-117742704D01*
X135187583Y-117742708D01*
X135278367Y-117920880D01*
X135278371Y-117920887D01*
X135395917Y-118082675D01*
X135537325Y-118224083D01*
X135699113Y-118341629D01*
X135699119Y-118341632D01*
X135877133Y-118432336D01*
X135922582Y-118477786D01*
X135932636Y-118541270D01*
X135903456Y-118598540D01*
X135877133Y-118617664D01*
X135699119Y-118708367D01*
X135699112Y-118708372D01*
X135537323Y-118825918D01*
X135395918Y-118967323D01*
X135322614Y-119068217D01*
X135278371Y-119129113D01*
X135278370Y-119129114D01*
X135278367Y-119129119D01*
X135187583Y-119307291D01*
X135187581Y-119307295D01*
X135125785Y-119497485D01*
X135125784Y-119497488D01*
X135125784Y-119497490D01*
X135094500Y-119695009D01*
X135094500Y-119894991D01*
X135115113Y-120025138D01*
X135125785Y-120092514D01*
X135187581Y-120282704D01*
X135187583Y-120282708D01*
X135232276Y-120370422D01*
X135278371Y-120460887D01*
X135395917Y-120622675D01*
X135537325Y-120764083D01*
X135699113Y-120881629D01*
X135699119Y-120881632D01*
X135877133Y-120972336D01*
X135922582Y-121017786D01*
X135932636Y-121081270D01*
X135903456Y-121138540D01*
X135877133Y-121157664D01*
X135699119Y-121248367D01*
X135699112Y-121248372D01*
X135537323Y-121365918D01*
X135395918Y-121507323D01*
X135322614Y-121608217D01*
X135317020Y-121615918D01*
X135278372Y-121669112D01*
X135278367Y-121669119D01*
X135187583Y-121847291D01*
X135187581Y-121847295D01*
X135125785Y-122037485D01*
X135125784Y-122037488D01*
X135125784Y-122037490D01*
X135094500Y-122235009D01*
X135094500Y-122434991D01*
X135125691Y-122631925D01*
X135125785Y-122632514D01*
X135187581Y-122822704D01*
X135187583Y-122822708D01*
X135278367Y-123000880D01*
X135278371Y-123000887D01*
X135395917Y-123162675D01*
X135537325Y-123304083D01*
X135699113Y-123421629D01*
X135789579Y-123467724D01*
X135835027Y-123513172D01*
X135845082Y-123576656D01*
X135815901Y-123633926D01*
X135789577Y-123653051D01*
X135657457Y-123720369D01*
X135657445Y-123720377D01*
X135485532Y-123845279D01*
X135335279Y-123995532D01*
X135210377Y-124167445D01*
X135210375Y-124167447D01*
X135113906Y-124356779D01*
X135048243Y-124558869D01*
X135037769Y-124625000D01*
X135931988Y-124625000D01*
X135899075Y-124682007D01*
X135865000Y-124809174D01*
X135865000Y-124940826D01*
X135899075Y-125067993D01*
X135931988Y-125125000D01*
X135037769Y-125125000D01*
X135048243Y-125191130D01*
X135113906Y-125393220D01*
X135210375Y-125582552D01*
X135210377Y-125582554D01*
X135335279Y-125754467D01*
X135485532Y-125904720D01*
X135657445Y-126029622D01*
X135657447Y-126029624D01*
X135789577Y-126096947D01*
X135835027Y-126142397D01*
X135845082Y-126205881D01*
X135815901Y-126263151D01*
X135789578Y-126282276D01*
X135699119Y-126328367D01*
X135699112Y-126328372D01*
X135537323Y-126445918D01*
X135395918Y-126587323D01*
X135278372Y-126749112D01*
X135278367Y-126749119D01*
X135187583Y-126927291D01*
X135187581Y-126927295D01*
X135125785Y-127117485D01*
X135094500Y-127315008D01*
X135094500Y-127514991D01*
X135125785Y-127712514D01*
X135187581Y-127902704D01*
X135187583Y-127902708D01*
X135278367Y-128080880D01*
X135278371Y-128080887D01*
X135395917Y-128242675D01*
X135537325Y-128384083D01*
X135699113Y-128501629D01*
X135699119Y-128501632D01*
X135877133Y-128592336D01*
X135922582Y-128637786D01*
X135932636Y-128701270D01*
X135903456Y-128758540D01*
X135877133Y-128777664D01*
X135699119Y-128868367D01*
X135699112Y-128868372D01*
X135537323Y-128985918D01*
X135395918Y-129127323D01*
X135278372Y-129289112D01*
X135278367Y-129289119D01*
X135187583Y-129467291D01*
X135187581Y-129467295D01*
X135125785Y-129657485D01*
X135094500Y-129855008D01*
X135094500Y-130054991D01*
X135125785Y-130252514D01*
X135187581Y-130442704D01*
X135187583Y-130442708D01*
X135278367Y-130620880D01*
X135278371Y-130620887D01*
X135395917Y-130782675D01*
X135537325Y-130924083D01*
X135699113Y-131041629D01*
X135877297Y-131132419D01*
X136067490Y-131194216D01*
X136265009Y-131225500D01*
X136265013Y-131225500D01*
X136464987Y-131225500D01*
X136464991Y-131225500D01*
X136662510Y-131194216D01*
X136852703Y-131132419D01*
X137030887Y-131041629D01*
X137192675Y-130924083D01*
X137334083Y-130782675D01*
X137451629Y-130620887D01*
X137468537Y-130587703D01*
X137542336Y-130442867D01*
X137587785Y-130397417D01*
X137651270Y-130387362D01*
X137708539Y-130416543D01*
X137727664Y-130442867D01*
X137818364Y-130620875D01*
X137818367Y-130620880D01*
X137818371Y-130620887D01*
X137935917Y-130782675D01*
X138077325Y-130924083D01*
X138239113Y-131041629D01*
X138417297Y-131132419D01*
X138607490Y-131194216D01*
X138805009Y-131225500D01*
X138805013Y-131225500D01*
X139004987Y-131225500D01*
X139004991Y-131225500D01*
X139202510Y-131194216D01*
X139392703Y-131132419D01*
X139570887Y-131041629D01*
X139732675Y-130924083D01*
X139874083Y-130782675D01*
X139991629Y-130620887D01*
X140082419Y-130442703D01*
X140144216Y-130252510D01*
X140175500Y-130054991D01*
X140175500Y-129855009D01*
X140144216Y-129657490D01*
X140082419Y-129467297D01*
X139991629Y-129289113D01*
X139874083Y-129127325D01*
X139732675Y-128985917D01*
X139570887Y-128868371D01*
X139570880Y-128868367D01*
X139570875Y-128868364D01*
X139392867Y-128777664D01*
X139347417Y-128732215D01*
X139337362Y-128668730D01*
X139366543Y-128611461D01*
X139392867Y-128592336D01*
X139570875Y-128501635D01*
X139570874Y-128501635D01*
X139570887Y-128501629D01*
X139732675Y-128384083D01*
X139874083Y-128242675D01*
X139991629Y-128080887D01*
X140082419Y-127902703D01*
X140144216Y-127712510D01*
X140175500Y-127514991D01*
X140175500Y-127315009D01*
X140144216Y-127117490D01*
X140082419Y-126927297D01*
X139991629Y-126749113D01*
X139939165Y-126676902D01*
X145829500Y-126676902D01*
X145829500Y-128443090D01*
X145829501Y-128443096D01*
X145845095Y-128541562D01*
X145845096Y-128541563D01*
X145845096Y-128541564D01*
X145894123Y-128637786D01*
X145905567Y-128660245D01*
X145999755Y-128754433D01*
X146118438Y-128814905D01*
X146216903Y-128830500D01*
X146365736Y-128830499D01*
X146426864Y-128850361D01*
X146464645Y-128902361D01*
X146464645Y-128966636D01*
X146426865Y-129018636D01*
X146426865Y-129018637D01*
X146272323Y-129130918D01*
X146130918Y-129272323D01*
X146013372Y-129434112D01*
X146013367Y-129434119D01*
X145922583Y-129612291D01*
X145922581Y-129612295D01*
X145860785Y-129802485D01*
X145860784Y-129802488D01*
X145860784Y-129802490D01*
X145829500Y-130000009D01*
X145829500Y-130199991D01*
X145860769Y-130397417D01*
X145860785Y-130397514D01*
X145922581Y-130587704D01*
X145922583Y-130587708D01*
X145939489Y-130620887D01*
X146013371Y-130765887D01*
X146130917Y-130927675D01*
X146272325Y-131069083D01*
X146434113Y-131186629D01*
X146612297Y-131277419D01*
X146802490Y-131339216D01*
X147000009Y-131370500D01*
X147000013Y-131370500D01*
X147199987Y-131370500D01*
X147199991Y-131370500D01*
X147397510Y-131339216D01*
X147587703Y-131277419D01*
X147765887Y-131186629D01*
X147927675Y-131069083D01*
X148069083Y-130927675D01*
X148186629Y-130765887D01*
X148277419Y-130587703D01*
X148339216Y-130397510D01*
X148370500Y-130199991D01*
X148370500Y-130000009D01*
X148339216Y-129802490D01*
X148277419Y-129612297D01*
X148186629Y-129434113D01*
X148069083Y-129272325D01*
X147927675Y-129130917D01*
X147773132Y-129018635D01*
X147735354Y-128966637D01*
X147735354Y-128902361D01*
X147773134Y-128850361D01*
X147834264Y-128830499D01*
X147983091Y-128830499D01*
X147983096Y-128830499D01*
X148081562Y-128814905D01*
X148200245Y-128754433D01*
X148294433Y-128660245D01*
X148354905Y-128541562D01*
X148370500Y-128443097D01*
X148370499Y-126676904D01*
X148354905Y-126578438D01*
X148294433Y-126459755D01*
X148200245Y-126365567D01*
X148200244Y-126365566D01*
X148081563Y-126305095D01*
X148048740Y-126299896D01*
X147983097Y-126289500D01*
X147983095Y-126289500D01*
X146216909Y-126289500D01*
X146216901Y-126289501D01*
X146176515Y-126295897D01*
X146118438Y-126305095D01*
X146118436Y-126305096D01*
X146118435Y-126305096D01*
X145999755Y-126365566D01*
X145905566Y-126459755D01*
X145845095Y-126578436D01*
X145829500Y-126676902D01*
X139939165Y-126676902D01*
X139874083Y-126587325D01*
X139732675Y-126445917D01*
X139570887Y-126328371D01*
X139570880Y-126328367D01*
X139570875Y-126328364D01*
X139392867Y-126237664D01*
X139347417Y-126192215D01*
X139337362Y-126128730D01*
X139366543Y-126071461D01*
X139392867Y-126052336D01*
X139570875Y-125961635D01*
X139570874Y-125961635D01*
X139570887Y-125961629D01*
X139732675Y-125844083D01*
X139874083Y-125702675D01*
X139991629Y-125540887D01*
X140082419Y-125362703D01*
X140144216Y-125172510D01*
X140175500Y-124974991D01*
X140175500Y-124775009D01*
X140144216Y-124577490D01*
X140082419Y-124387297D01*
X139991629Y-124209113D01*
X139874083Y-124047325D01*
X139732675Y-123905917D01*
X139570887Y-123788371D01*
X139570880Y-123788367D01*
X139570875Y-123788364D01*
X139392867Y-123697664D01*
X139347417Y-123652215D01*
X139337362Y-123588730D01*
X139366543Y-123531461D01*
X139392867Y-123512336D01*
X139570875Y-123421635D01*
X139570874Y-123421635D01*
X139570887Y-123421629D01*
X139732675Y-123304083D01*
X139874083Y-123162675D01*
X139991629Y-123000887D01*
X140082419Y-122822703D01*
X140144216Y-122632510D01*
X140175500Y-122434991D01*
X140175500Y-122235009D01*
X140144216Y-122037490D01*
X140082419Y-121847297D01*
X139991629Y-121669113D01*
X139874083Y-121507325D01*
X139732675Y-121365917D01*
X139570887Y-121248371D01*
X139570880Y-121248367D01*
X139570875Y-121248364D01*
X139480422Y-121202276D01*
X139434972Y-121156827D01*
X139424917Y-121093342D01*
X139454098Y-121036073D01*
X139480422Y-121016947D01*
X139612552Y-120949623D01*
X139612554Y-120949622D01*
X139784467Y-120824720D01*
X139934720Y-120674467D01*
X140059622Y-120502554D01*
X140059624Y-120502552D01*
X140156093Y-120313220D01*
X140221756Y-120111130D01*
X140232231Y-120045000D01*
X139338012Y-120045000D01*
X139370925Y-119987993D01*
X139405000Y-119860826D01*
X139405000Y-119729174D01*
X139370925Y-119602007D01*
X139338012Y-119545000D01*
X140232231Y-119545000D01*
X140221756Y-119478869D01*
X140156093Y-119276779D01*
X140059624Y-119087447D01*
X140059622Y-119087445D01*
X139934720Y-118915532D01*
X139784467Y-118765279D01*
X139622376Y-118647513D01*
X139479331Y-118572488D01*
X139471077Y-118564037D01*
X141364500Y-118564037D01*
X141364500Y-118705963D01*
X141376299Y-118765279D01*
X141392188Y-118845159D01*
X141446502Y-118976287D01*
X141525347Y-119094287D01*
X141525349Y-119094290D01*
X141525351Y-119094292D01*
X141625708Y-119194649D01*
X141743715Y-119273499D01*
X141874838Y-119327811D01*
X142008074Y-119354314D01*
X142061323Y-119382776D01*
X145257223Y-122578676D01*
X145285686Y-122631925D01*
X145312188Y-122765160D01*
X145366502Y-122896287D01*
X145445347Y-123014287D01*
X145445349Y-123014290D01*
X145445351Y-123014292D01*
X145545708Y-123114649D01*
X145663715Y-123193499D01*
X145794838Y-123247811D01*
X145934037Y-123275500D01*
X145934040Y-123275500D01*
X146075960Y-123275500D01*
X146075963Y-123275500D01*
X146215162Y-123247811D01*
X146346285Y-123193499D01*
X146464292Y-123114649D01*
X146564649Y-123014292D01*
X146643499Y-122896285D01*
X146697811Y-122765162D01*
X146725500Y-122625963D01*
X146725500Y-122484037D01*
X146697811Y-122344838D01*
X146643499Y-122213715D01*
X146564649Y-122095708D01*
X146464292Y-121995351D01*
X146464290Y-121995349D01*
X146464287Y-121995347D01*
X146346287Y-121916502D01*
X146290421Y-121893362D01*
X146280723Y-121889345D01*
X146215160Y-121862188D01*
X146081925Y-121835686D01*
X146028676Y-121807223D01*
X144881462Y-120660009D01*
X152129500Y-120660009D01*
X152129500Y-120859991D01*
X152160259Y-121054198D01*
X152160785Y-121057514D01*
X152222581Y-121247704D01*
X152222583Y-121247708D01*
X152282815Y-121365918D01*
X152313371Y-121425887D01*
X152430917Y-121587675D01*
X152572325Y-121729083D01*
X152726866Y-121841364D01*
X152764646Y-121893362D01*
X152764646Y-121957637D01*
X152726866Y-122009638D01*
X152665737Y-122029500D01*
X152516909Y-122029500D01*
X152516901Y-122029501D01*
X152476515Y-122035897D01*
X152418438Y-122045095D01*
X152418436Y-122045096D01*
X152418435Y-122045096D01*
X152299755Y-122105566D01*
X152205566Y-122199755D01*
X152145095Y-122318436D01*
X152129500Y-122416902D01*
X152129500Y-124183090D01*
X152129501Y-124183096D01*
X152145095Y-124281562D01*
X152145096Y-124281563D01*
X152145096Y-124281564D01*
X152198969Y-124387297D01*
X152205567Y-124400245D01*
X152299755Y-124494433D01*
X152418438Y-124554905D01*
X152516903Y-124570500D01*
X154283096Y-124570499D01*
X154381562Y-124554905D01*
X154500245Y-124494433D01*
X154594433Y-124400245D01*
X154654905Y-124281562D01*
X154670500Y-124183097D01*
X154670499Y-123249999D01*
X159414015Y-123249999D01*
X159414015Y-123250000D01*
X160455440Y-123250000D01*
X160424755Y-123303147D01*
X160390000Y-123432857D01*
X160390000Y-123567143D01*
X160424755Y-123696853D01*
X160455440Y-123750000D01*
X159414015Y-123750000D01*
X159420778Y-123792708D01*
X159420779Y-123792710D01*
X159481580Y-123979833D01*
X159481582Y-123979839D01*
X159570899Y-124155135D01*
X159686552Y-124314318D01*
X159825681Y-124453447D01*
X159984864Y-124569100D01*
X160160160Y-124658417D01*
X160160166Y-124658419D01*
X160347284Y-124719219D01*
X160541622Y-124749999D01*
X160541627Y-124750000D01*
X160650000Y-124750000D01*
X160650000Y-123944560D01*
X160703147Y-123975245D01*
X160832857Y-124010000D01*
X160967143Y-124010000D01*
X161096853Y-123975245D01*
X161150000Y-123944560D01*
X161150000Y-124750000D01*
X161258373Y-124750000D01*
X161258377Y-124749999D01*
X161452715Y-124719219D01*
X161639833Y-124658419D01*
X161639839Y-124658417D01*
X161815135Y-124569100D01*
X161974318Y-124453447D01*
X162113447Y-124314318D01*
X162229100Y-124155135D01*
X162318417Y-123979839D01*
X162318419Y-123979833D01*
X162379220Y-123792710D01*
X162379221Y-123792708D01*
X162385984Y-123750000D01*
X161344560Y-123750000D01*
X161375245Y-123696853D01*
X161410000Y-123567143D01*
X161410000Y-123432857D01*
X161375245Y-123303147D01*
X161344560Y-123250000D01*
X162385985Y-123250000D01*
X162385984Y-123249999D01*
X162379221Y-123207291D01*
X162379220Y-123207289D01*
X162318419Y-123020166D01*
X162318417Y-123020160D01*
X162229100Y-122844864D01*
X162113447Y-122685681D01*
X161974318Y-122546552D01*
X161815135Y-122430899D01*
X161639839Y-122341582D01*
X161639833Y-122341580D01*
X161452715Y-122280780D01*
X161258377Y-122250000D01*
X161150000Y-122250000D01*
X161150000Y-123055439D01*
X161096853Y-123024755D01*
X160967143Y-122990000D01*
X160832857Y-122990000D01*
X160703147Y-123024755D01*
X160650000Y-123055439D01*
X160650000Y-122250000D01*
X160541622Y-122250000D01*
X160347284Y-122280780D01*
X160160166Y-122341580D01*
X160160160Y-122341582D01*
X159984864Y-122430899D01*
X159825681Y-122546552D01*
X159686552Y-122685681D01*
X159570899Y-122844864D01*
X159481582Y-123020160D01*
X159481580Y-123020166D01*
X159420779Y-123207289D01*
X159420778Y-123207291D01*
X159414015Y-123249999D01*
X154670499Y-123249999D01*
X154670499Y-122416904D01*
X154654905Y-122318438D01*
X154594433Y-122199755D01*
X154500245Y-122105567D01*
X154500244Y-122105566D01*
X154381563Y-122045095D01*
X154283097Y-122029500D01*
X154134265Y-122029500D01*
X154073135Y-122009638D01*
X154035355Y-121957638D01*
X154035355Y-121893362D01*
X154073133Y-121841364D01*
X154227675Y-121729083D01*
X154369083Y-121587675D01*
X154486629Y-121425887D01*
X154577419Y-121247703D01*
X154639216Y-121057510D01*
X154670500Y-120859991D01*
X154670500Y-120660009D01*
X154639216Y-120462490D01*
X154577419Y-120272297D01*
X154486629Y-120094113D01*
X154378874Y-119945801D01*
X159469500Y-119945801D01*
X159469500Y-121054198D01*
X159475638Y-121121743D01*
X159475638Y-121121745D01*
X159475639Y-121121748D01*
X159515097Y-121248372D01*
X159524081Y-121277204D01*
X159608315Y-121416545D01*
X159723454Y-121531684D01*
X159816075Y-121587675D01*
X159862798Y-121615920D01*
X160018252Y-121664361D01*
X160085806Y-121670500D01*
X160085817Y-121670500D01*
X161714183Y-121670500D01*
X161714194Y-121670500D01*
X161781748Y-121664361D01*
X161937202Y-121615920D01*
X162076547Y-121531683D01*
X162191683Y-121416547D01*
X162275920Y-121277202D01*
X162324361Y-121121748D01*
X162330500Y-121054194D01*
X162330500Y-119945806D01*
X162324361Y-119878252D01*
X162275920Y-119722798D01*
X162231308Y-119649000D01*
X162191684Y-119583454D01*
X162076545Y-119468315D01*
X161937204Y-119384081D01*
X161937203Y-119384080D01*
X161937202Y-119384080D01*
X161781748Y-119335639D01*
X161781745Y-119335638D01*
X161781743Y-119335638D01*
X161714198Y-119329500D01*
X161714194Y-119329500D01*
X160085806Y-119329500D01*
X160085801Y-119329500D01*
X160018256Y-119335638D01*
X160018252Y-119335638D01*
X160018252Y-119335639D01*
X160018249Y-119335640D01*
X159862795Y-119384081D01*
X159723454Y-119468315D01*
X159608315Y-119583454D01*
X159524081Y-119722795D01*
X159524080Y-119722797D01*
X159524080Y-119722798D01*
X159502854Y-119790917D01*
X159475640Y-119878249D01*
X159475638Y-119878256D01*
X159469500Y-119945801D01*
X154378874Y-119945801D01*
X154369083Y-119932325D01*
X154227675Y-119790917D01*
X154065887Y-119673371D01*
X154065882Y-119673368D01*
X154065880Y-119673367D01*
X153887708Y-119582583D01*
X153887704Y-119582581D01*
X153697514Y-119520785D01*
X153697512Y-119520784D01*
X153697510Y-119520784D01*
X153499991Y-119489500D01*
X153300009Y-119489500D01*
X153300008Y-119489500D01*
X153249562Y-119497490D01*
X153102490Y-119520784D01*
X153102488Y-119520784D01*
X153102485Y-119520785D01*
X152912295Y-119582581D01*
X152912291Y-119582583D01*
X152734119Y-119673367D01*
X152734112Y-119673372D01*
X152572323Y-119790918D01*
X152430918Y-119932323D01*
X152313372Y-120094112D01*
X152313367Y-120094119D01*
X152222583Y-120272291D01*
X152222581Y-120272295D01*
X152160785Y-120462485D01*
X152160784Y-120462488D01*
X152160784Y-120462490D01*
X152129500Y-120660009D01*
X144881462Y-120660009D01*
X142832776Y-118611323D01*
X142804314Y-118558074D01*
X142777811Y-118424838D01*
X142723499Y-118293715D01*
X142652738Y-118187814D01*
X142644652Y-118175712D01*
X142644650Y-118175710D01*
X142644649Y-118175708D01*
X142544292Y-118075351D01*
X142544290Y-118075349D01*
X142544287Y-118075347D01*
X142426287Y-117996502D01*
X142335190Y-117958769D01*
X142295162Y-117942189D01*
X142295160Y-117942188D01*
X142295159Y-117942188D01*
X142239027Y-117931022D01*
X142155963Y-117914500D01*
X142014037Y-117914500D01*
X141944754Y-117928281D01*
X141874840Y-117942188D01*
X141743712Y-117996502D01*
X141625712Y-118075347D01*
X141625704Y-118075354D01*
X141525354Y-118175704D01*
X141525347Y-118175712D01*
X141446502Y-118293712D01*
X141392188Y-118424840D01*
X141378170Y-118495313D01*
X141364500Y-118564037D01*
X139471077Y-118564037D01*
X139457273Y-118549903D01*
X139434972Y-118527602D01*
X139434871Y-118526966D01*
X139434421Y-118526505D01*
X139429857Y-118495313D01*
X139424917Y-118464118D01*
X139425210Y-118463542D01*
X139425117Y-118462906D01*
X139439768Y-118434971D01*
X139454098Y-118406848D01*
X139454777Y-118406354D01*
X139454971Y-118405985D01*
X139455957Y-118405496D01*
X139480414Y-118387727D01*
X139570887Y-118341629D01*
X139732675Y-118224083D01*
X139874083Y-118082675D01*
X139991629Y-117920887D01*
X140082419Y-117742703D01*
X140144216Y-117552510D01*
X140175500Y-117354991D01*
X140175500Y-117155009D01*
X140144216Y-116957490D01*
X140082419Y-116767297D01*
X139991629Y-116589113D01*
X139874083Y-116427325D01*
X139732675Y-116285917D01*
X139570887Y-116168371D01*
X139570880Y-116168367D01*
X139570875Y-116168364D01*
X139392867Y-116077664D01*
X139347417Y-116032215D01*
X139337362Y-115968730D01*
X139366543Y-115911461D01*
X139392867Y-115892336D01*
X139570875Y-115801635D01*
X139570874Y-115801635D01*
X139570887Y-115801629D01*
X139732675Y-115684083D01*
X139874083Y-115542675D01*
X139991629Y-115380887D01*
X140082419Y-115202703D01*
X140144216Y-115012510D01*
X140175500Y-114814991D01*
X140175500Y-114615009D01*
X140144216Y-114417490D01*
X140082419Y-114227297D01*
X139991629Y-114049113D01*
X139874083Y-113887325D01*
X139732675Y-113745917D01*
X139570887Y-113628371D01*
X139570880Y-113628367D01*
X139570875Y-113628364D01*
X139392867Y-113537664D01*
X139347417Y-113492215D01*
X139337362Y-113428730D01*
X139366543Y-113371461D01*
X139392867Y-113352336D01*
X139570875Y-113261635D01*
X139570874Y-113261635D01*
X139570887Y-113261629D01*
X139732675Y-113144083D01*
X139874083Y-113002675D01*
X139991629Y-112840887D01*
X140082419Y-112662703D01*
X140144216Y-112472510D01*
X140175500Y-112274991D01*
X140175500Y-112075009D01*
X140144216Y-111877490D01*
X140082419Y-111687297D01*
X139991629Y-111509113D01*
X139874083Y-111347325D01*
X139732675Y-111205917D01*
X139570887Y-111088371D01*
X139570880Y-111088367D01*
X139570875Y-111088364D01*
X139392867Y-110997664D01*
X139347417Y-110952215D01*
X139337362Y-110888730D01*
X139366543Y-110831461D01*
X139392867Y-110812336D01*
X139570875Y-110721635D01*
X139570874Y-110721635D01*
X139570887Y-110721629D01*
X139732675Y-110604083D01*
X139874083Y-110462675D01*
X139991629Y-110300887D01*
X140082419Y-110122703D01*
X140144216Y-109932510D01*
X140175500Y-109734991D01*
X140175500Y-109535009D01*
X140144216Y-109337490D01*
X140082419Y-109147297D01*
X139991629Y-108969113D01*
X139874083Y-108807325D01*
X139732675Y-108665917D01*
X139570887Y-108548371D01*
X139570880Y-108548367D01*
X139570875Y-108548364D01*
X139392867Y-108457664D01*
X139347417Y-108412215D01*
X139337362Y-108348730D01*
X139366543Y-108291461D01*
X139392867Y-108272336D01*
X139570875Y-108181635D01*
X139570874Y-108181635D01*
X139570887Y-108181629D01*
X139732675Y-108064083D01*
X139874083Y-107922675D01*
X139991629Y-107760887D01*
X140082419Y-107582703D01*
X140144216Y-107392510D01*
X140175500Y-107194991D01*
X140175500Y-106995009D01*
X140144216Y-106797490D01*
X140082419Y-106607297D01*
X139991629Y-106429113D01*
X139874083Y-106267325D01*
X139732675Y-106125917D01*
X139570887Y-106008371D01*
X139570880Y-106008367D01*
X139570875Y-106008364D01*
X139392867Y-105917664D01*
X139347417Y-105872215D01*
X139337362Y-105808730D01*
X139366543Y-105751461D01*
X139392867Y-105732336D01*
X139570875Y-105641635D01*
X139570874Y-105641635D01*
X139570887Y-105641629D01*
X139732675Y-105524083D01*
X139874083Y-105382675D01*
X139991629Y-105220887D01*
X140082419Y-105042703D01*
X140144216Y-104852510D01*
X140175500Y-104654991D01*
X140175500Y-104455009D01*
X140144216Y-104257490D01*
X140082419Y-104067297D01*
X139991629Y-103889113D01*
X139874083Y-103727325D01*
X139732675Y-103585917D01*
X139570887Y-103468371D01*
X139570880Y-103468367D01*
X139570875Y-103468364D01*
X139392867Y-103377664D01*
X139347417Y-103332215D01*
X139337362Y-103268730D01*
X139366543Y-103211461D01*
X139392867Y-103192336D01*
X139570875Y-103101635D01*
X139570874Y-103101635D01*
X139570887Y-103101629D01*
X139732675Y-102984083D01*
X139874083Y-102842675D01*
X139991629Y-102680887D01*
X140082419Y-102502703D01*
X140099856Y-102449037D01*
X147092000Y-102449037D01*
X147092000Y-102590963D01*
X147119689Y-102730162D01*
X147174001Y-102861285D01*
X147211972Y-102918112D01*
X147229500Y-102975891D01*
X147229500Y-103875114D01*
X147268377Y-104020202D01*
X147268379Y-104020208D01*
X147343487Y-104150296D01*
X148269039Y-105075848D01*
X148298220Y-105133118D01*
X148299500Y-105149387D01*
X148299500Y-109145114D01*
X148338377Y-109290202D01*
X148338379Y-109290208D01*
X148365675Y-109337485D01*
X148413486Y-109420295D01*
X149449705Y-110456514D01*
X149544932Y-110511494D01*
X149579791Y-110531620D01*
X149579792Y-110531620D01*
X149579795Y-110531622D01*
X149634880Y-110546381D01*
X149724885Y-110570499D01*
X149724892Y-110570500D01*
X149875108Y-110570500D01*
X151425399Y-110570500D01*
X151483178Y-110588027D01*
X151507205Y-110604081D01*
X151558715Y-110638499D01*
X151689838Y-110692811D01*
X151829037Y-110720500D01*
X151829040Y-110720500D01*
X151970960Y-110720500D01*
X151970963Y-110720500D01*
X152110162Y-110692811D01*
X152241285Y-110638499D01*
X152359292Y-110559649D01*
X152459649Y-110459292D01*
X152538499Y-110341285D01*
X152592811Y-110210162D01*
X152620500Y-110070963D01*
X152620500Y-109929037D01*
X152592811Y-109789838D01*
X152538499Y-109658715D01*
X152459649Y-109540708D01*
X152359292Y-109440351D01*
X152359290Y-109440349D01*
X152359287Y-109440347D01*
X152241287Y-109361502D01*
X152183304Y-109337485D01*
X152110162Y-109307189D01*
X152110160Y-109307188D01*
X152110159Y-109307188D01*
X152054027Y-109296022D01*
X151970963Y-109279500D01*
X151829037Y-109279500D01*
X151759754Y-109293281D01*
X151689840Y-109307188D01*
X151558712Y-109361502D01*
X151483178Y-109411973D01*
X151425399Y-109429500D01*
X150079387Y-109429500D01*
X150018257Y-109409638D01*
X150005848Y-109399039D01*
X149470961Y-108864152D01*
X149467151Y-108856675D01*
X149460362Y-108851743D01*
X149452836Y-108828580D01*
X149441780Y-108806882D01*
X149440500Y-108790613D01*
X149440500Y-108666902D01*
X159479500Y-108666902D01*
X159479500Y-109733090D01*
X159479501Y-109733096D01*
X159495095Y-109831562D01*
X159495096Y-109831563D01*
X159495096Y-109831564D01*
X159546532Y-109932514D01*
X159555567Y-109950245D01*
X159649755Y-110044433D01*
X159768438Y-110104905D01*
X159866903Y-110120500D01*
X160933096Y-110120499D01*
X161031562Y-110104905D01*
X161150245Y-110044433D01*
X161244433Y-109950245D01*
X161304905Y-109831562D01*
X161320500Y-109733097D01*
X161320499Y-108666904D01*
X161304905Y-108568438D01*
X161244433Y-108449755D01*
X161150245Y-108355567D01*
X161150244Y-108355566D01*
X161031563Y-108295095D01*
X160998740Y-108289896D01*
X160933097Y-108279500D01*
X160933095Y-108279500D01*
X159866909Y-108279500D01*
X159866901Y-108279501D01*
X159826515Y-108285897D01*
X159768438Y-108295095D01*
X159768436Y-108295096D01*
X159768435Y-108295096D01*
X159649755Y-108355566D01*
X159555566Y-108449755D01*
X159495095Y-108568436D01*
X159479500Y-108666902D01*
X149440500Y-108666902D01*
X149440500Y-105250000D01*
X159400000Y-105250000D01*
X159400000Y-105547830D01*
X159406401Y-105607371D01*
X159406401Y-105607372D01*
X159456647Y-105742090D01*
X159542811Y-105857188D01*
X159657910Y-105943352D01*
X159657911Y-105943353D01*
X159793911Y-105994077D01*
X159844246Y-106034049D01*
X159861473Y-106095973D01*
X159839011Y-106156196D01*
X159785441Y-106191715D01*
X159773842Y-106194239D01*
X159768439Y-106195094D01*
X159768435Y-106195096D01*
X159649755Y-106255566D01*
X159555566Y-106349755D01*
X159495095Y-106468436D01*
X159479500Y-106566902D01*
X159479500Y-107633090D01*
X159479501Y-107633096D01*
X159495095Y-107731562D01*
X159555567Y-107850245D01*
X159649755Y-107944433D01*
X159768438Y-108004905D01*
X159866903Y-108020500D01*
X160933096Y-108020499D01*
X161031562Y-108004905D01*
X161150245Y-107944433D01*
X161244433Y-107850245D01*
X161304905Y-107731562D01*
X161320500Y-107633097D01*
X161320499Y-106566904D01*
X161304905Y-106468438D01*
X161244433Y-106349755D01*
X161150245Y-106255567D01*
X161150244Y-106255566D01*
X161031561Y-106195094D01*
X161026159Y-106194239D01*
X160968890Y-106165056D01*
X160939712Y-106107785D01*
X160949769Y-106044302D01*
X160995220Y-105998854D01*
X161006089Y-105994077D01*
X161142088Y-105943353D01*
X161142089Y-105943352D01*
X161257188Y-105857188D01*
X161343352Y-105742090D01*
X161393598Y-105607372D01*
X161393598Y-105607371D01*
X161400000Y-105547830D01*
X161400000Y-105250000D01*
X160449728Y-105250000D01*
X160541614Y-105211940D01*
X160611940Y-105141614D01*
X160650000Y-105049728D01*
X160650000Y-104950272D01*
X160611940Y-104858386D01*
X160541614Y-104788060D01*
X160449728Y-104750000D01*
X160650000Y-104750000D01*
X161400000Y-104750000D01*
X161400000Y-104452169D01*
X161393598Y-104392628D01*
X161393598Y-104392627D01*
X161343352Y-104257909D01*
X161257188Y-104142811D01*
X161142090Y-104056647D01*
X161007371Y-104006401D01*
X160947831Y-104000000D01*
X160650000Y-104000000D01*
X160650000Y-104750000D01*
X160449728Y-104750000D01*
X160350272Y-104750000D01*
X160258386Y-104788060D01*
X160188060Y-104858386D01*
X160150000Y-104950272D01*
X160150000Y-105049728D01*
X160188060Y-105141614D01*
X160258386Y-105211940D01*
X160350272Y-105250000D01*
X159400000Y-105250000D01*
X149440500Y-105250000D01*
X149440500Y-104794892D01*
X149440499Y-104794885D01*
X149416381Y-104704880D01*
X149401622Y-104649795D01*
X149326514Y-104519705D01*
X149258978Y-104452169D01*
X159400000Y-104452169D01*
X159400000Y-104750000D01*
X160150000Y-104750000D01*
X160150000Y-104000000D01*
X159852169Y-104000000D01*
X159792628Y-104006401D01*
X159792627Y-104006401D01*
X159657909Y-104056647D01*
X159542811Y-104142811D01*
X159456647Y-104257909D01*
X159406401Y-104392627D01*
X159406401Y-104392628D01*
X159400000Y-104452169D01*
X149258978Y-104452169D01*
X149220295Y-104413486D01*
X148400961Y-103594152D01*
X148371780Y-103536882D01*
X148370500Y-103520613D01*
X148370500Y-103013307D01*
X148388025Y-102955530D01*
X148450999Y-102861285D01*
X148505311Y-102730162D01*
X148533000Y-102590963D01*
X148533000Y-102449037D01*
X148505311Y-102309838D01*
X148450999Y-102178715D01*
X148372149Y-102060708D01*
X148271792Y-101960351D01*
X148271790Y-101960349D01*
X148271787Y-101960347D01*
X148153787Y-101881502D01*
X148153785Y-101881501D01*
X148022662Y-101827189D01*
X148022660Y-101827188D01*
X148022659Y-101827188D01*
X147966527Y-101816022D01*
X147883463Y-101799500D01*
X147741537Y-101799500D01*
X147672254Y-101813281D01*
X147602340Y-101827188D01*
X147471212Y-101881502D01*
X147353212Y-101960347D01*
X147353204Y-101960354D01*
X147252854Y-102060704D01*
X147252847Y-102060712D01*
X147174002Y-102178712D01*
X147119688Y-102309840D01*
X147103015Y-102393661D01*
X147092000Y-102449037D01*
X140099856Y-102449037D01*
X140144216Y-102312510D01*
X140175500Y-102114991D01*
X140175500Y-101915009D01*
X140144216Y-101717490D01*
X140082419Y-101527297D01*
X139991629Y-101349113D01*
X139874083Y-101187325D01*
X139732675Y-101045917D01*
X139570887Y-100928371D01*
X139570880Y-100928367D01*
X139570875Y-100928364D01*
X139480422Y-100882276D01*
X139434972Y-100836827D01*
X139424917Y-100773342D01*
X139454098Y-100716073D01*
X139480422Y-100696947D01*
X139612552Y-100629623D01*
X139612554Y-100629622D01*
X139784467Y-100504720D01*
X139934720Y-100354467D01*
X140059622Y-100182554D01*
X140059624Y-100182552D01*
X140156093Y-99993220D01*
X140221756Y-99791130D01*
X140232231Y-99725000D01*
X139338012Y-99725000D01*
X139370925Y-99667993D01*
X139405000Y-99540826D01*
X139405000Y-99409174D01*
X139370925Y-99282007D01*
X139338012Y-99225000D01*
X140232231Y-99225000D01*
X140221756Y-99158869D01*
X140156093Y-98956779D01*
X140059624Y-98767447D01*
X140059622Y-98767445D01*
X139934720Y-98595532D01*
X139784467Y-98445279D01*
X139612554Y-98320377D01*
X139612552Y-98320375D01*
X139480422Y-98253052D01*
X139434972Y-98207602D01*
X139424917Y-98144118D01*
X139454098Y-98086848D01*
X139480414Y-98067727D01*
X139570887Y-98021629D01*
X139732675Y-97904083D01*
X139874083Y-97762675D01*
X139991629Y-97600887D01*
X140082419Y-97422703D01*
X140144216Y-97232510D01*
X140175500Y-97034991D01*
X140175500Y-96835009D01*
X140144216Y-96637490D01*
X140082419Y-96447297D01*
X139991629Y-96269113D01*
X139874083Y-96107325D01*
X139732675Y-95965917D01*
X139570887Y-95848371D01*
X139570880Y-95848367D01*
X139570875Y-95848364D01*
X139392867Y-95757664D01*
X139347417Y-95712215D01*
X139337362Y-95648730D01*
X139366543Y-95591461D01*
X139392867Y-95572336D01*
X139570875Y-95481635D01*
X139570874Y-95481635D01*
X139570887Y-95481629D01*
X139732675Y-95364083D01*
X139874083Y-95222675D01*
X139991629Y-95060887D01*
X140082419Y-94882703D01*
X140144216Y-94692510D01*
X140175500Y-94494991D01*
X140175500Y-94295009D01*
X140144216Y-94097490D01*
X140082419Y-93907297D01*
X139991629Y-93729113D01*
X139874083Y-93567325D01*
X139732675Y-93425917D01*
X139570887Y-93308371D01*
X139570880Y-93308367D01*
X139570875Y-93308364D01*
X139392867Y-93217664D01*
X139347417Y-93172215D01*
X139337362Y-93108730D01*
X139366543Y-93051461D01*
X139392867Y-93032336D01*
X139570875Y-92941635D01*
X139570874Y-92941635D01*
X139570887Y-92941629D01*
X139732675Y-92824083D01*
X139874083Y-92682675D01*
X139991629Y-92520887D01*
X140082419Y-92342703D01*
X140144216Y-92152510D01*
X140175500Y-91954991D01*
X140175500Y-91755009D01*
X140144216Y-91557490D01*
X140082419Y-91367297D01*
X139991629Y-91189113D01*
X139874083Y-91027325D01*
X139732675Y-90885917D01*
X139570887Y-90768371D01*
X139570880Y-90768367D01*
X139570875Y-90768364D01*
X139392867Y-90677664D01*
X139347417Y-90632215D01*
X139337362Y-90568730D01*
X139366543Y-90511461D01*
X139392867Y-90492336D01*
X139570875Y-90401635D01*
X139570874Y-90401635D01*
X139570887Y-90401629D01*
X139732675Y-90284083D01*
X139874083Y-90142675D01*
X139991629Y-89980887D01*
X140082419Y-89802703D01*
X140144216Y-89612510D01*
X140175500Y-89414991D01*
X140175500Y-89215009D01*
X140144216Y-89017490D01*
X140082419Y-88827297D01*
X139991629Y-88649113D01*
X139874083Y-88487325D01*
X139732675Y-88345917D01*
X139570887Y-88228371D01*
X139570880Y-88228367D01*
X139570875Y-88228364D01*
X139392867Y-88137664D01*
X139347417Y-88092215D01*
X139337362Y-88028730D01*
X139366543Y-87971461D01*
X139392867Y-87952336D01*
X139570875Y-87861635D01*
X139570874Y-87861635D01*
X139570887Y-87861629D01*
X139732675Y-87744083D01*
X139874083Y-87602675D01*
X139991629Y-87440887D01*
X140082419Y-87262703D01*
X140144216Y-87072510D01*
X140175500Y-86874991D01*
X140175500Y-86675009D01*
X140144216Y-86477490D01*
X140082419Y-86287297D01*
X140080279Y-86283098D01*
X139991632Y-86109119D01*
X139991629Y-86109113D01*
X139874083Y-85947325D01*
X139732675Y-85805917D01*
X139570887Y-85688371D01*
X139570880Y-85688367D01*
X139570875Y-85688364D01*
X139392867Y-85597664D01*
X139347417Y-85552215D01*
X139337362Y-85488730D01*
X139366543Y-85431461D01*
X139392867Y-85412336D01*
X139570875Y-85321635D01*
X139570874Y-85321635D01*
X139570887Y-85321629D01*
X139600644Y-85300009D01*
X146764500Y-85300009D01*
X146764500Y-85499991D01*
X146794335Y-85688364D01*
X146795785Y-85697514D01*
X146857581Y-85887704D01*
X146857583Y-85887708D01*
X146887959Y-85947323D01*
X146948371Y-86065887D01*
X147065917Y-86227675D01*
X147207325Y-86369083D01*
X147369113Y-86486629D01*
X147547297Y-86577419D01*
X147737490Y-86639216D01*
X147935009Y-86670500D01*
X147935013Y-86670500D01*
X148134987Y-86670500D01*
X148134991Y-86670500D01*
X148332510Y-86639216D01*
X148522703Y-86577419D01*
X148700887Y-86486629D01*
X148862675Y-86369083D01*
X149004083Y-86227675D01*
X149116365Y-86073131D01*
X149168362Y-86035353D01*
X149232637Y-86035353D01*
X149284637Y-86073133D01*
X149304500Y-86134262D01*
X149304500Y-86283090D01*
X149304501Y-86283096D01*
X149320095Y-86381562D01*
X149320096Y-86381563D01*
X149320096Y-86381564D01*
X149373630Y-86486632D01*
X149380567Y-86500245D01*
X149474755Y-86594433D01*
X149593438Y-86654905D01*
X149691903Y-86670500D01*
X151458096Y-86670499D01*
X151556562Y-86654905D01*
X151675245Y-86594433D01*
X151769433Y-86500245D01*
X151829905Y-86381562D01*
X151845500Y-86283097D01*
X151845499Y-84516904D01*
X151829905Y-84418438D01*
X151769433Y-84299755D01*
X151675245Y-84205567D01*
X151675244Y-84205566D01*
X151556563Y-84145095D01*
X151523740Y-84139896D01*
X151458097Y-84129500D01*
X151458095Y-84129500D01*
X149691909Y-84129500D01*
X149691901Y-84129501D01*
X149651515Y-84135897D01*
X149593438Y-84145095D01*
X149593436Y-84145096D01*
X149593435Y-84145096D01*
X149474755Y-84205566D01*
X149380566Y-84299755D01*
X149320095Y-84418436D01*
X149304500Y-84516902D01*
X149304500Y-84665734D01*
X149284638Y-84726864D01*
X149232638Y-84764644D01*
X149168362Y-84764644D01*
X149116362Y-84726864D01*
X149113458Y-84722867D01*
X149004083Y-84572325D01*
X148862675Y-84430917D01*
X148700887Y-84313371D01*
X148700882Y-84313368D01*
X148700880Y-84313367D01*
X148522708Y-84222583D01*
X148522704Y-84222581D01*
X148332514Y-84160785D01*
X148332512Y-84160784D01*
X148332510Y-84160784D01*
X148134991Y-84129500D01*
X147935009Y-84129500D01*
X147935008Y-84129500D01*
X147849638Y-84143021D01*
X147737490Y-84160784D01*
X147737488Y-84160784D01*
X147737485Y-84160785D01*
X147547295Y-84222581D01*
X147547291Y-84222583D01*
X147369119Y-84313367D01*
X147369112Y-84313372D01*
X147207323Y-84430918D01*
X147065918Y-84572323D01*
X146948372Y-84734112D01*
X146948367Y-84734119D01*
X146857583Y-84912291D01*
X146857581Y-84912295D01*
X146795785Y-85102485D01*
X146765500Y-85293698D01*
X146764500Y-85300009D01*
X139600644Y-85300009D01*
X139732675Y-85204083D01*
X139874083Y-85062675D01*
X139991629Y-84900887D01*
X140082419Y-84722703D01*
X140144216Y-84532510D01*
X140175500Y-84334991D01*
X140175500Y-84135009D01*
X140144216Y-83937490D01*
X140082419Y-83747297D01*
X139991629Y-83569113D01*
X139886158Y-83423945D01*
X139886158Y-83423944D01*
X139874087Y-83407331D01*
X139874083Y-83407325D01*
X139833660Y-83366902D01*
X143084500Y-83366902D01*
X143084500Y-84433090D01*
X143084501Y-84433096D01*
X143100095Y-84531562D01*
X143160567Y-84650245D01*
X143254755Y-84744433D01*
X143373438Y-84804905D01*
X143471903Y-84820500D01*
X144538096Y-84820499D01*
X144636562Y-84804905D01*
X144755245Y-84744433D01*
X144849433Y-84650245D01*
X144909905Y-84531562D01*
X144925500Y-84433097D01*
X144925499Y-83366904D01*
X144909905Y-83268438D01*
X144849433Y-83149755D01*
X144755245Y-83055567D01*
X144755244Y-83055566D01*
X144636563Y-82995095D01*
X144593987Y-82988352D01*
X144538097Y-82979500D01*
X144538095Y-82979500D01*
X143471909Y-82979500D01*
X143471901Y-82979501D01*
X143431515Y-82985897D01*
X143373438Y-82995095D01*
X143373436Y-82995096D01*
X143373435Y-82995096D01*
X143254755Y-83055566D01*
X143160566Y-83149755D01*
X143100095Y-83268436D01*
X143084500Y-83366902D01*
X139833660Y-83366902D01*
X139732675Y-83265917D01*
X139687557Y-83233137D01*
X139649777Y-83181138D01*
X139649777Y-83116863D01*
X139687557Y-83064863D01*
X139748686Y-83045000D01*
X139802831Y-83045000D01*
X139862371Y-83038598D01*
X139862372Y-83038598D01*
X139997090Y-82988352D01*
X140112188Y-82902188D01*
X140198352Y-82787090D01*
X140248598Y-82652372D01*
X140248598Y-82652371D01*
X140255000Y-82592830D01*
X140255000Y-81945000D01*
X139338012Y-81945000D01*
X139370925Y-81887993D01*
X139405000Y-81760826D01*
X139405000Y-81629174D01*
X139370925Y-81502007D01*
X139338012Y-81445000D01*
X140255000Y-81445000D01*
X140255000Y-80797169D01*
X140248598Y-80737628D01*
X140248598Y-80737627D01*
X140198352Y-80602909D01*
X140112188Y-80487811D01*
X139997090Y-80401647D01*
X139862371Y-80351401D01*
X139802831Y-80345000D01*
X139155000Y-80345000D01*
X139155000Y-81261988D01*
X139097993Y-81229075D01*
X138970826Y-81195000D01*
X138839174Y-81195000D01*
X138712007Y-81229075D01*
X138655000Y-81261988D01*
X138655000Y-80345000D01*
X138007169Y-80345000D01*
X137947628Y-80351401D01*
X137947627Y-80351401D01*
X137812909Y-80401647D01*
X137697811Y-80487811D01*
X137611647Y-80602909D01*
X137561401Y-80737627D01*
X137561401Y-80737628D01*
X137555000Y-80797169D01*
X137555000Y-80851312D01*
X137535138Y-80912442D01*
X137483138Y-80950222D01*
X137418862Y-80950222D01*
X137366863Y-80912442D01*
X137334087Y-80867331D01*
X137334083Y-80867325D01*
X137192675Y-80725917D01*
X137030887Y-80608371D01*
X137030882Y-80608368D01*
X137030880Y-80608367D01*
X136852708Y-80517583D01*
X136852704Y-80517581D01*
X136662514Y-80455785D01*
X136662512Y-80455784D01*
X136662510Y-80455784D01*
X136464991Y-80424500D01*
X136265009Y-80424500D01*
X136265008Y-80424500D01*
X136179638Y-80438021D01*
X136067490Y-80455784D01*
X136067488Y-80455784D01*
X136067485Y-80455785D01*
X135877295Y-80517581D01*
X135877291Y-80517583D01*
X135699119Y-80608367D01*
X135699112Y-80608372D01*
X135537323Y-80725918D01*
X135395918Y-80867323D01*
X135278372Y-81029112D01*
X135278367Y-81029119D01*
X135187583Y-81207291D01*
X135187581Y-81207295D01*
X135125785Y-81397485D01*
X135125784Y-81397488D01*
X135125784Y-81397490D01*
X135094500Y-81595009D01*
X135094500Y-81794991D01*
X135115113Y-81925138D01*
X135125785Y-81992514D01*
X135187581Y-82182704D01*
X135187583Y-82182708D01*
X135278367Y-82360880D01*
X135278371Y-82360887D01*
X135395917Y-82522675D01*
X135537325Y-82664083D01*
X135699113Y-82781629D01*
X135699119Y-82781632D01*
X135877133Y-82872336D01*
X135922582Y-82917786D01*
X135932636Y-82981270D01*
X135903456Y-83038540D01*
X135877133Y-83057664D01*
X135699119Y-83148367D01*
X135699112Y-83148372D01*
X135537323Y-83265918D01*
X135395918Y-83407323D01*
X135278372Y-83569112D01*
X135278367Y-83569119D01*
X135187583Y-83747291D01*
X135187581Y-83747295D01*
X135125785Y-83937485D01*
X135095373Y-84129500D01*
X135094500Y-84135009D01*
X135094500Y-84334991D01*
X135125634Y-84531564D01*
X135125785Y-84532514D01*
X135187581Y-84722704D01*
X135187583Y-84722708D01*
X135278367Y-84900880D01*
X135278371Y-84900887D01*
X135395917Y-85062675D01*
X135537325Y-85204083D01*
X135699113Y-85321629D01*
X135699119Y-85321632D01*
X135877133Y-85412336D01*
X135922582Y-85457786D01*
X135932636Y-85521270D01*
X135903456Y-85578540D01*
X135877133Y-85597664D01*
X135699119Y-85688367D01*
X135699114Y-85688370D01*
X135699113Y-85688371D01*
X135686529Y-85697514D01*
X135537323Y-85805918D01*
X135395918Y-85947323D01*
X135278372Y-86109112D01*
X135278367Y-86109119D01*
X135187583Y-86287291D01*
X135187581Y-86287295D01*
X135125785Y-86477485D01*
X135094500Y-86675008D01*
X135094500Y-86874991D01*
X135125785Y-87072514D01*
X135187581Y-87262704D01*
X135187583Y-87262708D01*
X135278367Y-87440880D01*
X135278371Y-87440887D01*
X135395917Y-87602675D01*
X135537325Y-87744083D01*
X135699113Y-87861629D01*
X135789579Y-87907724D01*
X135835027Y-87953172D01*
X135845082Y-88016656D01*
X135815901Y-88073926D01*
X135789577Y-88093051D01*
X135657457Y-88160369D01*
X135657445Y-88160377D01*
X135485532Y-88285279D01*
X135335279Y-88435532D01*
X135210377Y-88607445D01*
X135210375Y-88607447D01*
X135113906Y-88796779D01*
X135048243Y-88998869D01*
X135037769Y-89065000D01*
X134805500Y-89065000D01*
X134805500Y-76877714D01*
X134805641Y-76872308D01*
X134811513Y-76760255D01*
X136154500Y-76760255D01*
X136154500Y-76989744D01*
X136179771Y-77181683D01*
X136184452Y-77217238D01*
X136210476Y-77314361D01*
X136243840Y-77438880D01*
X136243839Y-77438880D01*
X136243842Y-77438887D01*
X136331656Y-77650888D01*
X136446389Y-77849612D01*
X136586081Y-78031661D01*
X136748339Y-78193919D01*
X136930388Y-78333611D01*
X137129112Y-78448344D01*
X137341113Y-78536158D01*
X137341116Y-78536158D01*
X137341119Y-78536160D01*
X137406966Y-78553803D01*
X137562762Y-78595548D01*
X137691080Y-78612441D01*
X137790255Y-78625499D01*
X137790262Y-78625499D01*
X137790266Y-78625500D01*
X137790269Y-78625500D01*
X138019731Y-78625500D01*
X138019734Y-78625500D01*
X138019738Y-78625499D01*
X138019744Y-78625499D01*
X138089787Y-78616277D01*
X138247238Y-78595548D01*
X138468887Y-78536158D01*
X138680888Y-78448344D01*
X138879612Y-78333611D01*
X139061661Y-78193919D01*
X139223919Y-78031661D01*
X139363611Y-77849612D01*
X139478344Y-77650888D01*
X139566158Y-77438887D01*
X139625548Y-77217238D01*
X139651636Y-77019083D01*
X139655499Y-76989744D01*
X139655500Y-76989731D01*
X139655500Y-76760268D01*
X139655499Y-76760255D01*
X139635607Y-76609169D01*
X139625548Y-76532762D01*
X139566158Y-76311113D01*
X139478344Y-76099112D01*
X139363611Y-75900388D01*
X139223919Y-75718339D01*
X139061661Y-75556081D01*
X138879612Y-75416389D01*
X138680888Y-75301656D01*
X138468887Y-75213842D01*
X138468880Y-75213839D01*
X138280164Y-75163274D01*
X138247238Y-75154452D01*
X138247230Y-75154450D01*
X138247225Y-75154450D01*
X138019744Y-75124500D01*
X138019734Y-75124500D01*
X137790266Y-75124500D01*
X137790255Y-75124500D01*
X137562774Y-75154450D01*
X137562766Y-75154451D01*
X137562762Y-75154452D01*
X137562758Y-75154452D01*
X137562758Y-75154453D01*
X137341119Y-75213839D01*
X137129118Y-75301653D01*
X137129114Y-75301655D01*
X137129112Y-75301656D01*
X137096162Y-75320680D01*
X136930385Y-75416391D01*
X136748337Y-75556082D01*
X136586082Y-75718337D01*
X136446391Y-75900385D01*
X136446389Y-75900388D01*
X136433643Y-75922465D01*
X136331655Y-76099114D01*
X136331653Y-76099118D01*
X136243839Y-76311119D01*
X136184453Y-76532758D01*
X136184450Y-76532774D01*
X136154500Y-76760255D01*
X134811513Y-76760255D01*
X134822193Y-76556458D01*
X134823330Y-76545639D01*
X134825370Y-76532762D01*
X134872381Y-76235944D01*
X134874641Y-76225317D01*
X134955793Y-75922451D01*
X134959148Y-75912126D01*
X135071514Y-75619404D01*
X135075932Y-75609479D01*
X135218284Y-75330097D01*
X135223714Y-75320691D01*
X135394488Y-75057722D01*
X135400887Y-75048918D01*
X135471556Y-74961649D01*
X135524879Y-74895800D01*
X143029500Y-74895800D01*
X143029500Y-76704192D01*
X143029501Y-76704208D01*
X143034349Y-76757552D01*
X143035639Y-76771749D01*
X143066963Y-76872271D01*
X143084080Y-76927203D01*
X143084083Y-76927210D01*
X143168315Y-77066545D01*
X143283454Y-77181684D01*
X143422789Y-77265916D01*
X143422793Y-77265918D01*
X143422797Y-77265920D01*
X143578251Y-77314361D01*
X143645805Y-77320500D01*
X144954194Y-77320499D01*
X144954198Y-77320498D01*
X144954208Y-77320498D01*
X144967688Y-77319272D01*
X145021749Y-77314361D01*
X145177203Y-77265920D01*
X145316547Y-77181683D01*
X145431683Y-77066547D01*
X145478120Y-76989731D01*
X145515916Y-76927210D01*
X145515916Y-76927208D01*
X145515920Y-76927203D01*
X145559629Y-76786932D01*
X145596777Y-76734482D01*
X145657662Y-76713883D01*
X145719027Y-76733004D01*
X145743053Y-76756741D01*
X145830917Y-76877675D01*
X145972325Y-77019083D01*
X146134113Y-77136629D01*
X146312297Y-77227419D01*
X146502490Y-77289216D01*
X146700009Y-77320500D01*
X146700013Y-77320500D01*
X146899987Y-77320500D01*
X146899991Y-77320500D01*
X147060819Y-77295027D01*
X147124303Y-77305081D01*
X147169753Y-77350530D01*
X147179090Y-77377454D01*
X147184105Y-77402663D01*
X147184108Y-77402673D01*
X147251984Y-77566542D01*
X147251987Y-77566547D01*
X147350532Y-77714030D01*
X147350534Y-77714033D01*
X147350536Y-77714035D01*
X147475965Y-77839464D01*
X147623453Y-77938013D01*
X147623455Y-77938013D01*
X147623457Y-77938015D01*
X147787326Y-78005891D01*
X147787330Y-78005893D01*
X147787333Y-78005893D01*
X147787334Y-78005894D01*
X147961309Y-78040500D01*
X147961314Y-78040500D01*
X148138686Y-78040500D01*
X148138691Y-78040500D01*
X148312666Y-78005894D01*
X148312667Y-78005893D01*
X148312669Y-78005893D01*
X148312673Y-78005891D01*
X148476542Y-77938015D01*
X148476541Y-77938015D01*
X148476547Y-77938013D01*
X148624035Y-77839464D01*
X148749464Y-77714035D01*
X148848013Y-77566547D01*
X148915894Y-77402666D01*
X148920907Y-77377458D01*
X148952311Y-77321379D01*
X149010681Y-77294467D01*
X149039171Y-77295025D01*
X149200009Y-77320500D01*
X149200013Y-77320500D01*
X149399987Y-77320500D01*
X149399991Y-77320500D01*
X149597510Y-77289216D01*
X149787703Y-77227419D01*
X149965887Y-77136629D01*
X150127675Y-77019083D01*
X150269083Y-76877675D01*
X150386629Y-76715887D01*
X150457336Y-76577118D01*
X150502785Y-76531669D01*
X150566270Y-76521615D01*
X150623540Y-76550795D01*
X150642664Y-76577118D01*
X150712349Y-76713883D01*
X150713371Y-76715887D01*
X150830917Y-76877675D01*
X150972325Y-77019083D01*
X151134113Y-77136629D01*
X151312297Y-77227419D01*
X151502490Y-77289216D01*
X151700009Y-77320500D01*
X151700013Y-77320500D01*
X151899987Y-77320500D01*
X151899991Y-77320500D01*
X152097510Y-77289216D01*
X152287703Y-77227419D01*
X152465887Y-77136629D01*
X152627675Y-77019083D01*
X152769083Y-76877675D01*
X152886629Y-76715887D01*
X152912724Y-76664672D01*
X152958171Y-76619225D01*
X153021655Y-76609169D01*
X153078926Y-76638349D01*
X153098052Y-76664674D01*
X153145375Y-76757552D01*
X153145377Y-76757554D01*
X153270279Y-76929467D01*
X153420532Y-77079720D01*
X153592445Y-77204622D01*
X153592447Y-77204624D01*
X153781779Y-77301093D01*
X153781778Y-77301093D01*
X153983869Y-77366756D01*
X154050000Y-77377230D01*
X154050000Y-76348482D01*
X154068409Y-76359111D01*
X154221009Y-76400000D01*
X154378991Y-76400000D01*
X154531591Y-76359111D01*
X154550000Y-76348482D01*
X154550000Y-77377230D01*
X154616130Y-77366756D01*
X154818220Y-77301093D01*
X155007552Y-77204624D01*
X155007554Y-77204622D01*
X155179467Y-77079720D01*
X155329720Y-76929467D01*
X155452660Y-76760255D01*
X158954500Y-76760255D01*
X158954500Y-76989744D01*
X158979771Y-77181683D01*
X158984452Y-77217238D01*
X159010476Y-77314361D01*
X159043840Y-77438880D01*
X159043839Y-77438880D01*
X159043842Y-77438887D01*
X159131656Y-77650888D01*
X159246389Y-77849612D01*
X159386081Y-78031661D01*
X159548339Y-78193919D01*
X159730388Y-78333611D01*
X159929112Y-78448344D01*
X160141113Y-78536158D01*
X160141116Y-78536158D01*
X160141119Y-78536160D01*
X160206966Y-78553803D01*
X160362762Y-78595548D01*
X160491080Y-78612441D01*
X160590255Y-78625499D01*
X160590262Y-78625499D01*
X160590266Y-78625500D01*
X160590269Y-78625500D01*
X160819731Y-78625500D01*
X160819734Y-78625500D01*
X160819738Y-78625499D01*
X160819744Y-78625499D01*
X160889787Y-78616277D01*
X161047238Y-78595548D01*
X161268887Y-78536158D01*
X161480888Y-78448344D01*
X161679612Y-78333611D01*
X161861661Y-78193919D01*
X162023919Y-78031661D01*
X162163611Y-77849612D01*
X162278344Y-77650888D01*
X162366158Y-77438887D01*
X162425548Y-77217238D01*
X162451636Y-77019083D01*
X162455499Y-76989744D01*
X162455500Y-76989731D01*
X162455500Y-76760268D01*
X162455499Y-76760255D01*
X162435607Y-76609169D01*
X162425548Y-76532762D01*
X162366158Y-76311113D01*
X162278344Y-76099112D01*
X162163611Y-75900388D01*
X162023919Y-75718339D01*
X161861661Y-75556081D01*
X161679612Y-75416389D01*
X161480888Y-75301656D01*
X161268887Y-75213842D01*
X161268880Y-75213839D01*
X161080164Y-75163274D01*
X161047238Y-75154452D01*
X161047230Y-75154450D01*
X161047225Y-75154450D01*
X160819744Y-75124500D01*
X160819734Y-75124500D01*
X160590266Y-75124500D01*
X160590255Y-75124500D01*
X160362774Y-75154450D01*
X160362766Y-75154451D01*
X160362762Y-75154452D01*
X160362758Y-75154452D01*
X160362758Y-75154453D01*
X160141119Y-75213839D01*
X159929118Y-75301653D01*
X159929114Y-75301655D01*
X159929112Y-75301656D01*
X159896162Y-75320680D01*
X159730385Y-75416391D01*
X159548337Y-75556082D01*
X159386082Y-75718337D01*
X159246391Y-75900385D01*
X159246389Y-75900388D01*
X159233643Y-75922465D01*
X159131655Y-76099114D01*
X159131653Y-76099118D01*
X159043839Y-76311119D01*
X158984453Y-76532758D01*
X158984450Y-76532774D01*
X158954500Y-76760255D01*
X155452660Y-76760255D01*
X155454622Y-76757554D01*
X155454627Y-76757547D01*
X155479035Y-76709645D01*
X155551093Y-76568220D01*
X155616755Y-76366133D01*
X155649999Y-76156245D01*
X155650000Y-76156243D01*
X155650000Y-76050000D01*
X154848482Y-76050000D01*
X154859111Y-76031591D01*
X154900000Y-75878991D01*
X154900000Y-75721009D01*
X154859111Y-75568409D01*
X154848482Y-75550000D01*
X155650000Y-75550000D01*
X155650000Y-75443756D01*
X155649999Y-75443754D01*
X155616755Y-75233866D01*
X155551093Y-75031779D01*
X155454624Y-74842447D01*
X155454622Y-74842445D01*
X155329720Y-74670532D01*
X155179467Y-74520279D01*
X155007554Y-74395377D01*
X155007552Y-74395375D01*
X154818220Y-74298906D01*
X154818221Y-74298906D01*
X154616126Y-74233241D01*
X154550000Y-74222767D01*
X154550000Y-75251517D01*
X154531591Y-75240889D01*
X154378991Y-75200000D01*
X154221009Y-75200000D01*
X154068409Y-75240889D01*
X154050000Y-75251517D01*
X154050000Y-74222768D01*
X154049999Y-74222767D01*
X153983873Y-74233241D01*
X153781779Y-74298906D01*
X153592447Y-74395375D01*
X153592445Y-74395377D01*
X153420532Y-74520279D01*
X153270279Y-74670532D01*
X153145377Y-74842445D01*
X153145369Y-74842457D01*
X153098051Y-74935325D01*
X153052602Y-74980775D01*
X152989117Y-74990830D01*
X152931848Y-74961649D01*
X152912725Y-74935329D01*
X152886629Y-74884113D01*
X152769083Y-74722325D01*
X152627675Y-74580917D01*
X152465887Y-74463371D01*
X152465882Y-74463368D01*
X152465880Y-74463367D01*
X152287708Y-74372583D01*
X152287704Y-74372581D01*
X152097514Y-74310785D01*
X152097512Y-74310784D01*
X152097510Y-74310784D01*
X151899991Y-74279500D01*
X151700009Y-74279500D01*
X151700008Y-74279500D01*
X151614638Y-74293021D01*
X151502490Y-74310784D01*
X151502488Y-74310784D01*
X151502485Y-74310785D01*
X151312295Y-74372581D01*
X151312291Y-74372583D01*
X151134119Y-74463367D01*
X151134112Y-74463372D01*
X150972323Y-74580918D01*
X150830918Y-74722323D01*
X150830917Y-74722325D01*
X150713371Y-74884113D01*
X150713370Y-74884114D01*
X150713367Y-74884119D01*
X150642664Y-75022881D01*
X150597214Y-75068330D01*
X150533730Y-75078384D01*
X150476460Y-75049203D01*
X150457336Y-75022881D01*
X150386632Y-74884119D01*
X150386629Y-74884113D01*
X150269083Y-74722325D01*
X150127675Y-74580917D01*
X149965887Y-74463371D01*
X149965882Y-74463368D01*
X149965880Y-74463367D01*
X149787708Y-74372583D01*
X149787704Y-74372581D01*
X149597514Y-74310785D01*
X149597512Y-74310784D01*
X149597510Y-74310784D01*
X149399991Y-74279500D01*
X149200009Y-74279500D01*
X149200008Y-74279500D01*
X149114638Y-74293021D01*
X149002490Y-74310784D01*
X149002488Y-74310784D01*
X149002485Y-74310785D01*
X148812295Y-74372581D01*
X148812291Y-74372583D01*
X148634119Y-74463367D01*
X148634112Y-74463372D01*
X148472323Y-74580918D01*
X148330918Y-74722323D01*
X148330917Y-74722325D01*
X148213371Y-74884113D01*
X148213370Y-74884114D01*
X148213367Y-74884119D01*
X148142664Y-75022881D01*
X148097214Y-75068330D01*
X148033730Y-75078384D01*
X147976460Y-75049203D01*
X147957336Y-75022881D01*
X147886632Y-74884119D01*
X147886629Y-74884113D01*
X147769083Y-74722325D01*
X147627675Y-74580917D01*
X147465887Y-74463371D01*
X147465882Y-74463368D01*
X147465880Y-74463367D01*
X147287708Y-74372583D01*
X147287704Y-74372581D01*
X147097514Y-74310785D01*
X147097512Y-74310784D01*
X147097510Y-74310784D01*
X146899991Y-74279500D01*
X146700009Y-74279500D01*
X146700008Y-74279500D01*
X146614638Y-74293021D01*
X146502490Y-74310784D01*
X146502488Y-74310784D01*
X146502485Y-74310785D01*
X146312295Y-74372581D01*
X146312291Y-74372583D01*
X146134119Y-74463367D01*
X146134112Y-74463372D01*
X145972323Y-74580918D01*
X145830918Y-74722323D01*
X145743057Y-74843254D01*
X145691056Y-74881034D01*
X145626781Y-74881034D01*
X145574781Y-74843253D01*
X145559629Y-74813067D01*
X145515920Y-74672797D01*
X145515918Y-74672793D01*
X145515916Y-74672789D01*
X145431684Y-74533454D01*
X145316545Y-74418315D01*
X145177210Y-74334083D01*
X145177203Y-74334080D01*
X145021749Y-74285639D01*
X145021746Y-74285638D01*
X145021744Y-74285638D01*
X144981201Y-74281954D01*
X144954195Y-74279500D01*
X144954191Y-74279500D01*
X143645807Y-74279500D01*
X143645791Y-74279501D01*
X143578251Y-74285639D01*
X143422796Y-74334080D01*
X143422789Y-74334083D01*
X143283454Y-74418315D01*
X143168315Y-74533454D01*
X143084083Y-74672789D01*
X143084080Y-74672796D01*
X143035640Y-74828248D01*
X143035638Y-74828255D01*
X143029500Y-74895800D01*
X135524879Y-74895800D01*
X135598200Y-74805256D01*
X135605465Y-74797187D01*
X135827187Y-74575465D01*
X135835256Y-74568200D01*
X136078919Y-74370886D01*
X136087724Y-74364488D01*
X136350691Y-74193714D01*
X136360097Y-74188284D01*
X136639479Y-74045932D01*
X136649404Y-74041514D01*
X136942126Y-73929148D01*
X136952451Y-73925793D01*
X137255317Y-73844641D01*
X137265944Y-73842381D01*
X137575645Y-73793329D01*
X137586458Y-73792193D01*
X137902271Y-73775642D01*
X137907714Y-73775500D01*
X137970892Y-73775500D01*
X160639108Y-73775500D01*
X160702286Y-73775500D01*
X160707728Y-73775642D01*
G37*
%TD.AperFunction*%
%TD*%
M02*
