%TF.GenerationSoftware,KiCad,Pcbnew,9.0.0*%
%TF.CreationDate,2025-04-06T00:06:35-05:00*%
%TF.ProjectId,RC-PCB,52432d50-4342-42e6-9b69-6361645f7063,rev?*%
%TF.SameCoordinates,Original*%
%TF.FileFunction,Copper,L1,Top*%
%TF.FilePolarity,Positive*%
%FSLAX46Y46*%
G04 Gerber Fmt 4.6, Leading zero omitted, Abs format (unit mm)*
G04 Created by KiCad (PCBNEW 9.0.0) date 2025-04-06 00:06:35*
%MOMM*%
%LPD*%
G01*
G04 APERTURE LIST*
G04 Aperture macros list*
%AMRoundRect*
0 Rectangle with rounded corners*
0 $1 Rounding radius*
0 $2 $3 $4 $5 $6 $7 $8 $9 X,Y pos of 4 corners*
0 Add a 4 corners polygon primitive as box body*
4,1,4,$2,$3,$4,$5,$6,$7,$8,$9,$2,$3,0*
0 Add four circle primitives for the rounded corners*
1,1,$1+$1,$2,$3*
1,1,$1+$1,$4,$5*
1,1,$1+$1,$6,$7*
1,1,$1+$1,$8,$9*
0 Add four rect primitives between the rounded corners*
20,1,$1+$1,$2,$3,$4,$5,0*
20,1,$1+$1,$4,$5,$6,$7,0*
20,1,$1+$1,$6,$7,$8,$9,0*
20,1,$1+$1,$8,$9,$2,$3,0*%
G04 Aperture macros list end*
%TA.AperFunction,SMDPad,CuDef*%
%ADD10RoundRect,0.250000X-0.450000X0.350000X-0.450000X-0.350000X0.450000X-0.350000X0.450000X0.350000X0*%
%TD*%
%TA.AperFunction,SMDPad,CuDef*%
%ADD11RoundRect,0.250000X0.450000X-0.350000X0.450000X0.350000X-0.450000X0.350000X-0.450000X-0.350000X0*%
%TD*%
%TA.AperFunction,SMDPad,CuDef*%
%ADD12RoundRect,0.250000X-0.450000X0.325000X-0.450000X-0.325000X0.450000X-0.325000X0.450000X0.325000X0*%
%TD*%
%TA.AperFunction,ComponentPad*%
%ADD13RoundRect,0.250000X0.600000X-0.850000X0.600000X0.850000X-0.600000X0.850000X-0.600000X-0.850000X0*%
%TD*%
%TA.AperFunction,ComponentPad*%
%ADD14O,1.700000X2.200000*%
%TD*%
%TA.AperFunction,ComponentPad*%
%ADD15RoundRect,0.250001X-0.759999X0.499999X-0.759999X-0.499999X0.759999X-0.499999X0.759999X0.499999X0*%
%TD*%
%TA.AperFunction,ComponentPad*%
%ADD16O,2.020000X1.500000*%
%TD*%
%TA.AperFunction,SMDPad,CuDef*%
%ADD17RoundRect,0.250001X0.849999X-0.462499X0.849999X0.462499X-0.849999X0.462499X-0.849999X-0.462499X0*%
%TD*%
%TA.AperFunction,SMDPad,CuDef*%
%ADD18RoundRect,0.250000X-0.337500X-0.475000X0.337500X-0.475000X0.337500X0.475000X-0.337500X0.475000X0*%
%TD*%
%TA.AperFunction,ComponentPad*%
%ADD19R,1.700000X1.700000*%
%TD*%
%TA.AperFunction,ComponentPad*%
%ADD20O,1.700000X1.700000*%
%TD*%
%TA.AperFunction,SMDPad,CuDef*%
%ADD21RoundRect,0.250000X0.475000X-0.337500X0.475000X0.337500X-0.475000X0.337500X-0.475000X-0.337500X0*%
%TD*%
%TA.AperFunction,SMDPad,CuDef*%
%ADD22RoundRect,0.250000X-0.350000X-0.450000X0.350000X-0.450000X0.350000X0.450000X-0.350000X0.450000X0*%
%TD*%
%TA.AperFunction,ComponentPad*%
%ADD23R,1.000000X1.000000*%
%TD*%
%TA.AperFunction,SMDPad,CuDef*%
%ADD24RoundRect,0.024800X-0.305200X-0.130200X0.305200X-0.130200X0.305200X0.130200X-0.305200X0.130200X0*%
%TD*%
%TA.AperFunction,ViaPad*%
%ADD25C,0.600000*%
%TD*%
%TA.AperFunction,Conductor*%
%ADD26C,0.300000*%
%TD*%
%TA.AperFunction,Conductor*%
%ADD27C,0.250000*%
%TD*%
G04 APERTURE END LIST*
D10*
%TO.P,R4,1*%
%TO.N,/Rev*%
X145100000Y-79100000D03*
%TO.P,R4,2*%
%TO.N,Net-(REV1-A)*%
X145100000Y-81100000D03*
%TD*%
D11*
%TO.P,R3,1*%
%TO.N,+5V*%
X150500000Y-97300000D03*
%TO.P,R3,2*%
%TO.N,Net-(5VPWR1-A)*%
X150500000Y-95300000D03*
%TD*%
D12*
%TO.P,REV1,1,K*%
%TO.N,GND*%
X143000000Y-79075000D03*
%TO.P,REV1,2,A*%
%TO.N,Net-(REV1-A)*%
X143000000Y-81125000D03*
%TD*%
D13*
%TO.P,Motor1,1,Pin_1*%
%TO.N,/Rev*%
X144300000Y-75800000D03*
D14*
%TO.P,Motor1,2,Pin_2*%
%TO.N,Net-(Motor1-Pin_2)*%
X146800000Y-75800000D03*
%TO.P,Motor1,3,Pin_3*%
%TO.N,Net-(Motor1-Pin_3)*%
X149300000Y-75800000D03*
%TO.P,Motor1,4,Pin_4*%
%TO.N,+12V*%
X151800000Y-75800000D03*
%TO.P,Motor1,5,Pin_5*%
%TO.N,GND*%
X154300000Y-75800000D03*
%TD*%
D10*
%TO.P,Ren,1*%
%TO.N,Net-(U1-EN)*%
X151900000Y-108000000D03*
%TO.P,Ren,2*%
%TO.N,+12V*%
X151900000Y-110000000D03*
%TD*%
D15*
%TO.P,Battery1,1,Pin_1*%
%TO.N,Net-(Battery1-Pin_1)*%
X160900000Y-120500000D03*
D16*
%TO.P,Battery1,2,Pin_2*%
%TO.N,GND*%
X160900000Y-123500000D03*
%TD*%
D17*
%TO.P,L1,1*%
%TO.N,+5V*%
X144900000Y-109462500D03*
%TO.P,L1,2*%
%TO.N,Net-(U1-SW)*%
X144900000Y-107137500D03*
%TD*%
D18*
%TO.P,Cin,1*%
%TO.N,+12V*%
X147812500Y-102500000D03*
%TO.P,Cin,2*%
%TO.N,GND*%
X149887500Y-102500000D03*
%TD*%
D19*
%TO.P,Power,1,A*%
%TO.N,+12V*%
X153400000Y-123300000D03*
D20*
%TO.P,Power,2,B*%
%TO.N,Net-(Battery1-Pin_1)*%
X153400000Y-120760000D03*
%TD*%
D10*
%TO.P,Rfbt,1*%
%TO.N,+5V*%
X151900000Y-104000000D03*
%TO.P,Rfbt,2*%
%TO.N,Net-(U1-FB)*%
X151900000Y-106000000D03*
%TD*%
D11*
%TO.P,Rfbb,1*%
%TO.N,GND*%
X154000000Y-110000000D03*
%TO.P,Rfbb,2*%
%TO.N,Net-(U1-FB)*%
X154000000Y-108000000D03*
%TD*%
D19*
%TO.P,Servo1,1,Pin_1*%
%TO.N,Net-(Servo1-Pin_1)*%
X147100000Y-135400000D03*
D20*
%TO.P,Servo1,2,Pin_2*%
%TO.N,+5V*%
X149640000Y-135400000D03*
%TO.P,Servo1,3,Pin_3*%
%TO.N,GND*%
X152180000Y-135400000D03*
%TD*%
D12*
%TO.P,5V,1,K*%
%TO.N,GND*%
X150500000Y-91387500D03*
%TO.P,5V,2,A*%
%TO.N,Net-(5VPWR1-A)*%
X150500000Y-93437500D03*
%TD*%
D21*
%TO.P,Cff,1*%
%TO.N,Net-(U1-FB)*%
X154000000Y-105937500D03*
%TO.P,Cff,2*%
%TO.N,+5V*%
X154000000Y-103862500D03*
%TD*%
D18*
%TO.P,Cinx,1*%
%TO.N,+12V*%
X147812500Y-104600000D03*
%TO.P,Cinx,2*%
%TO.N,GND*%
X149887500Y-104600000D03*
%TD*%
D22*
%TO.P,R0,1*%
%TO.N,Net-(Motor1-Pin_3)*%
X153500000Y-79200000D03*
%TO.P,R0,2*%
%TO.N,GND*%
X155500000Y-79200000D03*
%TD*%
D12*
%TO.P,12V,1,K*%
%TO.N,GND*%
X148100000Y-91387500D03*
%TO.P,12V,2,A*%
%TO.N,Net-(12VPWR1-A)*%
X148100000Y-93437500D03*
%TD*%
D19*
%TO.P,Motor,1,A*%
%TO.N,/Motor_PWM*%
X150575000Y-85400000D03*
D20*
%TO.P,Motor,2,B*%
%TO.N,Net-(Motor1-Pin_2)*%
X148035000Y-85400000D03*
%TD*%
D23*
%TO.P,+5V,1,1*%
%TO.N,+5V*%
X160400000Y-107100000D03*
%TD*%
D24*
%TO.P,U1,1,VIN*%
%TO.N,+12V*%
X148130000Y-106600000D03*
%TO.P,U1,2,SW*%
%TO.N,Net-(U1-SW)*%
X148130000Y-107100000D03*
%TO.P,U1,3,GND*%
%TO.N,GND*%
X148130000Y-107600000D03*
%TO.P,U1,4,BST*%
%TO.N,Net-(U1-BST)*%
X149600000Y-107600000D03*
%TO.P,U1,5,EN*%
%TO.N,Net-(U1-EN)*%
X149600000Y-107100000D03*
%TO.P,U1,6,FB*%
%TO.N,Net-(U1-FB)*%
X149600000Y-106600000D03*
%TD*%
D19*
%TO.P,Servo,1,A*%
%TO.N,/Servo_PWM*%
X147100000Y-127560000D03*
D20*
%TO.P,Servo,2,B*%
%TO.N,Net-(Servo1-Pin_1)*%
X147100000Y-130100000D03*
%TD*%
D23*
%TO.P,GND,1,1*%
%TO.N,GND*%
X160400000Y-105000000D03*
%TD*%
D11*
%TO.P,R2,1*%
%TO.N,+12V*%
X148100000Y-97300000D03*
%TO.P,R2,2*%
%TO.N,Net-(12VPWR1-A)*%
X148100000Y-95300000D03*
%TD*%
D23*
%TO.P,Rev2,1,1*%
%TO.N,/Rev*%
X144005000Y-83900000D03*
%TD*%
%TO.P,+12V,1,1*%
%TO.N,+12V*%
X160400000Y-109200000D03*
%TD*%
D21*
%TO.P,Cout,1*%
%TO.N,+5V*%
X141800000Y-109137500D03*
%TO.P,Cout,2*%
%TO.N,GND*%
X141800000Y-107062500D03*
%TD*%
D18*
%TO.P,Cboot,1*%
%TO.N,Net-(U1-SW)*%
X147812500Y-109500000D03*
%TO.P,Cboot,2*%
%TO.N,Net-(U1-BST)*%
X149887500Y-109500000D03*
%TD*%
D19*
%TO.P,GPIO,1,Pin_1*%
%TO.N,GND*%
X138905000Y-81695000D03*
D20*
%TO.P,GPIO,2,Pin_2*%
%TO.N,unconnected-(GPIO1-Pin_2-Pad2)*%
X136365000Y-81695000D03*
%TO.P,GPIO,3,Pin_3*%
%TO.N,unconnected-(GPIO1-Pin_3-Pad3)*%
X138905000Y-84235000D03*
%TO.P,GPIO,4,Pin_4*%
%TO.N,unconnected-(GPIO1-Pin_4-Pad4)*%
X136365000Y-84235000D03*
%TO.P,GPIO,5,Pin_5*%
%TO.N,unconnected-(GPIO1-Pin_5-Pad5)*%
X138905000Y-86775000D03*
%TO.P,GPIO,6,Pin_6*%
%TO.N,unconnected-(GPIO1-Pin_6-Pad6)*%
X136365000Y-86775000D03*
%TO.P,GPIO,7,Pin_7*%
%TO.N,unconnected-(GPIO1-Pin_7-Pad7)*%
X138905000Y-89315000D03*
%TO.P,GPIO,8,Pin_8*%
%TO.N,GND*%
X136365000Y-89315000D03*
%TO.P,GPIO,9,Pin_9*%
%TO.N,unconnected-(GPIO1-Pin_9-Pad9)*%
X138905000Y-91855000D03*
%TO.P,GPIO,10,Pin_10*%
%TO.N,unconnected-(GPIO1-Pin_10-Pad10)*%
X136365000Y-91855000D03*
%TO.P,GPIO,11,Pin_11*%
%TO.N,unconnected-(GPIO1-Pin_11-Pad11)*%
X138905000Y-94395000D03*
%TO.P,GPIO,12,Pin_12*%
%TO.N,GND*%
X136365000Y-94395000D03*
%TO.P,GPIO,13,Pin_13*%
%TO.N,unconnected-(GPIO1-Pin_13-Pad13)*%
X138905000Y-96935000D03*
%TO.P,GPIO,14,Pin_14*%
%TO.N,unconnected-(GPIO1-Pin_14-Pad14)*%
X136365000Y-96935000D03*
%TO.P,GPIO,15,Pin_15*%
%TO.N,GND*%
X138905000Y-99475000D03*
%TO.P,GPIO,16,Pin_16*%
%TO.N,unconnected-(GPIO1-Pin_16-Pad16)*%
X136365000Y-99475000D03*
%TO.P,GPIO,17,Pin_17*%
%TO.N,unconnected-(GPIO1-Pin_17-Pad17)*%
X138905000Y-102015000D03*
%TO.P,GPIO,18,Pin_18*%
%TO.N,unconnected-(GPIO1-Pin_18-Pad18)*%
X136365000Y-102015000D03*
%TO.P,GPIO,19,Pin_19*%
%TO.N,unconnected-(GPIO1-Pin_19-Pad19)*%
X138905000Y-104555000D03*
%TO.P,GPIO,20,Pin_20*%
%TO.N,unconnected-(GPIO1-Pin_20-Pad20)*%
X136365000Y-104555000D03*
%TO.P,GPIO,21,Pin_21*%
%TO.N,unconnected-(GPIO1-Pin_21-Pad21)*%
X138905000Y-107095000D03*
%TO.P,GPIO,22,Pin_22*%
%TO.N,GND*%
X136365000Y-107095000D03*
%TO.P,GPIO,23,Pin_23*%
%TO.N,unconnected-(GPIO1-Pin_23-Pad23)*%
X138905000Y-109635000D03*
%TO.P,GPIO,24,Pin_24*%
%TO.N,/Motor_PWM*%
X136365000Y-109635000D03*
%TO.P,GPIO,25,Pin_25*%
%TO.N,/Rev*%
X138905000Y-112175000D03*
%TO.P,GPIO,26,Pin_26*%
%TO.N,/Servo_PWM*%
X136365000Y-112175000D03*
%TO.P,GPIO,27,Pin_27*%
%TO.N,unconnected-(GPIO1-Pin_27-Pad27)*%
X138905000Y-114715000D03*
%TO.P,GPIO,28,Pin_28*%
%TO.N,GND*%
X136365000Y-114715000D03*
%TO.P,GPIO,29,Pin_29*%
%TO.N,unconnected-(GPIO1-Pin_29-Pad29)*%
X138905000Y-117255000D03*
%TO.P,GPIO,30,Pin_30*%
%TO.N,unconnected-(GPIO1-Pin_30-Pad30)*%
X136365000Y-117255000D03*
%TO.P,GPIO,31,Pin_31*%
%TO.N,GND*%
X138905000Y-119795000D03*
%TO.P,GPIO,32,Pin_32*%
%TO.N,unconnected-(GPIO1-Pin_32-Pad32)*%
X136365000Y-119795000D03*
%TO.P,GPIO,33,Pin_33*%
%TO.N,unconnected-(GPIO1-Pin_33-Pad33)*%
X138905000Y-122335000D03*
%TO.P,GPIO,34,Pin_34*%
%TO.N,unconnected-(GPIO1-Pin_34-Pad34)*%
X136365000Y-122335000D03*
%TO.P,GPIO,35,Pin_35*%
%TO.N,unconnected-(GPIO1-Pin_35-Pad35)*%
X138905000Y-124875000D03*
%TO.P,GPIO,36,Pin_36*%
%TO.N,GND*%
X136365000Y-124875000D03*
%TO.P,GPIO,37,Pin_37*%
%TO.N,unconnected-(GPIO1-Pin_37-Pad37)*%
X138905000Y-127415000D03*
%TO.P,GPIO,38,Pin_38*%
%TO.N,+5V*%
X136365000Y-127415000D03*
%TO.P,GPIO,39,Pin_39*%
%TO.N,unconnected-(GPIO1-Pin_39-Pad39)*%
X138905000Y-129955000D03*
%TO.P,GPIO,40,Pin_40*%
%TO.N,+5V*%
X136365000Y-129955000D03*
%TD*%
D25*
%TO.N,+12V*%
X151900000Y-110000000D03*
X147812500Y-102520000D03*
%TO.N,GND*%
X150500000Y-91387500D03*
X143000000Y-79075000D03*
X149887500Y-102500000D03*
X148100000Y-91387500D03*
X155500000Y-79200000D03*
X154000000Y-110000000D03*
X141800000Y-107062500D03*
%TO.N,/Servo_PWM*%
X142085000Y-118635000D03*
X146005000Y-122555000D03*
%TD*%
D26*
%TO.N,+12V*%
X151900000Y-121800000D02*
X151900000Y-110000000D01*
X152900000Y-109000000D02*
X158500000Y-109000000D01*
D27*
X149330000Y-90070000D02*
X154500000Y-84900000D01*
X147812500Y-105812500D02*
X147812500Y-104600000D01*
X147812500Y-100187500D02*
X148100000Y-99900000D01*
D26*
X158700000Y-109200000D02*
X160400000Y-109200000D01*
D27*
X148130000Y-106600000D02*
X148130000Y-106130000D01*
D26*
X151900000Y-110000000D02*
X152900000Y-109000000D01*
X158500000Y-109000000D02*
X158700000Y-109200000D01*
D27*
X147812500Y-102520000D02*
X147812500Y-102500000D01*
D26*
X153400000Y-123300000D02*
X151900000Y-121800000D01*
D27*
X148100000Y-97300000D02*
X149330000Y-96070000D01*
X154500000Y-78300000D02*
X153900000Y-77700000D01*
X149330000Y-96070000D02*
X149330000Y-90070000D01*
X154500000Y-84900000D02*
X154500000Y-78300000D01*
X153900000Y-77700000D02*
X152600000Y-77700000D01*
X148130000Y-106130000D02*
X147812500Y-105812500D01*
X152600000Y-77700000D02*
X151800000Y-76900000D01*
X148100000Y-99900000D02*
X148100000Y-97300000D01*
X147812500Y-104600000D02*
X147812500Y-102520000D01*
X147812500Y-102500000D02*
X147812500Y-100187500D01*
X151800000Y-76900000D02*
X151800000Y-75800000D01*
%TO.N,Net-(5VPWR1-A)*%
X150500000Y-95300000D02*
X150500000Y-93437500D01*
%TO.N,GND*%
X148600000Y-107600000D02*
X148880000Y-107320000D01*
X149887500Y-104600000D02*
X149887500Y-102500000D01*
X149300000Y-105800000D02*
X149600000Y-105800000D01*
X149887500Y-105512500D02*
X149887500Y-104600000D01*
X149600000Y-105800000D02*
X149887500Y-105512500D01*
X148880000Y-107320000D02*
X148880000Y-106220000D01*
X148880000Y-106220000D02*
X149300000Y-105800000D01*
X148130000Y-107600000D02*
X148600000Y-107600000D01*
D26*
%TO.N,Net-(12VPWR1-A)*%
X148100000Y-95300000D02*
X148100000Y-93437500D01*
%TO.N,Net-(Battery1-Pin_1)*%
X156240000Y-120760000D02*
X153400000Y-120760000D01*
X156500000Y-120500000D02*
X156240000Y-120760000D01*
X160900000Y-120500000D02*
X156500000Y-120500000D01*
D27*
%TO.N,Net-(U1-BST)*%
X149600000Y-107600000D02*
X149600000Y-108300000D01*
X149600000Y-108300000D02*
X149887500Y-108587500D01*
X149887500Y-108587500D02*
X149887500Y-109500000D01*
%TO.N,Net-(U1-SW)*%
X144937500Y-107100000D02*
X144900000Y-107137500D01*
X147662500Y-109500000D02*
X147812500Y-109500000D01*
X144900000Y-107137500D02*
X145300000Y-107137500D01*
X145300000Y-107137500D02*
X147662500Y-109500000D01*
X148130000Y-107100000D02*
X144937500Y-107100000D01*
%TO.N,Net-(U1-FB)*%
X151900000Y-106000000D02*
X153937500Y-106000000D01*
X150000000Y-106600000D02*
X150600000Y-106000000D01*
X154000000Y-105937500D02*
X154000000Y-108000000D01*
X150600000Y-106000000D02*
X151900000Y-106000000D01*
X149600000Y-106600000D02*
X150000000Y-106600000D01*
X153937500Y-106000000D02*
X154000000Y-105937500D01*
%TO.N,/Servo_PWM*%
X142085000Y-118635000D02*
X139450000Y-116000000D01*
X139450000Y-116000000D02*
X138200000Y-116000000D01*
X147100000Y-127560000D02*
X147100000Y-123650000D01*
X138200000Y-116000000D02*
X137650000Y-115450000D01*
X137650000Y-115450000D02*
X137650000Y-113460000D01*
X147100000Y-123650000D02*
X146005000Y-122555000D01*
X137650000Y-113460000D02*
X136365000Y-112175000D01*
%TO.N,/Rev*%
X137650000Y-110920000D02*
X135640000Y-110920000D01*
X135050000Y-86170000D02*
X135720000Y-85500000D01*
X144300000Y-77000000D02*
X145100000Y-77800000D01*
X141200000Y-85500000D02*
X142800000Y-83900000D01*
X146270000Y-82830000D02*
X146270000Y-80270000D01*
X145200000Y-83900000D02*
X146270000Y-82830000D01*
X135720000Y-85500000D02*
X141200000Y-85500000D01*
X145100000Y-77800000D02*
X145100000Y-79100000D01*
X138905000Y-112175000D02*
X137650000Y-110920000D01*
X144300000Y-75800000D02*
X144300000Y-77000000D01*
X146270000Y-80270000D02*
X145100000Y-79100000D01*
X135050000Y-110330000D02*
X135050000Y-86170000D01*
X144005000Y-83900000D02*
X145200000Y-83900000D01*
X135640000Y-110920000D02*
X135050000Y-110330000D01*
X142800000Y-83900000D02*
X144005000Y-83900000D01*
%TO.N,/Motor_PWM*%
X137640000Y-108360000D02*
X137640000Y-88860000D01*
X138549000Y-87951000D02*
X149449000Y-87951000D01*
X150575000Y-86825000D02*
X150575000Y-85400000D01*
X149449000Y-87951000D02*
X150575000Y-86825000D01*
X137640000Y-88860000D02*
X138549000Y-87951000D01*
X136365000Y-109635000D02*
X137640000Y-108360000D01*
%TO.N,Net-(Motor1-Pin_3)*%
X150900000Y-79200000D02*
X149300000Y-77600000D01*
X149300000Y-77600000D02*
X149300000Y-75800000D01*
X153500000Y-79200000D02*
X150900000Y-79200000D01*
%TO.N,Net-(Motor1-Pin_2)*%
X148035000Y-80835000D02*
X146800000Y-79600000D01*
X146800000Y-79600000D02*
X146800000Y-75800000D01*
X148035000Y-85400000D02*
X148035000Y-80835000D01*
%TO.N,Net-(REV1-A)*%
X143000000Y-81125000D02*
X145075000Y-81125000D01*
X145075000Y-81125000D02*
X145100000Y-81100000D01*
%TO.N,Net-(U1-EN)*%
X150200000Y-107100000D02*
X151100000Y-108000000D01*
X151100000Y-108000000D02*
X151900000Y-108000000D01*
X149600000Y-107100000D02*
X150200000Y-107100000D01*
%TO.N,Net-(Servo1-Pin_1)*%
X147100000Y-135400000D02*
X147100000Y-130100000D01*
%TD*%
%TA.AperFunction,Conductor*%
%TO.N,+5V*%
G36*
X160707728Y-73775642D02*
G01*
X161023539Y-73792193D01*
X161034356Y-73793329D01*
X161344051Y-73842381D01*
X161354686Y-73844642D01*
X161657543Y-73925792D01*
X161667878Y-73929150D01*
X161960588Y-74041511D01*
X161970530Y-74045937D01*
X162249891Y-74188278D01*
X162259319Y-74193721D01*
X162522275Y-74364488D01*
X162531081Y-74370887D01*
X162774732Y-74568191D01*
X162782822Y-74575475D01*
X163004524Y-74797177D01*
X163011808Y-74805267D01*
X163209112Y-75048918D01*
X163215511Y-75057724D01*
X163386278Y-75320680D01*
X163391721Y-75330108D01*
X163534062Y-75609469D01*
X163538489Y-75619414D01*
X163650846Y-75912112D01*
X163654210Y-75922465D01*
X163735355Y-76225306D01*
X163737619Y-76235954D01*
X163786669Y-76545639D01*
X163787806Y-76556465D01*
X163804357Y-76872271D01*
X163804500Y-76877714D01*
X163804500Y-116976844D01*
X163784638Y-117037974D01*
X163732638Y-117075754D01*
X163668362Y-117075754D01*
X163616362Y-117037974D01*
X163614027Y-117034623D01*
X163547813Y-116935526D01*
X163424474Y-116812187D01*
X163279442Y-116715280D01*
X163279440Y-116715279D01*
X163118294Y-116648530D01*
X163118294Y-116648529D01*
X163044972Y-116633945D01*
X162947214Y-116614500D01*
X162772786Y-116614500D01*
X162687247Y-116631514D01*
X162601705Y-116648529D01*
X162601705Y-116648530D01*
X162440559Y-116715279D01*
X162440557Y-116715280D01*
X162295528Y-116812185D01*
X162295520Y-116812192D01*
X162172192Y-116935520D01*
X162172185Y-116935528D01*
X162075280Y-117080557D01*
X162075279Y-117080559D01*
X162008530Y-117241705D01*
X162008529Y-117241705D01*
X161985996Y-117354991D01*
X161974500Y-117412786D01*
X161974500Y-117587214D01*
X161976322Y-117596372D01*
X162008529Y-117758294D01*
X162075279Y-117919440D01*
X162075280Y-117919442D01*
X162172187Y-118064474D01*
X162295526Y-118187813D01*
X162440558Y-118284720D01*
X162601705Y-118351469D01*
X162601705Y-118351470D01*
X162601708Y-118351470D01*
X162601709Y-118351471D01*
X162772786Y-118385500D01*
X162772791Y-118385500D01*
X162947209Y-118385500D01*
X162947214Y-118385500D01*
X163118291Y-118351471D01*
X163118292Y-118351470D01*
X163118294Y-118351470D01*
X163118294Y-118351469D01*
X163279442Y-118284720D01*
X163424474Y-118187813D01*
X163547813Y-118064474D01*
X163614029Y-117965374D01*
X163664503Y-117925583D01*
X163728729Y-117923060D01*
X163782173Y-117958769D01*
X163804420Y-118019072D01*
X163804500Y-118023155D01*
X163804500Y-125976844D01*
X163784638Y-126037974D01*
X163732638Y-126075754D01*
X163668362Y-126075754D01*
X163616362Y-126037974D01*
X163614027Y-126034623D01*
X163608832Y-126026848D01*
X163547813Y-125935526D01*
X163424474Y-125812187D01*
X163279442Y-125715280D01*
X163279440Y-125715279D01*
X163118294Y-125648530D01*
X163118294Y-125648529D01*
X163044972Y-125633945D01*
X162947214Y-125614500D01*
X162772786Y-125614500D01*
X162687247Y-125631514D01*
X162601705Y-125648529D01*
X162601705Y-125648530D01*
X162440559Y-125715279D01*
X162440557Y-125715280D01*
X162295528Y-125812185D01*
X162295520Y-125812192D01*
X162172192Y-125935520D01*
X162172185Y-125935528D01*
X162075280Y-126080557D01*
X162075279Y-126080559D01*
X162008530Y-126241705D01*
X162008529Y-126241705D01*
X161991292Y-126328364D01*
X161974500Y-126412786D01*
X161974500Y-126587214D01*
X161991514Y-126672752D01*
X162008529Y-126758294D01*
X162073440Y-126915000D01*
X162075280Y-126919442D01*
X162172187Y-127064474D01*
X162295526Y-127187813D01*
X162440558Y-127284720D01*
X162601705Y-127351469D01*
X162601705Y-127351470D01*
X162601708Y-127351470D01*
X162601709Y-127351471D01*
X162772786Y-127385500D01*
X162772791Y-127385500D01*
X162947209Y-127385500D01*
X162947214Y-127385500D01*
X163118291Y-127351471D01*
X163118292Y-127351470D01*
X163118294Y-127351470D01*
X163118294Y-127351469D01*
X163279442Y-127284720D01*
X163424474Y-127187813D01*
X163547813Y-127064474D01*
X163614029Y-126965374D01*
X163664503Y-126925583D01*
X163728729Y-126923060D01*
X163782173Y-126958769D01*
X163804420Y-127019072D01*
X163804500Y-127023155D01*
X163804500Y-134672285D01*
X163804357Y-134677728D01*
X163787806Y-134993534D01*
X163786669Y-135004360D01*
X163737619Y-135314045D01*
X163735355Y-135324693D01*
X163654210Y-135627534D01*
X163650846Y-135637887D01*
X163538489Y-135930585D01*
X163534062Y-135940530D01*
X163391721Y-136219891D01*
X163386278Y-136229319D01*
X163215511Y-136492275D01*
X163209112Y-136501081D01*
X163011808Y-136744732D01*
X163004524Y-136752822D01*
X162782822Y-136974524D01*
X162774732Y-136981808D01*
X162531081Y-137179112D01*
X162522275Y-137185511D01*
X162259319Y-137356278D01*
X162249891Y-137361721D01*
X161970530Y-137504062D01*
X161960585Y-137508489D01*
X161667887Y-137620846D01*
X161657534Y-137624210D01*
X161354693Y-137705355D01*
X161344045Y-137707619D01*
X161034360Y-137756669D01*
X161023534Y-137757806D01*
X160707729Y-137774357D01*
X160702286Y-137774500D01*
X137907714Y-137774500D01*
X137902271Y-137774357D01*
X137586465Y-137757806D01*
X137575639Y-137756669D01*
X137265954Y-137707619D01*
X137255306Y-137705355D01*
X136952465Y-137624210D01*
X136942112Y-137620846D01*
X136649414Y-137508489D01*
X136639469Y-137504062D01*
X136360108Y-137361721D01*
X136350680Y-137356278D01*
X136087724Y-137185511D01*
X136078918Y-137179112D01*
X135835267Y-136981808D01*
X135827177Y-136974524D01*
X135605475Y-136752822D01*
X135598191Y-136744732D01*
X135400887Y-136501081D01*
X135394488Y-136492275D01*
X135223721Y-136229319D01*
X135218278Y-136219891D01*
X135212419Y-136208393D01*
X135075935Y-135940527D01*
X135071510Y-135930585D01*
X135067415Y-135919917D01*
X134959150Y-135637878D01*
X134955792Y-135627543D01*
X134874642Y-135324686D01*
X134872380Y-135314045D01*
X134870157Y-135300012D01*
X134823329Y-135004356D01*
X134822193Y-134993534D01*
X134817935Y-134912291D01*
X134805643Y-134677728D01*
X134805500Y-134672285D01*
X134805500Y-134560255D01*
X136154500Y-134560255D01*
X136154500Y-134789744D01*
X136184450Y-135017225D01*
X136184453Y-135017241D01*
X136243840Y-135238880D01*
X136243839Y-135238880D01*
X136274974Y-135314045D01*
X136331656Y-135450888D01*
X136446389Y-135649612D01*
X136586081Y-135831661D01*
X136748339Y-135993919D01*
X136930388Y-136133611D01*
X137129112Y-136248344D01*
X137341113Y-136336158D01*
X137341116Y-136336158D01*
X137341119Y-136336160D01*
X137406966Y-136353803D01*
X137562762Y-136395548D01*
X137691080Y-136412441D01*
X137790255Y-136425499D01*
X137790262Y-136425499D01*
X137790266Y-136425500D01*
X137790269Y-136425500D01*
X138019731Y-136425500D01*
X138019734Y-136425500D01*
X138019738Y-136425499D01*
X138019744Y-136425499D01*
X138089787Y-136416277D01*
X138247238Y-136395548D01*
X138468887Y-136336158D01*
X138680888Y-136248344D01*
X138879612Y-136133611D01*
X139061661Y-135993919D01*
X139223919Y-135831661D01*
X139363611Y-135649612D01*
X139478344Y-135450888D01*
X139566158Y-135238887D01*
X139625548Y-135017238D01*
X139655500Y-134789734D01*
X139655500Y-134560266D01*
X139625548Y-134332762D01*
X139566158Y-134111113D01*
X139478344Y-133899112D01*
X139363611Y-133700388D01*
X139223919Y-133518339D01*
X139061661Y-133356081D01*
X138879612Y-133216389D01*
X138680888Y-133101656D01*
X138468887Y-133013842D01*
X138468880Y-133013839D01*
X138280164Y-132963274D01*
X138247238Y-132954452D01*
X138247230Y-132954450D01*
X138247225Y-132954450D01*
X138019744Y-132924500D01*
X138019734Y-132924500D01*
X137790266Y-132924500D01*
X137790255Y-132924500D01*
X137562774Y-132954450D01*
X137562766Y-132954451D01*
X137562762Y-132954452D01*
X137562758Y-132954452D01*
X137562758Y-132954453D01*
X137341119Y-133013839D01*
X137129118Y-133101653D01*
X137129114Y-133101655D01*
X136930385Y-133216391D01*
X136748337Y-133356082D01*
X136586082Y-133518337D01*
X136446391Y-133700385D01*
X136331655Y-133899114D01*
X136331653Y-133899118D01*
X136243839Y-134111119D01*
X136184453Y-134332758D01*
X136184450Y-134332774D01*
X136154500Y-134560255D01*
X134805500Y-134560255D01*
X134805500Y-111108031D01*
X134825362Y-111046901D01*
X134877362Y-111009121D01*
X134941638Y-111009121D01*
X134983039Y-111034492D01*
X135199854Y-111251307D01*
X135199859Y-111251313D01*
X135291008Y-111342462D01*
X135320189Y-111399732D01*
X135310134Y-111463216D01*
X135301607Y-111477130D01*
X135278375Y-111509105D01*
X135278369Y-111509114D01*
X135187581Y-111687296D01*
X135125785Y-111877485D01*
X135094500Y-112075008D01*
X135094500Y-112274991D01*
X135125785Y-112472514D01*
X135187581Y-112662704D01*
X135187583Y-112662708D01*
X135278367Y-112840880D01*
X135278371Y-112840887D01*
X135395917Y-113002675D01*
X135537325Y-113144083D01*
X135699113Y-113261629D01*
X135699119Y-113261632D01*
X135877133Y-113352336D01*
X135922582Y-113397786D01*
X135932636Y-113461270D01*
X135903456Y-113518540D01*
X135877133Y-113537664D01*
X135699119Y-113628367D01*
X135699112Y-113628372D01*
X135537323Y-113745918D01*
X135395918Y-113887323D01*
X135278372Y-114049112D01*
X135278367Y-114049119D01*
X135187583Y-114227291D01*
X135187581Y-114227295D01*
X135125785Y-114417485D01*
X135094500Y-114615008D01*
X135094500Y-114814991D01*
X135125785Y-115012514D01*
X135187581Y-115202704D01*
X135187583Y-115202708D01*
X135278367Y-115380880D01*
X135278371Y-115380887D01*
X135395917Y-115542675D01*
X135537325Y-115684083D01*
X135699113Y-115801629D01*
X135699119Y-115801632D01*
X135877133Y-115892336D01*
X135922582Y-115937786D01*
X135932636Y-116001270D01*
X135903456Y-116058540D01*
X135877133Y-116077664D01*
X135699119Y-116168367D01*
X135699112Y-116168372D01*
X135537323Y-116285918D01*
X135395918Y-116427323D01*
X135395917Y-116427325D01*
X135278371Y-116589113D01*
X135278370Y-116589114D01*
X135278367Y-116589119D01*
X135187583Y-116767291D01*
X135187581Y-116767295D01*
X135125785Y-116957485D01*
X135125784Y-116957488D01*
X135125784Y-116957490D01*
X135094500Y-117155009D01*
X135094500Y-117354991D01*
X135113910Y-117477543D01*
X135125785Y-117552514D01*
X135187581Y-117742704D01*
X135187583Y-117742708D01*
X135278367Y-117920880D01*
X135278371Y-117920887D01*
X135395917Y-118082675D01*
X135537325Y-118224083D01*
X135699113Y-118341629D01*
X135699119Y-118341632D01*
X135877133Y-118432336D01*
X135922582Y-118477786D01*
X135932636Y-118541270D01*
X135903456Y-118598540D01*
X135877133Y-118617664D01*
X135699119Y-118708367D01*
X135699114Y-118708370D01*
X135699113Y-118708371D01*
X135638217Y-118752614D01*
X135537323Y-118825918D01*
X135395918Y-118967323D01*
X135278372Y-119129112D01*
X135278367Y-119129119D01*
X135187583Y-119307291D01*
X135187581Y-119307295D01*
X135125785Y-119497485D01*
X135125784Y-119497488D01*
X135125784Y-119497490D01*
X135094500Y-119695009D01*
X135094500Y-119894991D01*
X135118019Y-120043486D01*
X135125785Y-120092514D01*
X135187581Y-120282704D01*
X135187583Y-120282708D01*
X135278367Y-120460880D01*
X135278371Y-120460887D01*
X135395917Y-120622675D01*
X135537325Y-120764083D01*
X135699113Y-120881629D01*
X135699119Y-120881632D01*
X135877133Y-120972336D01*
X135922582Y-121017786D01*
X135932636Y-121081270D01*
X135903456Y-121138540D01*
X135877133Y-121157664D01*
X135699119Y-121248367D01*
X135699112Y-121248372D01*
X135537323Y-121365918D01*
X135395918Y-121507323D01*
X135322614Y-121608217D01*
X135317020Y-121615918D01*
X135278372Y-121669112D01*
X135278367Y-121669119D01*
X135187583Y-121847291D01*
X135187581Y-121847295D01*
X135125785Y-122037485D01*
X135125784Y-122037488D01*
X135125784Y-122037490D01*
X135094500Y-122235009D01*
X135094500Y-122434991D01*
X135121774Y-122607194D01*
X135125785Y-122632514D01*
X135187581Y-122822704D01*
X135187583Y-122822708D01*
X135278367Y-123000880D01*
X135278371Y-123000887D01*
X135395917Y-123162675D01*
X135537325Y-123304083D01*
X135699113Y-123421629D01*
X135699119Y-123421632D01*
X135877133Y-123512336D01*
X135922582Y-123557786D01*
X135932636Y-123621270D01*
X135903456Y-123678540D01*
X135877133Y-123697664D01*
X135699119Y-123788367D01*
X135699112Y-123788372D01*
X135537323Y-123905918D01*
X135395918Y-124047323D01*
X135395917Y-124047325D01*
X135297274Y-124183096D01*
X135278372Y-124209112D01*
X135278367Y-124209119D01*
X135187583Y-124387291D01*
X135187581Y-124387295D01*
X135125785Y-124577485D01*
X135125784Y-124577488D01*
X135125784Y-124577490D01*
X135124635Y-124584744D01*
X135094500Y-124775008D01*
X135094500Y-124974991D01*
X135125785Y-125172514D01*
X135187581Y-125362704D01*
X135187583Y-125362708D01*
X135278367Y-125540880D01*
X135278371Y-125540887D01*
X135395917Y-125702675D01*
X135537325Y-125844083D01*
X135699113Y-125961629D01*
X135789579Y-126007724D01*
X135835027Y-126053172D01*
X135845082Y-126116656D01*
X135815901Y-126173926D01*
X135789577Y-126193051D01*
X135657457Y-126260369D01*
X135657445Y-126260377D01*
X135485532Y-126385279D01*
X135335279Y-126535532D01*
X135210377Y-126707445D01*
X135210375Y-126707447D01*
X135113906Y-126896779D01*
X135048243Y-127098869D01*
X135037769Y-127165000D01*
X135931988Y-127165000D01*
X135899075Y-127222007D01*
X135865000Y-127349174D01*
X135865000Y-127480826D01*
X135899075Y-127607993D01*
X135931988Y-127665000D01*
X135037769Y-127665000D01*
X135048243Y-127731130D01*
X135113906Y-127933220D01*
X135210375Y-128122552D01*
X135210377Y-128122554D01*
X135335279Y-128294467D01*
X135485532Y-128444720D01*
X135657445Y-128569622D01*
X135657457Y-128569630D01*
X135702020Y-128592336D01*
X135747470Y-128637785D01*
X135757525Y-128701270D01*
X135728344Y-128758539D01*
X135702020Y-128777664D01*
X135657457Y-128800369D01*
X135657445Y-128800377D01*
X135485532Y-128925279D01*
X135335279Y-129075532D01*
X135210377Y-129247445D01*
X135210375Y-129247447D01*
X135113906Y-129436779D01*
X135048243Y-129638869D01*
X135037769Y-129705000D01*
X135931988Y-129705000D01*
X135899075Y-129762007D01*
X135865000Y-129889174D01*
X135865000Y-130020826D01*
X135899075Y-130147993D01*
X135931988Y-130205000D01*
X135037769Y-130205000D01*
X135048243Y-130271130D01*
X135113906Y-130473220D01*
X135210375Y-130662552D01*
X135210377Y-130662554D01*
X135335279Y-130834467D01*
X135485532Y-130984720D01*
X135657445Y-131109622D01*
X135657447Y-131109624D01*
X135846779Y-131206093D01*
X135846778Y-131206093D01*
X136048869Y-131271756D01*
X136115000Y-131282230D01*
X136115000Y-130388012D01*
X136172007Y-130420925D01*
X136299174Y-130455000D01*
X136430826Y-130455000D01*
X136557993Y-130420925D01*
X136615000Y-130388012D01*
X136615000Y-131282230D01*
X136681130Y-131271756D01*
X136883220Y-131206093D01*
X137072552Y-131109624D01*
X137072554Y-131109622D01*
X137244467Y-130984720D01*
X137394720Y-130834467D01*
X137519622Y-130662554D01*
X137519623Y-130662552D01*
X137586947Y-130530422D01*
X137632397Y-130484973D01*
X137695881Y-130474917D01*
X137753151Y-130504098D01*
X137772276Y-130530422D01*
X137818364Y-130620875D01*
X137818367Y-130620880D01*
X137818371Y-130620887D01*
X137935917Y-130782675D01*
X138077325Y-130924083D01*
X138239113Y-131041629D01*
X138417297Y-131132419D01*
X138607490Y-131194216D01*
X138805009Y-131225500D01*
X138805013Y-131225500D01*
X139004987Y-131225500D01*
X139004991Y-131225500D01*
X139202510Y-131194216D01*
X139392703Y-131132419D01*
X139570887Y-131041629D01*
X139732675Y-130924083D01*
X139874083Y-130782675D01*
X139991629Y-130620887D01*
X140082419Y-130442703D01*
X140144216Y-130252510D01*
X140175500Y-130054991D01*
X140175500Y-129855009D01*
X140144216Y-129657490D01*
X140082419Y-129467297D01*
X139991629Y-129289113D01*
X139874083Y-129127325D01*
X139732675Y-128985917D01*
X139570887Y-128868371D01*
X139570880Y-128868367D01*
X139570875Y-128868364D01*
X139392867Y-128777664D01*
X139347417Y-128732215D01*
X139337362Y-128668730D01*
X139366543Y-128611461D01*
X139392867Y-128592336D01*
X139570875Y-128501635D01*
X139570874Y-128501635D01*
X139570887Y-128501629D01*
X139732675Y-128384083D01*
X139874083Y-128242675D01*
X139991629Y-128080887D01*
X140082419Y-127902703D01*
X140144216Y-127712510D01*
X140175500Y-127514991D01*
X140175500Y-127315009D01*
X140144216Y-127117490D01*
X140082419Y-126927297D01*
X139991629Y-126749113D01*
X139874083Y-126587325D01*
X139732675Y-126445917D01*
X139570887Y-126328371D01*
X139570880Y-126328367D01*
X139570875Y-126328364D01*
X139392867Y-126237664D01*
X139347417Y-126192215D01*
X139337362Y-126128730D01*
X139366543Y-126071461D01*
X139392867Y-126052336D01*
X139570875Y-125961635D01*
X139570874Y-125961635D01*
X139570887Y-125961629D01*
X139732675Y-125844083D01*
X139874083Y-125702675D01*
X139991629Y-125540887D01*
X140082419Y-125362703D01*
X140144216Y-125172510D01*
X140175500Y-124974991D01*
X140175500Y-124775009D01*
X140144216Y-124577490D01*
X140082419Y-124387297D01*
X139991629Y-124209113D01*
X139874083Y-124047325D01*
X139732675Y-123905917D01*
X139570887Y-123788371D01*
X139570880Y-123788367D01*
X139570875Y-123788364D01*
X139392867Y-123697664D01*
X139347417Y-123652215D01*
X139337362Y-123588730D01*
X139366543Y-123531461D01*
X139392867Y-123512336D01*
X139570875Y-123421635D01*
X139570874Y-123421635D01*
X139570887Y-123421629D01*
X139732675Y-123304083D01*
X139874083Y-123162675D01*
X139991629Y-123000887D01*
X140082419Y-122822703D01*
X140144216Y-122632510D01*
X140167732Y-122484037D01*
X145284500Y-122484037D01*
X145284500Y-122625963D01*
X145312189Y-122765162D01*
X145366501Y-122896285D01*
X145366502Y-122896287D01*
X145445347Y-123014287D01*
X145445349Y-123014290D01*
X145445351Y-123014292D01*
X145545708Y-123114649D01*
X145663715Y-123193499D01*
X145794838Y-123247811D01*
X145928074Y-123274314D01*
X145981323Y-123302776D01*
X146524039Y-123845492D01*
X146553220Y-123902762D01*
X146554500Y-123919031D01*
X146554500Y-126185500D01*
X146534638Y-126246630D01*
X146482638Y-126284410D01*
X146450500Y-126289500D01*
X146216909Y-126289500D01*
X146216901Y-126289501D01*
X146176515Y-126295897D01*
X146118438Y-126305095D01*
X146118436Y-126305096D01*
X146118435Y-126305096D01*
X145999755Y-126365566D01*
X145905566Y-126459755D01*
X145845095Y-126578436D01*
X145829500Y-126676902D01*
X145829500Y-128443090D01*
X145829501Y-128443096D01*
X145845095Y-128541562D01*
X145845096Y-128541563D01*
X145845096Y-128541564D01*
X145894123Y-128637786D01*
X145905567Y-128660245D01*
X145999755Y-128754433D01*
X146118438Y-128814905D01*
X146216903Y-128830500D01*
X146365736Y-128830499D01*
X146426864Y-128850361D01*
X146464645Y-128902361D01*
X146464645Y-128966636D01*
X146426865Y-129018636D01*
X146426865Y-129018637D01*
X146272323Y-129130918D01*
X146130918Y-129272323D01*
X146118715Y-129289119D01*
X146019973Y-129425027D01*
X146013372Y-129434112D01*
X146013367Y-129434119D01*
X145922583Y-129612291D01*
X145922581Y-129612295D01*
X145860785Y-129802485D01*
X145860784Y-129802488D01*
X145860784Y-129802490D01*
X145829500Y-130000009D01*
X145829500Y-130199991D01*
X145839322Y-130262007D01*
X145860785Y-130397514D01*
X145922581Y-130587704D01*
X145922583Y-130587708D01*
X146013367Y-130765880D01*
X146013371Y-130765887D01*
X146130917Y-130927675D01*
X146272325Y-131069083D01*
X146434113Y-131186629D01*
X146472313Y-131206093D01*
X146497714Y-131219035D01*
X146543164Y-131264484D01*
X146554500Y-131311700D01*
X146554500Y-134025500D01*
X146534638Y-134086630D01*
X146482638Y-134124410D01*
X146450500Y-134129500D01*
X146216909Y-134129500D01*
X146216901Y-134129501D01*
X146176515Y-134135897D01*
X146118438Y-134145095D01*
X146118436Y-134145096D01*
X146118435Y-134145096D01*
X145999755Y-134205566D01*
X145905566Y-134299755D01*
X145845095Y-134418436D01*
X145829500Y-134516902D01*
X145829500Y-136283090D01*
X145829501Y-136283096D01*
X145845095Y-136381562D01*
X145845096Y-136381563D01*
X145845096Y-136381564D01*
X145905566Y-136500244D01*
X145999755Y-136594433D01*
X146110956Y-136651093D01*
X146118438Y-136654905D01*
X146216903Y-136670500D01*
X147983096Y-136670499D01*
X148081562Y-136654905D01*
X148200245Y-136594433D01*
X148294433Y-136500245D01*
X148354905Y-136381562D01*
X148370500Y-136283097D01*
X148370499Y-136269520D01*
X148390358Y-136208393D01*
X148442356Y-136170610D01*
X148506631Y-136170606D01*
X148558633Y-136208384D01*
X148558636Y-136208388D01*
X148610273Y-136279459D01*
X148610281Y-136279469D01*
X148760532Y-136429720D01*
X148932445Y-136554622D01*
X148932447Y-136554624D01*
X149121779Y-136651093D01*
X149121778Y-136651093D01*
X149323869Y-136716756D01*
X149390000Y-136727230D01*
X149390000Y-135833012D01*
X149447007Y-135865925D01*
X149574174Y-135900000D01*
X149705826Y-135900000D01*
X149832993Y-135865925D01*
X149890000Y-135833012D01*
X149890000Y-136727230D01*
X149956130Y-136716756D01*
X150158220Y-136651093D01*
X150347552Y-136554624D01*
X150347554Y-136554622D01*
X150519467Y-136429720D01*
X150669720Y-136279467D01*
X150794622Y-136107554D01*
X150794623Y-136107552D01*
X150861947Y-135975422D01*
X150907397Y-135929973D01*
X150970881Y-135919917D01*
X151028151Y-135949098D01*
X151047276Y-135975422D01*
X151093364Y-136065875D01*
X151093367Y-136065880D01*
X151093371Y-136065887D01*
X151210917Y-136227675D01*
X151352325Y-136369083D01*
X151514113Y-136486629D01*
X151692297Y-136577419D01*
X151882490Y-136639216D01*
X152080009Y-136670500D01*
X152080013Y-136670500D01*
X152279987Y-136670500D01*
X152279991Y-136670500D01*
X152477510Y-136639216D01*
X152667703Y-136577419D01*
X152845887Y-136486629D01*
X153007675Y-136369083D01*
X153149083Y-136227675D01*
X153266629Y-136065887D01*
X153357419Y-135887703D01*
X153419216Y-135697510D01*
X153450500Y-135499991D01*
X153450500Y-135300009D01*
X153419216Y-135102490D01*
X153357419Y-134912297D01*
X153266629Y-134734113D01*
X153149083Y-134572325D01*
X153137013Y-134560255D01*
X158954500Y-134560255D01*
X158954500Y-134789744D01*
X158984450Y-135017225D01*
X158984453Y-135017241D01*
X159043840Y-135238880D01*
X159043839Y-135238880D01*
X159074974Y-135314045D01*
X159131656Y-135450888D01*
X159246389Y-135649612D01*
X159386081Y-135831661D01*
X159548339Y-135993919D01*
X159730388Y-136133611D01*
X159929112Y-136248344D01*
X160141113Y-136336158D01*
X160141116Y-136336158D01*
X160141119Y-136336160D01*
X160206966Y-136353803D01*
X160362762Y-136395548D01*
X160491080Y-136412441D01*
X160590255Y-136425499D01*
X160590262Y-136425499D01*
X160590266Y-136425500D01*
X160590269Y-136425500D01*
X160819731Y-136425500D01*
X160819734Y-136425500D01*
X160819738Y-136425499D01*
X160819744Y-136425499D01*
X160889787Y-136416277D01*
X161047238Y-136395548D01*
X161268887Y-136336158D01*
X161480888Y-136248344D01*
X161679612Y-136133611D01*
X161861661Y-135993919D01*
X162023919Y-135831661D01*
X162163611Y-135649612D01*
X162278344Y-135450888D01*
X162366158Y-135238887D01*
X162425548Y-135017238D01*
X162455500Y-134789734D01*
X162455500Y-134560266D01*
X162425548Y-134332762D01*
X162366158Y-134111113D01*
X162278344Y-133899112D01*
X162163611Y-133700388D01*
X162023919Y-133518339D01*
X161861661Y-133356081D01*
X161679612Y-133216389D01*
X161480888Y-133101656D01*
X161268887Y-133013842D01*
X161268880Y-133013839D01*
X161080164Y-132963274D01*
X161047238Y-132954452D01*
X161047230Y-132954450D01*
X161047225Y-132954450D01*
X160819744Y-132924500D01*
X160819734Y-132924500D01*
X160590266Y-132924500D01*
X160590255Y-132924500D01*
X160362774Y-132954450D01*
X160362766Y-132954451D01*
X160362762Y-132954452D01*
X160362758Y-132954452D01*
X160362758Y-132954453D01*
X160141119Y-133013839D01*
X159929118Y-133101653D01*
X159929114Y-133101655D01*
X159730385Y-133216391D01*
X159548337Y-133356082D01*
X159386082Y-133518337D01*
X159246391Y-133700385D01*
X159131655Y-133899114D01*
X159131653Y-133899118D01*
X159043839Y-134111119D01*
X158984453Y-134332758D01*
X158984450Y-134332774D01*
X158954500Y-134560255D01*
X153137013Y-134560255D01*
X153007675Y-134430917D01*
X152845887Y-134313371D01*
X152845882Y-134313368D01*
X152845880Y-134313367D01*
X152667708Y-134222583D01*
X152667704Y-134222581D01*
X152477514Y-134160785D01*
X152477512Y-134160784D01*
X152477510Y-134160784D01*
X152279991Y-134129500D01*
X152080009Y-134129500D01*
X152080008Y-134129500D01*
X151994638Y-134143021D01*
X151882490Y-134160784D01*
X151882488Y-134160784D01*
X151882485Y-134160785D01*
X151692295Y-134222581D01*
X151692291Y-134222583D01*
X151514119Y-134313367D01*
X151514112Y-134313372D01*
X151352323Y-134430918D01*
X151210918Y-134572323D01*
X151093372Y-134734112D01*
X151093367Y-134734119D01*
X151047276Y-134824578D01*
X151001826Y-134870027D01*
X150938342Y-134880081D01*
X150881072Y-134850900D01*
X150861947Y-134824577D01*
X150794624Y-134692447D01*
X150794622Y-134692445D01*
X150669720Y-134520532D01*
X150519467Y-134370279D01*
X150347554Y-134245377D01*
X150347552Y-134245375D01*
X150158220Y-134148906D01*
X150158221Y-134148906D01*
X149956126Y-134083241D01*
X149890000Y-134072767D01*
X149890000Y-134966988D01*
X149832993Y-134934075D01*
X149705826Y-134900000D01*
X149574174Y-134900000D01*
X149447007Y-134934075D01*
X149390000Y-134966988D01*
X149390000Y-134072768D01*
X149389999Y-134072767D01*
X149323873Y-134083241D01*
X149121779Y-134148906D01*
X148932447Y-134245375D01*
X148932445Y-134245377D01*
X148760532Y-134370279D01*
X148610281Y-134520530D01*
X148610273Y-134520540D01*
X148558636Y-134591612D01*
X148506636Y-134629392D01*
X148442361Y-134629392D01*
X148390361Y-134591611D01*
X148370499Y-134530482D01*
X148370499Y-134516909D01*
X148370499Y-134516904D01*
X148354905Y-134418438D01*
X148294433Y-134299755D01*
X148200245Y-134205567D01*
X148200244Y-134205566D01*
X148081563Y-134145095D01*
X147983097Y-134129500D01*
X147749500Y-134129500D01*
X147688370Y-134109638D01*
X147650590Y-134057638D01*
X147645500Y-134025500D01*
X147645500Y-131311700D01*
X147665362Y-131250570D01*
X147702286Y-131219035D01*
X147765887Y-131186629D01*
X147927675Y-131069083D01*
X148069083Y-130927675D01*
X148186629Y-130765887D01*
X148277419Y-130587703D01*
X148339216Y-130397510D01*
X148370500Y-130199991D01*
X148370500Y-130000009D01*
X148339216Y-129802490D01*
X148277419Y-129612297D01*
X148186629Y-129434113D01*
X148069083Y-129272325D01*
X147927675Y-129130917D01*
X147773132Y-129018635D01*
X147735354Y-128966637D01*
X147735354Y-128902361D01*
X147773134Y-128850361D01*
X147834264Y-128830499D01*
X147983091Y-128830499D01*
X147983096Y-128830499D01*
X148081562Y-128814905D01*
X148200245Y-128754433D01*
X148294433Y-128660245D01*
X148354905Y-128541562D01*
X148370500Y-128443097D01*
X148370499Y-126676904D01*
X148354905Y-126578438D01*
X148294433Y-126459755D01*
X148200245Y-126365567D01*
X148200244Y-126365566D01*
X148081563Y-126305095D01*
X147983097Y-126289500D01*
X147749500Y-126289500D01*
X147688370Y-126269638D01*
X147650590Y-126217638D01*
X147645500Y-126185500D01*
X147645500Y-123578184D01*
X147645499Y-123578179D01*
X147608326Y-123439449D01*
X147608325Y-123439445D01*
X147587742Y-123403794D01*
X147536512Y-123315059D01*
X147536507Y-123315053D01*
X147431318Y-123209864D01*
X147431307Y-123209854D01*
X146752776Y-122531323D01*
X146724314Y-122478074D01*
X146697811Y-122344838D01*
X146643499Y-122213715D01*
X146564649Y-122095708D01*
X146464292Y-121995351D01*
X146464290Y-121995349D01*
X146464287Y-121995347D01*
X146346287Y-121916502D01*
X146312811Y-121902636D01*
X146215162Y-121862189D01*
X146215160Y-121862188D01*
X146215159Y-121862188D01*
X146140266Y-121847291D01*
X146075963Y-121834500D01*
X145934037Y-121834500D01*
X145873062Y-121846629D01*
X145794840Y-121862188D01*
X145663712Y-121916502D01*
X145545712Y-121995347D01*
X145545704Y-121995354D01*
X145445354Y-122095704D01*
X145445347Y-122095712D01*
X145366502Y-122213712D01*
X145312188Y-122344840D01*
X145298182Y-122415255D01*
X145284500Y-122484037D01*
X140167732Y-122484037D01*
X140175500Y-122434991D01*
X140175500Y-122235009D01*
X140144216Y-122037490D01*
X140082419Y-121847297D01*
X139991629Y-121669113D01*
X139874083Y-121507325D01*
X139732675Y-121365917D01*
X139570887Y-121248371D01*
X139570880Y-121248367D01*
X139570875Y-121248364D01*
X139392867Y-121157664D01*
X139347417Y-121112215D01*
X139337362Y-121048730D01*
X139366543Y-120991461D01*
X139392867Y-120972336D01*
X139570875Y-120881635D01*
X139570874Y-120881635D01*
X139570887Y-120881629D01*
X139732675Y-120764083D01*
X139874083Y-120622675D01*
X139991629Y-120460887D01*
X140082419Y-120282703D01*
X140144216Y-120092510D01*
X140175500Y-119894991D01*
X140175500Y-119695009D01*
X140144216Y-119497490D01*
X140082419Y-119307297D01*
X139991629Y-119129113D01*
X139874083Y-118967325D01*
X139732675Y-118825917D01*
X139570887Y-118708371D01*
X139570880Y-118708367D01*
X139570875Y-118708364D01*
X139392867Y-118617664D01*
X139347417Y-118572215D01*
X139337362Y-118508730D01*
X139366543Y-118451461D01*
X139392867Y-118432336D01*
X139570875Y-118341635D01*
X139570874Y-118341635D01*
X139570887Y-118341629D01*
X139732675Y-118224083D01*
X139874083Y-118082675D01*
X139991629Y-117920887D01*
X140082419Y-117742703D01*
X140113068Y-117648371D01*
X140150848Y-117596373D01*
X140211977Y-117576510D01*
X140273107Y-117596372D01*
X140285517Y-117606971D01*
X141337223Y-118658676D01*
X141365686Y-118711925D01*
X141392188Y-118845160D01*
X141446502Y-118976287D01*
X141525347Y-119094287D01*
X141525349Y-119094290D01*
X141525351Y-119094292D01*
X141625708Y-119194649D01*
X141743715Y-119273499D01*
X141874838Y-119327811D01*
X142014037Y-119355500D01*
X142014040Y-119355500D01*
X142155960Y-119355500D01*
X142155963Y-119355500D01*
X142295162Y-119327811D01*
X142426285Y-119273499D01*
X142544292Y-119194649D01*
X142644649Y-119094292D01*
X142723499Y-118976285D01*
X142777811Y-118845162D01*
X142805500Y-118705963D01*
X142805500Y-118564037D01*
X142777811Y-118424838D01*
X142723499Y-118293715D01*
X142652738Y-118187814D01*
X142644652Y-118175712D01*
X142644650Y-118175710D01*
X142644649Y-118175708D01*
X142544292Y-118075351D01*
X142544290Y-118075349D01*
X142544287Y-118075347D01*
X142426287Y-117996502D01*
X142426285Y-117996501D01*
X142295162Y-117942189D01*
X142161925Y-117915685D01*
X142108678Y-117887224D01*
X139892439Y-115670986D01*
X139892419Y-115670966D01*
X139890601Y-115669147D01*
X139882447Y-115653134D01*
X139879445Y-115655136D01*
X139879443Y-115655133D01*
X139882445Y-115653131D01*
X139876350Y-115641160D01*
X139861440Y-115611897D01*
X139861442Y-115611881D01*
X139861436Y-115611869D01*
X139866297Y-115581228D01*
X139871495Y-115548413D01*
X139871507Y-115548393D01*
X139871508Y-115548388D01*
X139871513Y-115548382D01*
X139880017Y-115534506D01*
X139991629Y-115380887D01*
X140082419Y-115202703D01*
X140144216Y-115012510D01*
X140175500Y-114814991D01*
X140175500Y-114615009D01*
X140144216Y-114417490D01*
X140082419Y-114227297D01*
X139991629Y-114049113D01*
X139874083Y-113887325D01*
X139732675Y-113745917D01*
X139570887Y-113628371D01*
X139570880Y-113628367D01*
X139570875Y-113628364D01*
X139392867Y-113537664D01*
X139347417Y-113492215D01*
X139337362Y-113428730D01*
X139366543Y-113371461D01*
X139392867Y-113352336D01*
X139570875Y-113261635D01*
X139570874Y-113261635D01*
X139570887Y-113261629D01*
X139732675Y-113144083D01*
X139874083Y-113002675D01*
X139991629Y-112840887D01*
X140082419Y-112662703D01*
X140144216Y-112472510D01*
X140175500Y-112274991D01*
X140175500Y-112075009D01*
X140144216Y-111877490D01*
X140082419Y-111687297D01*
X139991629Y-111509113D01*
X139874083Y-111347325D01*
X139732675Y-111205917D01*
X139570887Y-111088371D01*
X139570880Y-111088367D01*
X139570875Y-111088364D01*
X139392867Y-110997664D01*
X139347417Y-110952215D01*
X139337362Y-110888730D01*
X139366543Y-110831461D01*
X139392867Y-110812336D01*
X139570875Y-110721635D01*
X139570874Y-110721635D01*
X139570887Y-110721629D01*
X139732675Y-110604083D01*
X139874083Y-110462675D01*
X139991629Y-110300887D01*
X140082419Y-110122703D01*
X140144216Y-109932510D01*
X140175500Y-109734991D01*
X140175500Y-109535009D01*
X140173911Y-109524979D01*
X140575001Y-109524979D01*
X140585493Y-109627691D01*
X140585495Y-109627698D01*
X140640640Y-109794118D01*
X140640643Y-109794125D01*
X140732680Y-109943340D01*
X140732684Y-109943345D01*
X140856654Y-110067315D01*
X140856659Y-110067319D01*
X141005874Y-110159356D01*
X141005881Y-110159359D01*
X141172302Y-110214505D01*
X141172307Y-110214506D01*
X141275013Y-110224999D01*
X141550000Y-110224999D01*
X142050000Y-110224999D01*
X142324975Y-110224999D01*
X142324979Y-110224998D01*
X142427691Y-110214506D01*
X142427698Y-110214504D01*
X142594118Y-110159359D01*
X142594125Y-110159356D01*
X142743340Y-110067319D01*
X142743345Y-110067315D01*
X142835666Y-109974994D01*
X143300000Y-109974994D01*
X143310493Y-110077691D01*
X143310494Y-110077696D01*
X143365640Y-110244117D01*
X143365643Y-110244124D01*
X143457680Y-110393339D01*
X143457684Y-110393344D01*
X143581655Y-110517315D01*
X143581660Y-110517319D01*
X143730875Y-110609356D01*
X143730882Y-110609359D01*
X143897303Y-110664505D01*
X143897308Y-110664506D01*
X144000005Y-110674999D01*
X144000024Y-110675000D01*
X144650000Y-110675000D01*
X145150000Y-110675000D01*
X145799976Y-110675000D01*
X145799994Y-110674999D01*
X145902691Y-110664506D01*
X145902696Y-110664505D01*
X146069117Y-110609359D01*
X146069124Y-110609356D01*
X146218339Y-110517319D01*
X146218344Y-110517315D01*
X146342315Y-110393344D01*
X146342319Y-110393339D01*
X146434356Y-110244124D01*
X146434359Y-110244117D01*
X146489505Y-110077696D01*
X146489506Y-110077691D01*
X146499999Y-109974994D01*
X146500000Y-109974976D01*
X146500000Y-109712500D01*
X145150000Y-109712500D01*
X145150000Y-110675000D01*
X144650000Y-110675000D01*
X144650000Y-109712500D01*
X143300000Y-109712500D01*
X143300000Y-109974994D01*
X142835666Y-109974994D01*
X142867315Y-109943345D01*
X142867319Y-109943340D01*
X142959356Y-109794125D01*
X142959360Y-109794115D01*
X143011519Y-109636710D01*
X143011519Y-109636709D01*
X143011520Y-109636707D01*
X143014504Y-109627699D01*
X143014506Y-109627692D01*
X143024999Y-109524995D01*
X143025000Y-109524977D01*
X143025000Y-109387500D01*
X142050000Y-109387500D01*
X142050000Y-110224999D01*
X141550000Y-110224999D01*
X141550000Y-109387500D01*
X140575001Y-109387500D01*
X140575001Y-109524979D01*
X140173911Y-109524979D01*
X140144216Y-109337490D01*
X140082419Y-109147297D01*
X139991629Y-108969113D01*
X139874083Y-108807325D01*
X139816762Y-108750004D01*
X140575000Y-108750004D01*
X140575000Y-108887500D01*
X143024999Y-108887500D01*
X143024999Y-108750024D01*
X143024998Y-108750020D01*
X143014506Y-108647308D01*
X143014504Y-108647301D01*
X142959359Y-108480881D01*
X142959356Y-108480874D01*
X142867319Y-108331659D01*
X142867315Y-108331654D01*
X142743345Y-108207684D01*
X142743343Y-108207683D01*
X142636677Y-108141890D01*
X142595076Y-108092893D01*
X142590220Y-108028802D01*
X142623963Y-107974096D01*
X142637472Y-107964373D01*
X142691545Y-107931684D01*
X142691544Y-107931684D01*
X142691547Y-107931683D01*
X142806683Y-107816547D01*
X142863990Y-107721750D01*
X142890916Y-107677210D01*
X142890916Y-107677208D01*
X142890920Y-107677203D01*
X142939361Y-107521749D01*
X142945500Y-107454195D01*
X142945499Y-106670806D01*
X142945498Y-106670803D01*
X142945498Y-106670791D01*
X142943863Y-106652807D01*
X142939361Y-106603251D01*
X142890920Y-106447797D01*
X142890918Y-106447793D01*
X142890916Y-106447789D01*
X142806684Y-106308454D01*
X142691545Y-106193315D01*
X142552210Y-106109083D01*
X142552203Y-106109080D01*
X142396749Y-106060639D01*
X142396746Y-106060638D01*
X142396744Y-106060638D01*
X142356201Y-106056954D01*
X142329195Y-106054500D01*
X142329191Y-106054500D01*
X141270807Y-106054500D01*
X141270791Y-106054501D01*
X141203251Y-106060639D01*
X141047796Y-106109080D01*
X141047789Y-106109083D01*
X140908454Y-106193315D01*
X140793315Y-106308454D01*
X140709083Y-106447789D01*
X140709080Y-106447796D01*
X140660640Y-106603248D01*
X140660638Y-106603255D01*
X140654500Y-106670800D01*
X140654500Y-107454192D01*
X140654501Y-107454208D01*
X140660229Y-107517245D01*
X140660639Y-107521749D01*
X140683711Y-107595791D01*
X140709080Y-107677203D01*
X140709083Y-107677210D01*
X140793315Y-107816545D01*
X140908453Y-107931683D01*
X140962528Y-107964373D01*
X141004565Y-108012996D01*
X141009995Y-108077041D01*
X140976743Y-108132047D01*
X140963322Y-108141890D01*
X140856656Y-108207683D01*
X140856654Y-108207684D01*
X140732684Y-108331654D01*
X140732680Y-108331659D01*
X140640643Y-108480874D01*
X140640640Y-108480881D01*
X140585494Y-108647302D01*
X140585493Y-108647307D01*
X140575000Y-108750004D01*
X139816762Y-108750004D01*
X139732675Y-108665917D01*
X139570887Y-108548371D01*
X139570880Y-108548367D01*
X139570875Y-108548364D01*
X139392867Y-108457664D01*
X139347417Y-108412215D01*
X139337362Y-108348730D01*
X139366543Y-108291461D01*
X139392867Y-108272336D01*
X139570875Y-108181635D01*
X139570874Y-108181635D01*
X139570887Y-108181629D01*
X139732675Y-108064083D01*
X139874083Y-107922675D01*
X139991629Y-107760887D01*
X140082419Y-107582703D01*
X140144216Y-107392510D01*
X140175500Y-107194991D01*
X140175500Y-106995009D01*
X140144216Y-106797490D01*
X140082419Y-106607297D01*
X140080359Y-106603255D01*
X140001149Y-106447797D01*
X139991629Y-106429113D01*
X139874083Y-106267325D01*
X139732675Y-106125917D01*
X139570887Y-106008371D01*
X139570880Y-106008367D01*
X139570875Y-106008364D01*
X139392867Y-105917664D01*
X139347417Y-105872215D01*
X139337362Y-105808730D01*
X139366543Y-105751461D01*
X139392867Y-105732336D01*
X139570875Y-105641635D01*
X139570874Y-105641635D01*
X139570887Y-105641629D01*
X139732675Y-105524083D01*
X139874083Y-105382675D01*
X139991629Y-105220887D01*
X140082419Y-105042703D01*
X140144216Y-104852510D01*
X140175500Y-104654991D01*
X140175500Y-104455009D01*
X140144216Y-104257490D01*
X140082419Y-104067297D01*
X139991629Y-103889113D01*
X139874083Y-103727325D01*
X139732675Y-103585917D01*
X139570887Y-103468371D01*
X139570880Y-103468367D01*
X139570875Y-103468364D01*
X139392867Y-103377664D01*
X139347417Y-103332215D01*
X139337362Y-103268730D01*
X139366543Y-103211461D01*
X139392867Y-103192336D01*
X139570875Y-103101635D01*
X139570874Y-103101635D01*
X139570887Y-103101629D01*
X139732675Y-102984083D01*
X139874083Y-102842675D01*
X139991629Y-102680887D01*
X140082419Y-102502703D01*
X140144216Y-102312510D01*
X140175500Y-102114991D01*
X140175500Y-101915009D01*
X140144216Y-101717490D01*
X140082419Y-101527297D01*
X139991629Y-101349113D01*
X139874083Y-101187325D01*
X139732675Y-101045917D01*
X139570887Y-100928371D01*
X139570880Y-100928367D01*
X139570875Y-100928364D01*
X139392867Y-100837664D01*
X139347417Y-100792215D01*
X139337362Y-100728730D01*
X139366543Y-100671461D01*
X139392867Y-100652336D01*
X139570875Y-100561635D01*
X139570874Y-100561635D01*
X139570887Y-100561629D01*
X139732675Y-100444083D01*
X139874083Y-100302675D01*
X139991629Y-100140887D01*
X140082419Y-99962703D01*
X140144216Y-99772510D01*
X140175500Y-99574991D01*
X140175500Y-99375009D01*
X140144216Y-99177490D01*
X140082419Y-98987297D01*
X139991629Y-98809113D01*
X139874083Y-98647325D01*
X139732675Y-98505917D01*
X139570887Y-98388371D01*
X139570880Y-98388367D01*
X139570875Y-98388364D01*
X139392867Y-98297664D01*
X139347417Y-98252215D01*
X139337362Y-98188730D01*
X139366543Y-98131461D01*
X139392867Y-98112336D01*
X139570875Y-98021635D01*
X139570874Y-98021635D01*
X139570887Y-98021629D01*
X139732675Y-97904083D01*
X139874083Y-97762675D01*
X139991629Y-97600887D01*
X140082419Y-97422703D01*
X140144216Y-97232510D01*
X140175500Y-97034991D01*
X140175500Y-96835009D01*
X140144216Y-96637490D01*
X140082419Y-96447297D01*
X139991629Y-96269113D01*
X139874083Y-96107325D01*
X139732675Y-95965917D01*
X139570887Y-95848371D01*
X139570880Y-95848367D01*
X139570875Y-95848364D01*
X139392867Y-95757664D01*
X139347417Y-95712215D01*
X139337362Y-95648730D01*
X139366543Y-95591461D01*
X139392867Y-95572336D01*
X139570875Y-95481635D01*
X139570874Y-95481635D01*
X139570887Y-95481629D01*
X139732675Y-95364083D01*
X139874083Y-95222675D01*
X139991629Y-95060887D01*
X140082419Y-94882703D01*
X140144216Y-94692510D01*
X140175500Y-94494991D01*
X140175500Y-94295009D01*
X140144216Y-94097490D01*
X140082419Y-93907297D01*
X139991629Y-93729113D01*
X139874083Y-93567325D01*
X139732675Y-93425917D01*
X139570887Y-93308371D01*
X139570880Y-93308367D01*
X139570875Y-93308364D01*
X139392867Y-93217664D01*
X139347417Y-93172215D01*
X139337362Y-93108730D01*
X139366543Y-93051461D01*
X139392867Y-93032336D01*
X139570875Y-92941635D01*
X139570874Y-92941635D01*
X139570887Y-92941629D01*
X139732675Y-92824083D01*
X139874083Y-92682675D01*
X139991629Y-92520887D01*
X140082419Y-92342703D01*
X140144216Y-92152510D01*
X140175500Y-91954991D01*
X140175500Y-91755009D01*
X140144216Y-91557490D01*
X140082419Y-91367297D01*
X139991629Y-91189113D01*
X139874083Y-91027325D01*
X139732675Y-90885917D01*
X139570887Y-90768371D01*
X139570880Y-90768367D01*
X139570875Y-90768364D01*
X139392867Y-90677664D01*
X139347417Y-90632215D01*
X139337362Y-90568730D01*
X139366543Y-90511461D01*
X139392867Y-90492336D01*
X139570875Y-90401635D01*
X139570874Y-90401635D01*
X139570887Y-90401629D01*
X139732675Y-90284083D01*
X139874083Y-90142675D01*
X139991629Y-89980887D01*
X140082419Y-89802703D01*
X140144216Y-89612510D01*
X140175500Y-89414991D01*
X140175500Y-89215009D01*
X140144216Y-89017490D01*
X140082419Y-88827297D01*
X139991629Y-88649113D01*
X139991628Y-88649112D01*
X139990917Y-88647716D01*
X139980861Y-88584231D01*
X140010042Y-88526961D01*
X140067311Y-88497780D01*
X140083581Y-88496500D01*
X149520816Y-88496500D01*
X149520817Y-88496500D01*
X149659555Y-88459325D01*
X149783945Y-88387509D01*
X149885509Y-88285945D01*
X149885509Y-88285944D01*
X149894065Y-88277389D01*
X149894072Y-88277379D01*
X151011508Y-87159946D01*
X151083325Y-87035556D01*
X151120500Y-86896817D01*
X151120500Y-86774499D01*
X151140362Y-86713369D01*
X151192362Y-86675589D01*
X151224500Y-86670499D01*
X151458091Y-86670499D01*
X151458096Y-86670499D01*
X151556562Y-86654905D01*
X151675245Y-86594433D01*
X151769433Y-86500245D01*
X151829905Y-86381562D01*
X151845500Y-86283097D01*
X151845499Y-84516904D01*
X151829905Y-84418438D01*
X151769433Y-84299755D01*
X151675245Y-84205567D01*
X151675244Y-84205566D01*
X151556563Y-84145095D01*
X151523740Y-84139896D01*
X151458097Y-84129500D01*
X151458095Y-84129500D01*
X149691909Y-84129500D01*
X149691901Y-84129501D01*
X149651515Y-84135897D01*
X149593438Y-84145095D01*
X149593436Y-84145096D01*
X149593435Y-84145096D01*
X149474755Y-84205566D01*
X149380566Y-84299755D01*
X149320095Y-84418436D01*
X149304500Y-84516902D01*
X149304500Y-84665734D01*
X149284638Y-84726864D01*
X149232638Y-84764644D01*
X149168362Y-84764644D01*
X149116362Y-84726864D01*
X149004083Y-84572325D01*
X148862675Y-84430917D01*
X148700887Y-84313371D01*
X148686081Y-84305827D01*
X148637284Y-84280963D01*
X148591835Y-84235513D01*
X148580500Y-84188299D01*
X148580500Y-80915207D01*
X148580501Y-80915194D01*
X148580501Y-80763188D01*
X148580501Y-80763184D01*
X148543325Y-80624445D01*
X148543324Y-80624443D01*
X148471510Y-80500056D01*
X147375961Y-79404507D01*
X147346780Y-79347237D01*
X147345500Y-79330968D01*
X147345500Y-77946860D01*
X147365362Y-77885730D01*
X147417362Y-77847950D01*
X147481638Y-77847950D01*
X147507273Y-77860383D01*
X147623453Y-77938013D01*
X147623457Y-77938014D01*
X147623457Y-77938015D01*
X147787326Y-78005891D01*
X147787330Y-78005893D01*
X147787333Y-78005893D01*
X147787334Y-78005894D01*
X147961309Y-78040500D01*
X147961314Y-78040500D01*
X148138686Y-78040500D01*
X148138691Y-78040500D01*
X148312666Y-78005894D01*
X148312667Y-78005893D01*
X148312669Y-78005893D01*
X148312673Y-78005891D01*
X148324641Y-78000934D01*
X148476547Y-77938013D01*
X148624035Y-77839464D01*
X148645059Y-77818439D01*
X148702325Y-77789261D01*
X148765809Y-77799314D01*
X148808663Y-77839980D01*
X148863489Y-77934942D01*
X148863492Y-77934946D01*
X148970980Y-78042434D01*
X148970986Y-78042439D01*
X150565053Y-79636507D01*
X150565056Y-79636510D01*
X150682298Y-79704199D01*
X150689445Y-79708325D01*
X150828184Y-79745501D01*
X150828188Y-79745501D01*
X150978186Y-79745501D01*
X150978202Y-79745500D01*
X152400935Y-79745500D01*
X152462065Y-79765362D01*
X152499845Y-79817362D01*
X152500214Y-79818524D01*
X152508183Y-79844095D01*
X152534080Y-79927203D01*
X152534083Y-79927210D01*
X152618315Y-80066545D01*
X152733454Y-80181684D01*
X152872789Y-80265916D01*
X152872793Y-80265918D01*
X152872797Y-80265920D01*
X153028251Y-80314361D01*
X153095805Y-80320500D01*
X153850500Y-80320499D01*
X153911630Y-80340361D01*
X153949410Y-80392361D01*
X153954500Y-80424499D01*
X153954500Y-84630968D01*
X153934638Y-84692098D01*
X153924039Y-84704507D01*
X148893492Y-89735053D01*
X148893487Y-89735059D01*
X148854435Y-89802702D01*
X148854435Y-89802703D01*
X148821675Y-89859443D01*
X148821674Y-89859447D01*
X148789135Y-89980885D01*
X148784500Y-89998180D01*
X148784500Y-90294505D01*
X148764638Y-90355635D01*
X148712638Y-90393415D01*
X148671090Y-90398078D01*
X148609243Y-90392458D01*
X148604195Y-90392000D01*
X148604194Y-90392000D01*
X147595807Y-90392000D01*
X147595791Y-90392001D01*
X147528251Y-90398139D01*
X147372796Y-90446580D01*
X147372789Y-90446583D01*
X147233454Y-90530815D01*
X147118315Y-90645954D01*
X147034083Y-90785289D01*
X147034080Y-90785296D01*
X146985640Y-90940748D01*
X146985638Y-90940755D01*
X146979500Y-91008300D01*
X146979500Y-91766692D01*
X146979501Y-91766708D01*
X146985639Y-91834248D01*
X147034080Y-91989703D01*
X147034083Y-91989710D01*
X147118315Y-92129045D01*
X147233453Y-92244183D01*
X147364656Y-92323499D01*
X147406693Y-92372122D01*
X147412123Y-92436167D01*
X147378871Y-92491173D01*
X147364656Y-92501501D01*
X147233453Y-92580816D01*
X147118315Y-92695954D01*
X147034083Y-92835289D01*
X147034080Y-92835296D01*
X146985640Y-92990748D01*
X146985638Y-92990755D01*
X146979500Y-93058300D01*
X146979500Y-93816692D01*
X146979501Y-93816708D01*
X146985229Y-93879745D01*
X146985639Y-93884249D01*
X146992821Y-93907297D01*
X147034080Y-94039703D01*
X147034083Y-94039710D01*
X147118315Y-94179045D01*
X147221981Y-94282711D01*
X147251162Y-94339981D01*
X147241107Y-94403465D01*
X147221981Y-94429789D01*
X147118315Y-94533454D01*
X147034083Y-94672789D01*
X147034080Y-94672796D01*
X146985640Y-94828248D01*
X146985638Y-94828255D01*
X146979500Y-94895800D01*
X146979500Y-95704192D01*
X146979501Y-95704208D01*
X146984352Y-95757581D01*
X146985639Y-95771749D01*
X147021653Y-95887323D01*
X147034080Y-95927203D01*
X147034083Y-95927210D01*
X147118315Y-96066545D01*
X147233453Y-96181683D01*
X147281946Y-96210999D01*
X147323984Y-96259622D01*
X147329413Y-96323668D01*
X147296160Y-96378673D01*
X147281946Y-96389001D01*
X147233453Y-96418316D01*
X147118315Y-96533454D01*
X147034083Y-96672789D01*
X147034080Y-96672796D01*
X146985640Y-96828248D01*
X146985638Y-96828255D01*
X146979500Y-96895800D01*
X146979500Y-97704192D01*
X146979501Y-97704208D01*
X146985639Y-97771748D01*
X147034080Y-97927203D01*
X147034083Y-97927210D01*
X147118315Y-98066545D01*
X147233454Y-98181684D01*
X147372789Y-98265916D01*
X147372794Y-98265918D01*
X147372797Y-98265920D01*
X147481441Y-98299774D01*
X147533892Y-98336921D01*
X147554492Y-98397807D01*
X147554500Y-98399064D01*
X147554500Y-99630968D01*
X147534638Y-99692098D01*
X147524039Y-99704507D01*
X147375992Y-99852553D01*
X147375987Y-99852559D01*
X147304177Y-99976940D01*
X147304173Y-99976949D01*
X147267000Y-100115679D01*
X147267000Y-101310991D01*
X147247138Y-101372121D01*
X147202614Y-101404468D01*
X147203529Y-101406500D01*
X147197794Y-101409080D01*
X147058454Y-101493315D01*
X146943315Y-101608454D01*
X146859083Y-101747789D01*
X146859080Y-101747796D01*
X146810640Y-101903248D01*
X146810638Y-101903255D01*
X146804500Y-101970800D01*
X146804500Y-103029192D01*
X146804501Y-103029208D01*
X146807543Y-103062676D01*
X146810639Y-103096749D01*
X146844646Y-103205881D01*
X146859080Y-103252203D01*
X146859083Y-103252210D01*
X146943315Y-103391545D01*
X147028231Y-103476461D01*
X147057412Y-103533731D01*
X147047357Y-103597215D01*
X147028231Y-103623539D01*
X146943315Y-103708454D01*
X146859083Y-103847789D01*
X146859080Y-103847796D01*
X146810640Y-104003248D01*
X146810638Y-104003255D01*
X146804500Y-104070800D01*
X146804500Y-105129192D01*
X146804501Y-105129208D01*
X146809835Y-105187901D01*
X146810639Y-105196749D01*
X146849917Y-105322797D01*
X146859080Y-105352203D01*
X146859083Y-105352210D01*
X146943315Y-105491545D01*
X147058454Y-105606684D01*
X147197791Y-105690917D01*
X147197795Y-105690918D01*
X147197797Y-105690920D01*
X147197799Y-105690920D01*
X147203534Y-105693502D01*
X147202504Y-105695790D01*
X147246376Y-105726844D01*
X147266992Y-105787723D01*
X147267000Y-105789009D01*
X147267000Y-105884320D01*
X147304173Y-106023050D01*
X147304177Y-106023059D01*
X147375987Y-106147440D01*
X147375992Y-106147446D01*
X147396328Y-106167782D01*
X147425509Y-106225052D01*
X147420953Y-106275669D01*
X147382321Y-106386076D01*
X147379500Y-106416157D01*
X147379500Y-106450500D01*
X147359638Y-106511630D01*
X147307638Y-106549410D01*
X147275500Y-106554500D01*
X146491275Y-106554500D01*
X146430145Y-106534638D01*
X146392365Y-106482638D01*
X146391984Y-106481441D01*
X146381500Y-106447796D01*
X146365920Y-106397798D01*
X146341806Y-106357909D01*
X146281684Y-106258454D01*
X146166545Y-106143315D01*
X146027204Y-106059081D01*
X146027203Y-106059080D01*
X146027202Y-106059080D01*
X145871748Y-106010639D01*
X145871745Y-106010638D01*
X145871743Y-106010638D01*
X145804198Y-106004500D01*
X145804194Y-106004500D01*
X143995806Y-106004500D01*
X143995801Y-106004500D01*
X143928256Y-106010638D01*
X143928252Y-106010638D01*
X143928252Y-106010639D01*
X143787214Y-106054588D01*
X143772795Y-106059081D01*
X143633454Y-106143315D01*
X143518315Y-106258454D01*
X143434081Y-106397795D01*
X143434080Y-106397797D01*
X143434080Y-106397798D01*
X143385977Y-106552169D01*
X143385640Y-106553249D01*
X143385638Y-106553256D01*
X143379500Y-106620801D01*
X143379500Y-107654198D01*
X143385638Y-107721743D01*
X143385638Y-107721745D01*
X143385639Y-107721748D01*
X143417203Y-107823039D01*
X143434081Y-107877204D01*
X143518315Y-108016545D01*
X143633454Y-108131684D01*
X143687528Y-108164373D01*
X143729566Y-108212995D01*
X143734996Y-108277041D01*
X143701744Y-108332047D01*
X143688323Y-108341890D01*
X143581657Y-108407683D01*
X143581655Y-108407684D01*
X143457684Y-108531655D01*
X143457680Y-108531660D01*
X143365643Y-108680875D01*
X143365640Y-108680882D01*
X143310494Y-108847303D01*
X143310493Y-108847308D01*
X143300000Y-108950005D01*
X143300000Y-109212500D01*
X146520947Y-109212500D01*
X146535498Y-109205085D01*
X146598983Y-109215137D01*
X146625308Y-109234262D01*
X146774040Y-109382993D01*
X146803220Y-109440262D01*
X146804500Y-109456531D01*
X146804500Y-110029192D01*
X146804501Y-110029208D01*
X146807965Y-110067319D01*
X146810639Y-110096749D01*
X146818040Y-110120499D01*
X146859080Y-110252203D01*
X146859083Y-110252210D01*
X146943315Y-110391545D01*
X147058454Y-110506684D01*
X147197789Y-110590916D01*
X147197793Y-110590918D01*
X147197797Y-110590920D01*
X147353251Y-110639361D01*
X147420805Y-110645500D01*
X148204194Y-110645499D01*
X148204198Y-110645498D01*
X148204208Y-110645498D01*
X148217688Y-110644272D01*
X148271749Y-110639361D01*
X148427203Y-110590920D01*
X148566547Y-110506683D01*
X148681683Y-110391547D01*
X148707151Y-110349418D01*
X148760999Y-110260344D01*
X148809621Y-110218306D01*
X148873667Y-110212876D01*
X148928673Y-110246128D01*
X148939001Y-110260344D01*
X149018315Y-110391545D01*
X149133454Y-110506684D01*
X149272789Y-110590916D01*
X149272793Y-110590918D01*
X149272797Y-110590920D01*
X149428251Y-110639361D01*
X149495805Y-110645500D01*
X150279194Y-110645499D01*
X150279198Y-110645498D01*
X150279208Y-110645498D01*
X150292688Y-110644272D01*
X150346749Y-110639361D01*
X150502203Y-110590920D01*
X150565309Y-110552771D01*
X150641546Y-110506684D01*
X150646496Y-110502806D01*
X150648219Y-110505006D01*
X150695272Y-110481001D01*
X150758762Y-110491023D01*
X150804235Y-110536449D01*
X150810886Y-110552771D01*
X150834081Y-110627205D01*
X150834083Y-110627210D01*
X150918315Y-110766545D01*
X151033454Y-110881684D01*
X151172789Y-110965916D01*
X151172795Y-110965919D01*
X151172797Y-110965920D01*
X151256442Y-110991984D01*
X151308893Y-111029132D01*
X151329492Y-111090017D01*
X151329500Y-111091274D01*
X151329500Y-121875114D01*
X151368377Y-122020202D01*
X151368379Y-122020208D01*
X151443487Y-122150296D01*
X152099039Y-122805848D01*
X152128220Y-122863118D01*
X152129500Y-122879387D01*
X152129500Y-124183090D01*
X152129501Y-124183096D01*
X152145095Y-124281562D01*
X152145096Y-124281563D01*
X152145096Y-124281564D01*
X152198969Y-124387297D01*
X152205567Y-124400245D01*
X152299755Y-124494433D01*
X152418438Y-124554905D01*
X152516903Y-124570500D01*
X154283096Y-124570499D01*
X154381562Y-124554905D01*
X154500245Y-124494433D01*
X154594433Y-124400245D01*
X154654905Y-124281562D01*
X154670500Y-124183097D01*
X154670499Y-123407881D01*
X159469500Y-123407881D01*
X159469500Y-123592118D01*
X159498323Y-123774098D01*
X159555255Y-123949317D01*
X159555257Y-123949321D01*
X159599382Y-124035919D01*
X159638899Y-124113475D01*
X159747193Y-124262529D01*
X159877471Y-124392807D01*
X160026525Y-124501101D01*
X160190684Y-124584745D01*
X160365907Y-124641678D01*
X160547880Y-124670500D01*
X160547884Y-124670500D01*
X161252116Y-124670500D01*
X161252120Y-124670500D01*
X161434093Y-124641678D01*
X161609316Y-124584745D01*
X161773475Y-124501101D01*
X161922529Y-124392807D01*
X162052807Y-124262529D01*
X162161101Y-124113475D01*
X162244745Y-123949316D01*
X162301678Y-123774093D01*
X162330500Y-123592120D01*
X162330500Y-123407880D01*
X162301678Y-123225907D01*
X162244745Y-123050684D01*
X162161101Y-122886525D01*
X162052807Y-122737471D01*
X161922529Y-122607193D01*
X161773475Y-122498899D01*
X161654244Y-122438147D01*
X161609321Y-122415257D01*
X161609317Y-122415255D01*
X161434098Y-122358323D01*
X161434094Y-122358322D01*
X161434093Y-122358322D01*
X161252120Y-122329500D01*
X160547880Y-122329500D01*
X160365907Y-122358322D01*
X160365901Y-122358323D01*
X160190682Y-122415255D01*
X160190678Y-122415257D01*
X160026523Y-122498900D01*
X159877469Y-122607194D01*
X159747194Y-122737469D01*
X159638900Y-122886523D01*
X159555257Y-123050678D01*
X159555255Y-123050682D01*
X159498323Y-123225901D01*
X159469500Y-123407881D01*
X154670499Y-123407881D01*
X154670499Y-123275500D01*
X154670499Y-122416909D01*
X154670499Y-122416904D01*
X154654905Y-122318438D01*
X154594433Y-122199755D01*
X154500245Y-122105567D01*
X154500244Y-122105566D01*
X154381563Y-122045095D01*
X154283097Y-122029500D01*
X154134265Y-122029500D01*
X154073135Y-122009638D01*
X154035355Y-121957638D01*
X154035355Y-121893362D01*
X154073133Y-121841364D01*
X154227675Y-121729083D01*
X154369083Y-121587675D01*
X154486629Y-121425887D01*
X154506298Y-121387285D01*
X154551748Y-121341835D01*
X154598963Y-121330500D01*
X156315108Y-121330500D01*
X156315114Y-121330499D01*
X156377576Y-121313761D01*
X156460205Y-121291622D01*
X156590295Y-121216514D01*
X156705848Y-121100961D01*
X156763118Y-121071780D01*
X156779387Y-121070500D01*
X159383145Y-121070500D01*
X159444275Y-121090362D01*
X159482055Y-121142362D01*
X159482427Y-121143534D01*
X159515096Y-121248372D01*
X159524081Y-121277204D01*
X159608315Y-121416545D01*
X159723454Y-121531684D01*
X159816075Y-121587675D01*
X159862798Y-121615920D01*
X160018252Y-121664361D01*
X160085806Y-121670500D01*
X160085817Y-121670500D01*
X161714183Y-121670500D01*
X161714194Y-121670500D01*
X161781748Y-121664361D01*
X161937202Y-121615920D01*
X162076547Y-121531683D01*
X162191683Y-121416547D01*
X162275920Y-121277202D01*
X162324361Y-121121748D01*
X162330500Y-121054194D01*
X162330500Y-119945806D01*
X162324361Y-119878252D01*
X162275920Y-119722798D01*
X162246038Y-119673367D01*
X162191684Y-119583454D01*
X162076545Y-119468315D01*
X161937204Y-119384081D01*
X161937203Y-119384080D01*
X161937202Y-119384080D01*
X161781748Y-119335639D01*
X161781745Y-119335638D01*
X161781743Y-119335638D01*
X161714198Y-119329500D01*
X161714194Y-119329500D01*
X160085806Y-119329500D01*
X160085801Y-119329500D01*
X160018256Y-119335638D01*
X160018252Y-119335638D01*
X160018252Y-119335639D01*
X159954519Y-119355499D01*
X159862795Y-119384081D01*
X159723454Y-119468315D01*
X159608315Y-119583454D01*
X159524081Y-119722795D01*
X159524080Y-119722797D01*
X159524080Y-119722798D01*
X159502854Y-119790917D01*
X159482436Y-119856440D01*
X159445287Y-119908893D01*
X159384402Y-119929492D01*
X159383145Y-119929500D01*
X156424885Y-119929500D01*
X156279797Y-119968377D01*
X156279791Y-119968379D01*
X156149703Y-120043487D01*
X156034152Y-120159039D01*
X155976882Y-120188220D01*
X155960613Y-120189500D01*
X154598963Y-120189500D01*
X154537833Y-120169638D01*
X154506298Y-120132715D01*
X154486630Y-120094114D01*
X154486628Y-120094112D01*
X154449846Y-120043486D01*
X154369083Y-119932325D01*
X154227675Y-119790917D01*
X154065887Y-119673371D01*
X154065882Y-119673368D01*
X154065880Y-119673367D01*
X153887708Y-119582583D01*
X153887704Y-119582581D01*
X153697514Y-119520785D01*
X153697512Y-119520784D01*
X153697510Y-119520784D01*
X153499991Y-119489500D01*
X153300009Y-119489500D01*
X153300008Y-119489500D01*
X153249562Y-119497490D01*
X153102490Y-119520784D01*
X153102488Y-119520784D01*
X153102485Y-119520785D01*
X152912295Y-119582581D01*
X152912291Y-119582583D01*
X152734119Y-119673367D01*
X152734114Y-119673370D01*
X152734113Y-119673371D01*
X152635627Y-119744924D01*
X152574500Y-119764786D01*
X152513370Y-119744924D01*
X152475590Y-119692924D01*
X152470500Y-119660786D01*
X152470500Y-111091274D01*
X152490362Y-111030144D01*
X152542362Y-110992364D01*
X152543406Y-110992031D01*
X152627203Y-110965920D01*
X152766547Y-110881683D01*
X152876461Y-110771769D01*
X152933731Y-110742588D01*
X152997215Y-110752643D01*
X153023539Y-110771769D01*
X153133454Y-110881684D01*
X153272789Y-110965916D01*
X153272793Y-110965918D01*
X153272797Y-110965920D01*
X153428251Y-111014361D01*
X153495805Y-111020500D01*
X154504194Y-111020499D01*
X154504198Y-111020498D01*
X154504208Y-111020498D01*
X154517688Y-111019272D01*
X154571749Y-111014361D01*
X154727203Y-110965920D01*
X154866547Y-110881683D01*
X154981683Y-110766547D01*
X155034586Y-110679036D01*
X155065916Y-110627210D01*
X155065916Y-110627208D01*
X155065920Y-110627203D01*
X155114361Y-110471749D01*
X155120500Y-110404195D01*
X155120499Y-109674499D01*
X155140361Y-109613370D01*
X155192361Y-109575590D01*
X155224499Y-109570500D01*
X158220613Y-109570500D01*
X158281743Y-109590362D01*
X158294152Y-109600961D01*
X158349705Y-109656514D01*
X158444932Y-109711494D01*
X158479791Y-109731620D01*
X158479792Y-109731620D01*
X158479795Y-109731622D01*
X158534880Y-109746381D01*
X158624885Y-109770499D01*
X158624892Y-109770500D01*
X158775108Y-109770500D01*
X159400251Y-109770500D01*
X159461381Y-109790362D01*
X159492916Y-109827285D01*
X159555566Y-109950244D01*
X159649755Y-110044433D01*
X159715027Y-110077691D01*
X159768438Y-110104905D01*
X159866903Y-110120500D01*
X160933096Y-110120499D01*
X161031562Y-110104905D01*
X161150245Y-110044433D01*
X161244433Y-109950245D01*
X161304905Y-109831562D01*
X161320500Y-109733097D01*
X161320499Y-108666904D01*
X161304905Y-108568438D01*
X161244433Y-108449755D01*
X161150245Y-108355567D01*
X161150244Y-108355566D01*
X161031561Y-108295094D01*
X161026159Y-108294239D01*
X160968890Y-108265056D01*
X160939712Y-108207785D01*
X160949769Y-108144302D01*
X160995220Y-108098854D01*
X161006089Y-108094077D01*
X161142088Y-108043353D01*
X161142089Y-108043352D01*
X161257188Y-107957188D01*
X161343352Y-107842090D01*
X161393598Y-107707372D01*
X161393598Y-107707371D01*
X161400000Y-107647830D01*
X161400000Y-107350000D01*
X160449728Y-107350000D01*
X160541614Y-107311940D01*
X160611940Y-107241614D01*
X160650000Y-107149728D01*
X160650000Y-107050272D01*
X160611940Y-106958386D01*
X160541614Y-106888060D01*
X160449728Y-106850000D01*
X161400000Y-106850000D01*
X161400000Y-106552169D01*
X161393598Y-106492628D01*
X161393598Y-106492627D01*
X161343352Y-106357909D01*
X161257188Y-106242811D01*
X161142090Y-106156647D01*
X161006087Y-106105922D01*
X160955753Y-106065950D01*
X160938526Y-106004026D01*
X160960988Y-105943802D01*
X161014558Y-105908284D01*
X161026156Y-105905761D01*
X161031562Y-105904905D01*
X161150245Y-105844433D01*
X161244433Y-105750245D01*
X161304905Y-105631562D01*
X161320500Y-105533097D01*
X161320499Y-104466904D01*
X161304905Y-104368438D01*
X161244433Y-104249755D01*
X161150245Y-104155567D01*
X161150244Y-104155566D01*
X161031563Y-104095095D01*
X160998740Y-104089896D01*
X160933097Y-104079500D01*
X160933095Y-104079500D01*
X159866909Y-104079500D01*
X159866901Y-104079501D01*
X159826515Y-104085897D01*
X159768438Y-104095095D01*
X159768436Y-104095096D01*
X159768435Y-104095096D01*
X159649755Y-104155566D01*
X159555566Y-104249755D01*
X159495095Y-104368436D01*
X159479500Y-104466902D01*
X159479500Y-105533090D01*
X159479501Y-105533096D01*
X159495095Y-105631562D01*
X159495096Y-105631563D01*
X159495096Y-105631564D01*
X159546441Y-105732336D01*
X159555567Y-105750245D01*
X159649755Y-105844433D01*
X159768438Y-105904905D01*
X159773835Y-105905759D01*
X159831104Y-105934938D01*
X159860286Y-105992207D01*
X159850233Y-106055692D01*
X159804784Y-106101143D01*
X159793911Y-106105922D01*
X159657910Y-106156647D01*
X159542811Y-106242811D01*
X159456647Y-106357909D01*
X159406401Y-106492627D01*
X159406401Y-106492628D01*
X159400000Y-106552169D01*
X159400000Y-106850000D01*
X160350272Y-106850000D01*
X160258386Y-106888060D01*
X160188060Y-106958386D01*
X160150000Y-107050272D01*
X160150000Y-107149728D01*
X160188060Y-107241614D01*
X160258386Y-107311940D01*
X160350272Y-107350000D01*
X159400000Y-107350000D01*
X159400000Y-107647830D01*
X159406401Y-107707371D01*
X159406401Y-107707372D01*
X159456647Y-107842090D01*
X159542811Y-107957188D01*
X159657910Y-108043352D01*
X159657911Y-108043353D01*
X159793911Y-108094077D01*
X159844246Y-108134049D01*
X159861473Y-108195973D01*
X159839011Y-108256196D01*
X159785441Y-108291715D01*
X159773842Y-108294239D01*
X159768439Y-108295094D01*
X159768435Y-108295096D01*
X159649755Y-108355566D01*
X159555566Y-108449755D01*
X159492916Y-108572715D01*
X159447466Y-108618165D01*
X159400251Y-108629500D01*
X158979387Y-108629500D01*
X158918257Y-108609638D01*
X158905848Y-108599039D01*
X158850296Y-108543487D01*
X158850295Y-108543486D01*
X158793257Y-108510555D01*
X158720208Y-108468379D01*
X158720202Y-108468377D01*
X158575114Y-108429500D01*
X158575108Y-108429500D01*
X155224500Y-108429500D01*
X155163370Y-108409638D01*
X155125590Y-108357638D01*
X155120500Y-108325500D01*
X155120499Y-107595807D01*
X155120498Y-107595791D01*
X155118863Y-107577807D01*
X155114361Y-107528251D01*
X155065920Y-107372797D01*
X155065918Y-107372793D01*
X155065916Y-107372789D01*
X154981684Y-107233454D01*
X154866546Y-107118316D01*
X154768521Y-107059057D01*
X154726483Y-107010434D01*
X154721054Y-106946388D01*
X154754306Y-106891383D01*
X154768522Y-106881055D01*
X154891545Y-106806684D01*
X154891544Y-106806684D01*
X154891547Y-106806683D01*
X155006683Y-106691547D01*
X155057614Y-106607297D01*
X155090916Y-106552210D01*
X155090919Y-106552204D01*
X155090920Y-106552203D01*
X155139361Y-106396749D01*
X155145500Y-106329195D01*
X155145499Y-105545806D01*
X155139361Y-105478251D01*
X155090920Y-105322797D01*
X155090918Y-105322793D01*
X155090916Y-105322789D01*
X155006684Y-105183454D01*
X154891546Y-105068316D01*
X154837471Y-105035626D01*
X154795433Y-104987003D01*
X154790004Y-104922957D01*
X154823257Y-104867952D01*
X154836678Y-104858109D01*
X154943340Y-104792319D01*
X154943345Y-104792315D01*
X155067315Y-104668345D01*
X155067319Y-104668340D01*
X155159356Y-104519125D01*
X155159359Y-104519118D01*
X155214505Y-104352697D01*
X155214506Y-104352692D01*
X155224999Y-104249995D01*
X155225000Y-104249977D01*
X155225000Y-104112500D01*
X153210000Y-104112500D01*
X153210000Y-104146000D01*
X153190138Y-104207130D01*
X153138138Y-104244910D01*
X153106000Y-104250000D01*
X152004000Y-104250000D01*
X151942870Y-104230138D01*
X151905090Y-104178138D01*
X151900000Y-104146000D01*
X151900000Y-104000000D01*
X151754000Y-104000000D01*
X151692870Y-103980138D01*
X151655090Y-103928138D01*
X151650000Y-103896000D01*
X151650000Y-102900000D01*
X152150000Y-102900000D01*
X152150000Y-103750000D01*
X152665000Y-103750000D01*
X152665000Y-103716500D01*
X152684862Y-103655370D01*
X152736862Y-103617590D01*
X152769000Y-103612500D01*
X153750000Y-103612500D01*
X154250000Y-103612500D01*
X155224999Y-103612500D01*
X155224999Y-103475024D01*
X155224998Y-103475020D01*
X155214506Y-103372308D01*
X155214504Y-103372301D01*
X155159359Y-103205881D01*
X155159356Y-103205874D01*
X155067319Y-103056659D01*
X155067315Y-103056654D01*
X154943345Y-102932684D01*
X154943340Y-102932680D01*
X154794125Y-102840643D01*
X154794118Y-102840640D01*
X154627697Y-102785494D01*
X154627692Y-102785493D01*
X154524995Y-102775000D01*
X154250000Y-102775000D01*
X154250000Y-103612500D01*
X153750000Y-103612500D01*
X153750000Y-102775000D01*
X153475025Y-102775000D01*
X153475020Y-102775001D01*
X153372308Y-102785493D01*
X153372301Y-102785495D01*
X153205881Y-102840640D01*
X153205874Y-102840643D01*
X153056659Y-102932680D01*
X153056653Y-102932685D01*
X152946574Y-103042764D01*
X152889304Y-103071945D01*
X152825820Y-103061889D01*
X152818437Y-103057741D01*
X152669121Y-102965641D01*
X152669118Y-102965640D01*
X152502697Y-102910494D01*
X152502692Y-102910493D01*
X152399995Y-102900000D01*
X152150000Y-102900000D01*
X151650000Y-102900000D01*
X151400025Y-102900000D01*
X151400020Y-102900001D01*
X151297308Y-102910493D01*
X151297301Y-102910495D01*
X151130881Y-102965640D01*
X151130876Y-102965642D01*
X151054095Y-103013001D01*
X150991640Y-103028187D01*
X150932186Y-103003761D01*
X150898443Y-102949055D01*
X150895499Y-102924491D01*
X150895499Y-101970806D01*
X150895498Y-101970803D01*
X150895498Y-101970791D01*
X150893863Y-101952807D01*
X150889361Y-101903251D01*
X150840920Y-101747797D01*
X150840918Y-101747793D01*
X150840916Y-101747789D01*
X150756684Y-101608454D01*
X150641545Y-101493315D01*
X150502210Y-101409083D01*
X150502203Y-101409080D01*
X150486600Y-101404218D01*
X150346749Y-101360639D01*
X150346746Y-101360638D01*
X150346744Y-101360638D01*
X150306201Y-101356954D01*
X150279195Y-101354500D01*
X150279191Y-101354500D01*
X149495807Y-101354500D01*
X149495791Y-101354501D01*
X149428251Y-101360639D01*
X149272796Y-101409080D01*
X149272789Y-101409083D01*
X149133454Y-101493315D01*
X149018316Y-101608453D01*
X148939001Y-101739656D01*
X148890378Y-101781693D01*
X148826333Y-101787123D01*
X148771327Y-101753871D01*
X148760999Y-101739656D01*
X148681683Y-101608453D01*
X148566545Y-101493315D01*
X148427205Y-101409080D01*
X148421471Y-101406500D01*
X148422497Y-101404218D01*
X148378606Y-101373132D01*
X148358008Y-101312246D01*
X148358000Y-101310991D01*
X148358000Y-100456531D01*
X148360592Y-100448550D01*
X148359280Y-100440262D01*
X148370336Y-100418563D01*
X148377862Y-100395401D01*
X148388461Y-100382992D01*
X148426378Y-100345075D01*
X148426387Y-100345067D01*
X148468779Y-100302675D01*
X148536509Y-100234945D01*
X148608325Y-100110555D01*
X148645500Y-99971816D01*
X148645500Y-98399064D01*
X148665362Y-98337935D01*
X148717362Y-98300155D01*
X148718524Y-98299785D01*
X148827203Y-98265920D01*
X148966547Y-98181683D01*
X149081683Y-98066547D01*
X149099130Y-98037685D01*
X149169175Y-97921820D01*
X149172117Y-97923598D01*
X149205380Y-97885964D01*
X149268125Y-97872021D01*
X149327082Y-97897621D01*
X149356930Y-97942832D01*
X149365642Y-97969122D01*
X149365643Y-97969125D01*
X149457680Y-98118340D01*
X149457684Y-98118345D01*
X149581654Y-98242315D01*
X149581659Y-98242319D01*
X149730874Y-98334356D01*
X149730881Y-98334359D01*
X149897302Y-98389505D01*
X149897307Y-98389506D01*
X150000013Y-98399999D01*
X150249999Y-98399999D01*
X150750000Y-98399999D01*
X150999975Y-98399999D01*
X150999979Y-98399998D01*
X151102691Y-98389506D01*
X151102698Y-98389504D01*
X151269118Y-98334359D01*
X151269125Y-98334356D01*
X151418340Y-98242319D01*
X151418345Y-98242315D01*
X151542315Y-98118345D01*
X151542319Y-98118340D01*
X151634356Y-97969125D01*
X151634359Y-97969118D01*
X151689505Y-97802697D01*
X151689506Y-97802692D01*
X151699999Y-97699995D01*
X151700000Y-97699977D01*
X151700000Y-97550000D01*
X150750000Y-97550000D01*
X150750000Y-98399999D01*
X150249999Y-98399999D01*
X150250000Y-98399998D01*
X150250000Y-97404000D01*
X150269862Y-97342870D01*
X150321862Y-97305090D01*
X150354000Y-97300000D01*
X150500000Y-97300000D01*
X150500000Y-97154000D01*
X150519862Y-97092870D01*
X150571862Y-97055090D01*
X150604000Y-97050000D01*
X151699999Y-97050000D01*
X151699999Y-96900024D01*
X151699998Y-96900020D01*
X151689506Y-96797308D01*
X151689504Y-96797301D01*
X151634359Y-96630881D01*
X151634356Y-96630874D01*
X151542319Y-96481659D01*
X151542315Y-96481654D01*
X151418345Y-96357684D01*
X151418341Y-96357681D01*
X151389396Y-96339827D01*
X151347796Y-96290830D01*
X151342940Y-96226738D01*
X151370454Y-96177775D01*
X151481683Y-96066547D01*
X151542516Y-95965918D01*
X151565916Y-95927210D01*
X151565916Y-95927208D01*
X151565920Y-95927203D01*
X151614361Y-95771749D01*
X151620500Y-95704195D01*
X151620499Y-94895806D01*
X151620498Y-94895803D01*
X151620498Y-94895791D01*
X151618863Y-94877807D01*
X151614361Y-94828251D01*
X151565920Y-94672797D01*
X151565918Y-94672793D01*
X151565916Y-94672789D01*
X151481684Y-94533454D01*
X151378019Y-94429789D01*
X151348838Y-94372519D01*
X151358893Y-94309035D01*
X151378019Y-94282711D01*
X151481683Y-94179047D01*
X151565920Y-94039703D01*
X151614361Y-93884249D01*
X151620500Y-93816695D01*
X151620499Y-93058306D01*
X151620498Y-93058303D01*
X151620498Y-93058291D01*
X151618139Y-93032336D01*
X151614361Y-92990751D01*
X151565920Y-92835297D01*
X151565918Y-92835293D01*
X151565916Y-92835289D01*
X151481684Y-92695954D01*
X151366545Y-92580815D01*
X151235344Y-92501501D01*
X151193306Y-92452879D01*
X151187876Y-92388833D01*
X151221128Y-92333827D01*
X151235344Y-92323499D01*
X151366545Y-92244184D01*
X151366544Y-92244184D01*
X151366547Y-92244183D01*
X151481683Y-92129047D01*
X151565920Y-91989703D01*
X151614361Y-91834249D01*
X151620500Y-91766695D01*
X151620499Y-91008306D01*
X151620498Y-91008303D01*
X151620498Y-91008291D01*
X151618863Y-90990307D01*
X151614361Y-90940751D01*
X151565920Y-90785297D01*
X151565918Y-90785293D01*
X151565916Y-90785289D01*
X151481684Y-90645954D01*
X151366545Y-90530815D01*
X151227210Y-90446583D01*
X151227203Y-90446580D01*
X151184499Y-90433273D01*
X151071749Y-90398139D01*
X151071746Y-90398138D01*
X151071744Y-90398138D01*
X151004199Y-90392000D01*
X150030530Y-90392000D01*
X149969400Y-90372138D01*
X149931620Y-90320138D01*
X149931620Y-90255862D01*
X149956989Y-90214463D01*
X154826379Y-85345072D01*
X154826389Y-85345065D01*
X154877756Y-85293698D01*
X154936509Y-85234945D01*
X155008325Y-85110555D01*
X155020517Y-85065055D01*
X155045500Y-84971817D01*
X155045500Y-84828183D01*
X155045500Y-80424499D01*
X155065362Y-80363369D01*
X155117362Y-80325589D01*
X155149494Y-80320499D01*
X155904194Y-80320499D01*
X155904196Y-80320498D01*
X155904208Y-80320498D01*
X155917688Y-80319272D01*
X155971749Y-80314361D01*
X156127203Y-80265920D01*
X156266547Y-80181683D01*
X156381683Y-80066547D01*
X156421637Y-80000454D01*
X156465916Y-79927210D01*
X156465916Y-79927208D01*
X156465920Y-79927203D01*
X156514361Y-79771749D01*
X156520500Y-79704195D01*
X156520499Y-78695806D01*
X156520498Y-78695803D01*
X156520498Y-78695791D01*
X156518863Y-78677807D01*
X156514361Y-78628251D01*
X156465920Y-78472797D01*
X156465918Y-78472793D01*
X156465916Y-78472789D01*
X156381684Y-78333454D01*
X156266545Y-78218315D01*
X156127210Y-78134083D01*
X156127203Y-78134080D01*
X156049214Y-78109778D01*
X155971749Y-78085639D01*
X155971746Y-78085638D01*
X155971744Y-78085638D01*
X155926544Y-78081531D01*
X155904195Y-78079500D01*
X155904191Y-78079500D01*
X155095807Y-78079500D01*
X155095800Y-78079501D01*
X155073453Y-78081531D01*
X155010777Y-78067279D01*
X154973979Y-78029956D01*
X154936512Y-77965059D01*
X154936507Y-77965053D01*
X154831318Y-77859864D01*
X154831307Y-77859854D01*
X154451053Y-77479600D01*
X154421872Y-77422330D01*
X154431927Y-77358846D01*
X154477377Y-77313396D01*
X154508317Y-77303342D01*
X154597510Y-77289216D01*
X154787703Y-77227419D01*
X154965887Y-77136629D01*
X155127675Y-77019083D01*
X155269083Y-76877675D01*
X155354394Y-76760255D01*
X158954500Y-76760255D01*
X158954500Y-76989744D01*
X158982916Y-77205573D01*
X158984452Y-77217238D01*
X158997495Y-77265916D01*
X159043840Y-77438880D01*
X159043839Y-77438880D01*
X159043842Y-77438887D01*
X159131656Y-77650888D01*
X159246389Y-77849612D01*
X159386081Y-78031661D01*
X159548339Y-78193919D01*
X159730388Y-78333611D01*
X159929112Y-78448344D01*
X160141113Y-78536158D01*
X160141116Y-78536158D01*
X160141119Y-78536160D01*
X160206966Y-78553803D01*
X160362762Y-78595548D01*
X160491080Y-78612441D01*
X160590255Y-78625499D01*
X160590262Y-78625499D01*
X160590266Y-78625500D01*
X160590269Y-78625500D01*
X160819731Y-78625500D01*
X160819734Y-78625500D01*
X160819738Y-78625499D01*
X160819744Y-78625499D01*
X160889787Y-78616277D01*
X161047238Y-78595548D01*
X161268887Y-78536158D01*
X161480888Y-78448344D01*
X161679612Y-78333611D01*
X161861661Y-78193919D01*
X162023919Y-78031661D01*
X162163611Y-77849612D01*
X162278344Y-77650888D01*
X162366158Y-77438887D01*
X162425548Y-77217238D01*
X162451636Y-77019083D01*
X162455499Y-76989744D01*
X162455500Y-76989731D01*
X162455500Y-76760268D01*
X162455499Y-76760255D01*
X162442441Y-76661080D01*
X162425548Y-76532762D01*
X162366158Y-76311113D01*
X162278344Y-76099112D01*
X162163611Y-75900388D01*
X162023919Y-75718339D01*
X161861661Y-75556081D01*
X161679612Y-75416389D01*
X161480888Y-75301656D01*
X161268887Y-75213842D01*
X161268880Y-75213839D01*
X161080164Y-75163274D01*
X161047238Y-75154452D01*
X161047230Y-75154450D01*
X161047225Y-75154450D01*
X160819744Y-75124500D01*
X160819734Y-75124500D01*
X160590266Y-75124500D01*
X160590255Y-75124500D01*
X160362774Y-75154450D01*
X160362766Y-75154451D01*
X160362762Y-75154452D01*
X160362758Y-75154452D01*
X160362758Y-75154453D01*
X160141119Y-75213839D01*
X159929118Y-75301653D01*
X159929114Y-75301655D01*
X159929112Y-75301656D01*
X159896162Y-75320680D01*
X159730385Y-75416391D01*
X159548337Y-75556082D01*
X159386082Y-75718337D01*
X159246391Y-75900385D01*
X159246389Y-75900388D01*
X159233643Y-75922465D01*
X159131655Y-76099114D01*
X159131653Y-76099118D01*
X159043839Y-76311119D01*
X158984453Y-76532758D01*
X158984450Y-76532774D01*
X158954500Y-76760255D01*
X155354394Y-76760255D01*
X155386629Y-76715887D01*
X155477419Y-76537703D01*
X155539216Y-76347510D01*
X155570500Y-76149991D01*
X155570500Y-75450009D01*
X155539216Y-75252490D01*
X155477419Y-75062297D01*
X155386629Y-74884113D01*
X155269083Y-74722325D01*
X155127675Y-74580917D01*
X154965887Y-74463371D01*
X154965882Y-74463368D01*
X154965880Y-74463367D01*
X154787708Y-74372583D01*
X154787704Y-74372581D01*
X154597514Y-74310785D01*
X154597512Y-74310784D01*
X154597510Y-74310784D01*
X154399991Y-74279500D01*
X154200009Y-74279500D01*
X154200008Y-74279500D01*
X154114638Y-74293021D01*
X154002490Y-74310784D01*
X154002488Y-74310784D01*
X154002485Y-74310785D01*
X153812295Y-74372581D01*
X153812291Y-74372583D01*
X153634119Y-74463367D01*
X153634112Y-74463372D01*
X153472323Y-74580918D01*
X153330918Y-74722323D01*
X153330917Y-74722325D01*
X153218142Y-74877547D01*
X153213372Y-74884112D01*
X153213367Y-74884119D01*
X153142664Y-75022881D01*
X153097214Y-75068330D01*
X153033730Y-75078384D01*
X152976460Y-75049203D01*
X152957336Y-75022881D01*
X152886632Y-74884119D01*
X152886629Y-74884113D01*
X152769083Y-74722325D01*
X152627675Y-74580917D01*
X152465887Y-74463371D01*
X152465882Y-74463368D01*
X152465880Y-74463367D01*
X152287708Y-74372583D01*
X152287704Y-74372581D01*
X152097514Y-74310785D01*
X152097512Y-74310784D01*
X152097510Y-74310784D01*
X151899991Y-74279500D01*
X151700009Y-74279500D01*
X151700008Y-74279500D01*
X151614638Y-74293021D01*
X151502490Y-74310784D01*
X151502488Y-74310784D01*
X151502485Y-74310785D01*
X151312295Y-74372581D01*
X151312291Y-74372583D01*
X151134119Y-74463367D01*
X151134112Y-74463372D01*
X150972323Y-74580918D01*
X150830918Y-74722323D01*
X150830917Y-74722325D01*
X150718142Y-74877547D01*
X150713372Y-74884112D01*
X150713367Y-74884119D01*
X150642664Y-75022881D01*
X150597214Y-75068330D01*
X150533730Y-75078384D01*
X150476460Y-75049203D01*
X150457336Y-75022881D01*
X150386632Y-74884119D01*
X150386629Y-74884113D01*
X150269083Y-74722325D01*
X150127675Y-74580917D01*
X149965887Y-74463371D01*
X149965882Y-74463368D01*
X149965880Y-74463367D01*
X149787708Y-74372583D01*
X149787704Y-74372581D01*
X149597514Y-74310785D01*
X149597512Y-74310784D01*
X149597510Y-74310784D01*
X149399991Y-74279500D01*
X149200009Y-74279500D01*
X149200008Y-74279500D01*
X149114638Y-74293021D01*
X149002490Y-74310784D01*
X149002488Y-74310784D01*
X149002485Y-74310785D01*
X148812295Y-74372581D01*
X148812291Y-74372583D01*
X148634119Y-74463367D01*
X148634112Y-74463372D01*
X148472323Y-74580918D01*
X148330918Y-74722323D01*
X148330917Y-74722325D01*
X148218142Y-74877547D01*
X148213372Y-74884112D01*
X148213367Y-74884119D01*
X148142664Y-75022881D01*
X148097214Y-75068330D01*
X148033730Y-75078384D01*
X147976460Y-75049203D01*
X147957336Y-75022881D01*
X147886632Y-74884119D01*
X147886629Y-74884113D01*
X147769083Y-74722325D01*
X147627675Y-74580917D01*
X147465887Y-74463371D01*
X147465882Y-74463368D01*
X147465880Y-74463367D01*
X147287708Y-74372583D01*
X147287704Y-74372581D01*
X147097514Y-74310785D01*
X147097512Y-74310784D01*
X147097510Y-74310784D01*
X146899991Y-74279500D01*
X146700009Y-74279500D01*
X146700008Y-74279500D01*
X146614638Y-74293021D01*
X146502490Y-74310784D01*
X146502488Y-74310784D01*
X146502485Y-74310785D01*
X146312295Y-74372581D01*
X146312291Y-74372583D01*
X146134119Y-74463367D01*
X146134112Y-74463372D01*
X145972323Y-74580918D01*
X145830918Y-74722323D01*
X145743057Y-74843254D01*
X145691056Y-74881034D01*
X145626781Y-74881034D01*
X145574781Y-74843253D01*
X145559629Y-74813067D01*
X145515920Y-74672797D01*
X145515918Y-74672793D01*
X145515916Y-74672789D01*
X145431684Y-74533454D01*
X145316545Y-74418315D01*
X145177210Y-74334083D01*
X145177203Y-74334080D01*
X145021749Y-74285639D01*
X145021746Y-74285638D01*
X145021744Y-74285638D01*
X144981201Y-74281954D01*
X144954195Y-74279500D01*
X144954191Y-74279500D01*
X143645807Y-74279500D01*
X143645791Y-74279501D01*
X143578251Y-74285639D01*
X143422796Y-74334080D01*
X143422789Y-74334083D01*
X143283454Y-74418315D01*
X143168315Y-74533454D01*
X143084083Y-74672789D01*
X143084080Y-74672796D01*
X143035640Y-74828248D01*
X143035638Y-74828255D01*
X143029500Y-74895800D01*
X143029500Y-76704192D01*
X143029501Y-76704208D01*
X143033792Y-76751419D01*
X143035639Y-76771749D01*
X143066963Y-76872271D01*
X143084080Y-76927203D01*
X143084083Y-76927210D01*
X143168315Y-77066545D01*
X143283454Y-77181684D01*
X143422789Y-77265916D01*
X143422793Y-77265918D01*
X143422797Y-77265920D01*
X143578251Y-77314361D01*
X143645805Y-77320500D01*
X143805966Y-77320499D01*
X143813946Y-77323092D01*
X143822236Y-77321779D01*
X143843936Y-77332836D01*
X143867096Y-77340361D01*
X143879499Y-77350953D01*
X143965055Y-77436509D01*
X143965057Y-77436510D01*
X143970987Y-77442440D01*
X144472121Y-77943574D01*
X144501302Y-78000844D01*
X144491247Y-78064328D01*
X144445797Y-78109778D01*
X144429526Y-78116402D01*
X144372797Y-78134080D01*
X144372794Y-78134081D01*
X144372789Y-78134083D01*
X144233454Y-78218315D01*
X144123539Y-78328231D01*
X144066269Y-78357412D01*
X144002785Y-78347357D01*
X143976461Y-78328231D01*
X143866545Y-78218315D01*
X143727210Y-78134083D01*
X143727203Y-78134080D01*
X143649214Y-78109778D01*
X143571749Y-78085639D01*
X143571746Y-78085638D01*
X143571744Y-78085638D01*
X143526544Y-78081531D01*
X143504195Y-78079500D01*
X143504191Y-78079500D01*
X142495807Y-78079500D01*
X142495791Y-78079501D01*
X142428251Y-78085639D01*
X142272796Y-78134080D01*
X142272789Y-78134083D01*
X142133454Y-78218315D01*
X142018315Y-78333454D01*
X141934083Y-78472789D01*
X141934080Y-78472796D01*
X141885640Y-78628248D01*
X141885638Y-78628255D01*
X141879500Y-78695800D01*
X141879500Y-79454192D01*
X141879501Y-79454208D01*
X141885639Y-79521748D01*
X141934080Y-79677203D01*
X141934083Y-79677210D01*
X142018315Y-79816545D01*
X142133453Y-79931683D01*
X142264656Y-80010999D01*
X142306693Y-80059622D01*
X142312123Y-80123667D01*
X142278871Y-80178673D01*
X142264656Y-80189001D01*
X142133453Y-80268316D01*
X142018315Y-80383454D01*
X141934083Y-80522789D01*
X141934080Y-80522796D01*
X141885640Y-80678248D01*
X141885638Y-80678255D01*
X141879500Y-80745800D01*
X141879500Y-81504192D01*
X141879501Y-81504208D01*
X141885229Y-81567245D01*
X141885639Y-81571749D01*
X141892887Y-81595008D01*
X141934080Y-81727203D01*
X141934083Y-81727210D01*
X142018315Y-81866545D01*
X142133454Y-81981684D01*
X142272789Y-82065916D01*
X142272793Y-82065918D01*
X142272797Y-82065920D01*
X142428251Y-82114361D01*
X142495805Y-82120500D01*
X143504194Y-82120499D01*
X143504198Y-82120498D01*
X143504208Y-82120498D01*
X143517688Y-82119272D01*
X143571749Y-82114361D01*
X143727203Y-82065920D01*
X143866547Y-81981683D01*
X143976461Y-81871769D01*
X144033731Y-81842588D01*
X144097215Y-81852643D01*
X144123539Y-81871769D01*
X144233454Y-81981684D01*
X144372789Y-82065916D01*
X144372793Y-82065918D01*
X144372797Y-82065920D01*
X144528251Y-82114361D01*
X144595805Y-82120500D01*
X145604194Y-82120499D01*
X145606345Y-82120303D01*
X145611086Y-82119873D01*
X145673763Y-82134120D01*
X145716095Y-82182487D01*
X145724500Y-82223446D01*
X145724500Y-82560968D01*
X145704638Y-82622098D01*
X145694039Y-82634507D01*
X145061822Y-83266723D01*
X145004552Y-83295904D01*
X144941068Y-83285849D01*
X144895618Y-83240399D01*
X144849433Y-83149755D01*
X144755244Y-83055566D01*
X144636563Y-82995095D01*
X144603740Y-82989896D01*
X144538097Y-82979500D01*
X144538095Y-82979500D01*
X143471909Y-82979500D01*
X143471901Y-82979501D01*
X143434902Y-82985361D01*
X143373438Y-82995095D01*
X143373436Y-82995096D01*
X143373435Y-82995096D01*
X143254755Y-83055566D01*
X143160566Y-83149755D01*
X143100094Y-83268438D01*
X143097567Y-83276219D01*
X143096550Y-83275888D01*
X143096550Y-83282638D01*
X143082236Y-83302338D01*
X143071180Y-83324039D01*
X143063702Y-83327848D01*
X143058770Y-83334638D01*
X143035607Y-83342163D01*
X143013910Y-83353219D01*
X142997640Y-83354500D01*
X142878202Y-83354500D01*
X142878186Y-83354499D01*
X142871817Y-83354499D01*
X142728184Y-83354499D01*
X142728181Y-83354499D01*
X142589450Y-83391673D01*
X142589443Y-83391675D01*
X142465056Y-83463489D01*
X142465053Y-83463492D01*
X141004508Y-84924039D01*
X140947238Y-84953220D01*
X140930969Y-84954500D01*
X140134025Y-84954500D01*
X140072895Y-84934638D01*
X140035115Y-84882638D01*
X140035115Y-84818362D01*
X140041360Y-84803285D01*
X140082419Y-84722703D01*
X140144216Y-84532510D01*
X140175500Y-84334991D01*
X140175500Y-84135009D01*
X140144216Y-83937490D01*
X140082419Y-83747297D01*
X139991629Y-83569113D01*
X139874083Y-83407325D01*
X139732675Y-83265917D01*
X139578132Y-83153635D01*
X139540354Y-83101637D01*
X139540354Y-83037361D01*
X139578134Y-82985361D01*
X139639264Y-82965499D01*
X139788091Y-82965499D01*
X139788096Y-82965499D01*
X139886562Y-82949905D01*
X140005245Y-82889433D01*
X140099433Y-82795245D01*
X140159905Y-82676562D01*
X140175500Y-82578097D01*
X140175499Y-80811904D01*
X140159905Y-80713438D01*
X140099433Y-80594755D01*
X140005245Y-80500567D01*
X140005244Y-80500566D01*
X139886563Y-80440095D01*
X139853740Y-80434896D01*
X139788097Y-80424500D01*
X139788095Y-80424500D01*
X138021909Y-80424500D01*
X138021901Y-80424501D01*
X137981515Y-80430897D01*
X137923438Y-80440095D01*
X137923436Y-80440096D01*
X137923435Y-80440096D01*
X137804755Y-80500566D01*
X137710566Y-80594755D01*
X137650095Y-80713436D01*
X137634500Y-80811902D01*
X137634500Y-80960734D01*
X137614638Y-81021864D01*
X137562638Y-81059644D01*
X137498362Y-81059644D01*
X137446362Y-81021864D01*
X137334083Y-80867325D01*
X137192675Y-80725917D01*
X137030887Y-80608371D01*
X137030882Y-80608368D01*
X137030880Y-80608367D01*
X136852708Y-80517583D01*
X136852704Y-80517581D01*
X136662514Y-80455785D01*
X136662512Y-80455784D01*
X136662510Y-80455784D01*
X136464991Y-80424500D01*
X136265009Y-80424500D01*
X136265008Y-80424500D01*
X136179638Y-80438021D01*
X136067490Y-80455784D01*
X136067488Y-80455784D01*
X136067485Y-80455785D01*
X135877295Y-80517581D01*
X135877291Y-80517583D01*
X135699119Y-80608367D01*
X135699112Y-80608372D01*
X135537323Y-80725918D01*
X135395918Y-80867323D01*
X135278372Y-81029112D01*
X135278367Y-81029119D01*
X135187583Y-81207291D01*
X135187581Y-81207295D01*
X135125785Y-81397485D01*
X135125784Y-81397488D01*
X135125784Y-81397490D01*
X135108021Y-81509638D01*
X135095500Y-81588698D01*
X135094500Y-81595009D01*
X135094500Y-81794991D01*
X135124069Y-81981684D01*
X135125785Y-81992514D01*
X135187581Y-82182704D01*
X135187583Y-82182708D01*
X135262813Y-82330353D01*
X135278371Y-82360887D01*
X135395917Y-82522675D01*
X135537325Y-82664083D01*
X135699113Y-82781629D01*
X135699119Y-82781632D01*
X135877133Y-82872336D01*
X135922582Y-82917786D01*
X135932636Y-82981270D01*
X135903456Y-83038540D01*
X135877133Y-83057664D01*
X135699119Y-83148367D01*
X135699114Y-83148370D01*
X135699113Y-83148371D01*
X135638217Y-83192614D01*
X135537323Y-83265918D01*
X135395918Y-83407323D01*
X135278372Y-83569112D01*
X135278367Y-83569119D01*
X135187583Y-83747291D01*
X135187581Y-83747295D01*
X135125785Y-83937485D01*
X135095373Y-84129500D01*
X135094500Y-84135009D01*
X135094500Y-84334991D01*
X135124401Y-84523781D01*
X135125785Y-84532514D01*
X135187581Y-84722704D01*
X135187583Y-84722708D01*
X135278372Y-84900890D01*
X135278375Y-84900893D01*
X135339479Y-84984997D01*
X135342071Y-84992976D01*
X135348005Y-84998910D01*
X135351815Y-85022965D01*
X135359341Y-85046127D01*
X135356748Y-85054106D01*
X135358061Y-85062394D01*
X135347003Y-85084095D01*
X135339478Y-85107256D01*
X135328881Y-85119664D01*
X135283492Y-85165054D01*
X134983039Y-85465507D01*
X134925769Y-85494688D01*
X134862285Y-85484633D01*
X134816835Y-85439183D01*
X134805500Y-85391968D01*
X134805500Y-76877714D01*
X134805641Y-76872308D01*
X134811513Y-76760255D01*
X136154500Y-76760255D01*
X136154500Y-76989744D01*
X136182916Y-77205573D01*
X136184452Y-77217238D01*
X136197495Y-77265916D01*
X136243840Y-77438880D01*
X136243839Y-77438880D01*
X136243842Y-77438887D01*
X136331656Y-77650888D01*
X136446389Y-77849612D01*
X136586081Y-78031661D01*
X136748339Y-78193919D01*
X136930388Y-78333611D01*
X137129112Y-78448344D01*
X137341113Y-78536158D01*
X137341116Y-78536158D01*
X137341119Y-78536160D01*
X137406966Y-78553803D01*
X137562762Y-78595548D01*
X137691080Y-78612441D01*
X137790255Y-78625499D01*
X137790262Y-78625499D01*
X137790266Y-78625500D01*
X137790269Y-78625500D01*
X138019731Y-78625500D01*
X138019734Y-78625500D01*
X138019738Y-78625499D01*
X138019744Y-78625499D01*
X138089787Y-78616277D01*
X138247238Y-78595548D01*
X138468887Y-78536158D01*
X138680888Y-78448344D01*
X138879612Y-78333611D01*
X139061661Y-78193919D01*
X139223919Y-78031661D01*
X139363611Y-77849612D01*
X139478344Y-77650888D01*
X139566158Y-77438887D01*
X139625548Y-77217238D01*
X139651636Y-77019083D01*
X139655499Y-76989744D01*
X139655500Y-76989731D01*
X139655500Y-76760268D01*
X139655499Y-76760255D01*
X139642441Y-76661080D01*
X139625548Y-76532762D01*
X139566158Y-76311113D01*
X139478344Y-76099112D01*
X139363611Y-75900388D01*
X139223919Y-75718339D01*
X139061661Y-75556081D01*
X138879612Y-75416389D01*
X138680888Y-75301656D01*
X138468887Y-75213842D01*
X138468880Y-75213839D01*
X138280164Y-75163274D01*
X138247238Y-75154452D01*
X138247230Y-75154450D01*
X138247225Y-75154450D01*
X138019744Y-75124500D01*
X138019734Y-75124500D01*
X137790266Y-75124500D01*
X137790255Y-75124500D01*
X137562774Y-75154450D01*
X137562766Y-75154451D01*
X137562762Y-75154452D01*
X137562758Y-75154452D01*
X137562758Y-75154453D01*
X137341119Y-75213839D01*
X137129118Y-75301653D01*
X137129114Y-75301655D01*
X137129112Y-75301656D01*
X137096162Y-75320680D01*
X136930385Y-75416391D01*
X136748337Y-75556082D01*
X136586082Y-75718337D01*
X136446391Y-75900385D01*
X136446389Y-75900388D01*
X136433643Y-75922465D01*
X136331655Y-76099114D01*
X136331653Y-76099118D01*
X136243839Y-76311119D01*
X136184453Y-76532758D01*
X136184450Y-76532774D01*
X136154500Y-76760255D01*
X134811513Y-76760255D01*
X134822193Y-76556458D01*
X134823330Y-76545639D01*
X134872381Y-76235944D01*
X134874641Y-76225317D01*
X134955793Y-75922451D01*
X134959148Y-75912126D01*
X135071514Y-75619404D01*
X135075932Y-75609479D01*
X135218284Y-75330097D01*
X135223714Y-75320691D01*
X135394488Y-75057722D01*
X135400887Y-75048918D01*
X135421971Y-75022881D01*
X135598200Y-74805256D01*
X135605465Y-74797187D01*
X135827187Y-74575465D01*
X135835256Y-74568200D01*
X136078919Y-74370886D01*
X136087724Y-74364488D01*
X136350691Y-74193714D01*
X136360097Y-74188284D01*
X136639479Y-74045932D01*
X136649404Y-74041514D01*
X136942126Y-73929148D01*
X136952451Y-73925793D01*
X137255317Y-73844641D01*
X137265944Y-73842381D01*
X137575645Y-73793329D01*
X137586458Y-73792193D01*
X137902271Y-73775642D01*
X137907714Y-73775500D01*
X137970892Y-73775500D01*
X160639108Y-73775500D01*
X160702286Y-73775500D01*
X160707728Y-73775642D01*
G37*
%TD.AperFunction*%
%TA.AperFunction,Conductor*%
G36*
X136615000Y-129521988D02*
G01*
X136557993Y-129489075D01*
X136430826Y-129455000D01*
X136299174Y-129455000D01*
X136172007Y-129489075D01*
X136115000Y-129521988D01*
X136115000Y-127848012D01*
X136172007Y-127880925D01*
X136299174Y-127915000D01*
X136430826Y-127915000D01*
X136557993Y-127880925D01*
X136615000Y-127848012D01*
X136615000Y-129521988D01*
G37*
%TD.AperFunction*%
%TD*%
M02*
