M48
; DRILL file {KiCad 9.0.0} date 2025-04-11T15:19:24-0500
; FORMAT={-:-/ absolute / inch / decimal}
; #@! TF.CreationDate,2025-04-11T15:19:24-05:00
; #@! TF.GenerationSoftware,Kicad,Pcbnew,9.0.0
; #@! TF.FileFunction,Plated,1,2,PTH
FMAT,2
INCH
; #@! TA.AperFunction,Plated,PTH,ViaDrill
T1C0.0118
; #@! TA.AperFunction,Plated,PTH,ComponentDrill
T2C0.0197
; #@! TA.AperFunction,Plated,PTH,ComponentDrill
T3C0.0394
; #@! TA.AperFunction,Plated,PTH,ComponentDrill
T4C0.0402
; #@! TA.AperFunction,Plated,PTH,ComponentDrill
T5C0.0472
%
G90
G05
T1
X5.5827Y-4.2151
X5.5939Y-4.6707
X5.6299Y-3.1132
X5.7482Y-4.825
X5.8194Y-4.0362
X5.8307Y-3.5979
X5.9011Y-4.0354
X5.9252Y-3.5979
X5.9434Y-5.1339
X5.9567Y-3.2362
X5.9803Y-4.3307
X6.0251Y-5.1339
X6.0251Y-5.2165
X6.0418Y-3.2047
X6.063Y-4.3307
X6.122Y-3.1181
X6.1235Y-3.2047
T2
X5.6695Y-3.3031
X6.315Y-4.1339
X6.315Y-4.2165
X6.315Y-4.2992
T3
X5.3687Y-3.2163
X5.3687Y-3.3163
X5.3687Y-3.4163
X5.3687Y-3.5163
X5.3687Y-3.6163
X5.3687Y-3.7163
X5.3687Y-3.8163
X5.3687Y-3.9163
X5.3687Y-4.0163
X5.3687Y-4.1163
X5.3687Y-4.2163
X5.3687Y-4.3163
X5.3687Y-4.4163
X5.3687Y-4.5163
X5.3687Y-4.6163
X5.3687Y-4.7163
X5.3687Y-4.8163
X5.3687Y-4.9163
X5.3687Y-5.0163
X5.3687Y-5.1163
X5.4687Y-3.2163
X5.4687Y-3.3163
X5.4687Y-3.4163
X5.4687Y-3.5163
X5.4687Y-3.6163
X5.4687Y-3.7163
X5.4687Y-3.8163
X5.4687Y-3.9163
X5.4687Y-4.0163
X5.4687Y-4.1163
X5.4687Y-4.2163
X5.4687Y-4.3163
X5.4687Y-4.4163
X5.4687Y-4.5163
X5.4687Y-4.6163
X5.4687Y-4.7163
X5.4687Y-4.8163
X5.4687Y-4.9163
X5.4687Y-5.0163
X5.4687Y-5.1163
X5.7913Y-5.022
X5.7913Y-5.122
X5.7913Y-5.3307
X5.8281Y-3.3622
X5.8913Y-5.3307
X5.9281Y-3.3622
X5.9913Y-5.3307
X6.0394Y-4.7543
X6.0394Y-4.8543
T4
X6.3346Y-4.7441
X6.3346Y-4.8622
T5
X5.6811Y-2.9843
X5.7795Y-2.9843
X5.878Y-2.9843
X5.9764Y-2.9843
X6.0748Y-2.9843
M30
